{"glyphs":{"0":{"ha":1319,"x_min":0,"x_max":1111,"o":"m 139 1389 l 972 1389 l 972 1250 l 139 1250 l 139 1389 m 139 139 l 972 139 l 972 0 l 139 0 l 139 139 m 0 972 l 278 972 l 278 833 l 0 833 l 0 972 m 833 764 l 1111 764 l 1111 625 l 833 625 l 833 764 m 0 556 l 278 556 l 278 417 l 0 417 l 0 556 m 833 556 l 1111 556 l 1111 417 l 833 417 l 833 556 m 833 972 l 1111 972 l 1111 833 l 833 833 l 833 972 m 0 347 l 278 347 l 278 208 l 0 208 l 0 347 m 833 347 l 1111 347 l 1111 208 l 833 208 l 833 347 m 0 1181 l 278 1181 l 278 1042 l 0 1042 l 0 1181 m 833 1181 l 1111 1181 l 1111 1042 l 833 1042 l 833 1181 m 0 764 l 278 764 l 278 625 l 0 625 l 0 764 m 486 764 l 625 764 l 625 625 l 486 625 l 486 764 m 625 972 l 764 972 l 764 833 l 625 833 l 625 972 m 347 556 l 486 556 l 486 417 l 347 417 l 347 556 z "},"1":{"ha":1319,"x_min":0,"x_max":1111,"o":"m 0 1181 l 347 1181 l 347 1042 l 0 1042 l 0 1181 m 764 139 l 1111 139 l 1111 0 l 764 0 l 764 139 m 0 139 l 347 139 l 347 0 l 0 0 l 0 139 m 417 1389 l 694 1389 l 694 1250 l 417 1250 l 417 1389 m 417 1181 l 694 1181 l 694 1042 l 417 1042 l 417 1181 m 417 139 l 694 139 l 694 0 l 417 0 l 417 139 m 417 764 l 694 764 l 694 625 l 417 625 l 417 764 m 417 556 l 694 556 l 694 417 l 417 417 l 417 556 m 417 347 l 694 347 l 694 208 l 417 208 l 417 347 m 417 972 l 694 972 l 694 833 l 417 833 l 417 972 z "},"2":{"ha":1319,"x_min":0,"x_max":1111,"o":"m 0 1389 l 972 1389 l 972 1250 l 0 1250 l 0 1389 m 139 764 l 972 764 l 972 625 l 139 625 l 139 764 m 347 139 l 1111 139 l 1111 0 l 347 0 l 347 139 m 0 556 l 278 556 l 278 417 l 0 417 l 0 556 m 0 347 l 278 347 l 278 208 l 0 208 l 0 347 m 833 972 l 1111 972 l 1111 833 l 833 833 l 833 972 m 0 139 l 278 139 l 278 0 l 0 0 l 0 139 m 833 1181 l 1111 1181 l 1111 1042 l 833 1042 l 833 1181 z "},"3":{"ha":1319,"x_min":0,"x_max":1111,"o":"m 0 1389 l 972 1389 l 972 1250 l 0 1250 l 0 1389 m 0 139 l 972 139 l 972 0 l 0 0 l 0 139 m 347 764 l 972 764 l 972 625 l 347 625 l 347 764 m 833 347 l 1111 347 l 1111 208 l 833 208 l 833 347 m 833 972 l 1111 972 l 1111 833 l 833 833 l 833 972 m 833 1181 l 1111 1181 l 1111 1042 l 833 1042 l 833 1181 m 833 556 l 1111 556 l 1111 417 l 833 417 l 833 556 z "},"4":{"ha":1319,"x_min":0,"x_max":1111,"o":"m 347 764 l 764 764 l 764 625 l 347 625 l 347 764 m 833 1389 l 1111 1389 l 1111 1250 l 833 1250 l 833 1389 m 0 1181 l 278 1181 l 278 1042 l 0 1042 l 0 1181 m 0 972 l 278 972 l 278 833 l 0 833 l 0 972 m 833 556 l 1111 556 l 1111 417 l 833 417 l 833 556 m 833 972 l 1111 972 l 1111 833 l 833 833 l 833 972 m 833 347 l 1111 347 l 1111 208 l 833 208 l 833 347 m 833 139 l 1111 139 l 1111 0 l 833 0 l 833 139 m 0 1389 l 278 1389 l 278 1250 l 0 1250 l 0 1389 m 833 1181 l 1111 1181 l 1111 1042 l 833 1042 l 833 1181 m 0 764 l 278 764 l 278 625 l 0 625 l 0 764 m 833 764 l 1111 764 l 1111 625 l 833 625 l 833 764 z "},"5":{"ha":1319,"x_min":0,"x_max":1111,"o":"m 0 139 l 972 139 l 972 0 l 0 0 l 0 139 m 347 1389 l 1111 1389 l 1111 1250 l 347 1250 l 347 1389 m 347 972 l 972 972 l 972 833 l 347 833 l 347 972 m 0 1181 l 278 1181 l 278 1042 l 0 1042 l 0 1181 m 833 764 l 1111 764 l 1111 625 l 833 625 l 833 764 m 833 556 l 1111 556 l 1111 417 l 833 417 l 833 556 m 833 347 l 1111 347 l 1111 208 l 833 208 l 833 347 m 0 1389 l 278 1389 l 278 1250 l 0 1250 l 0 1389 m 0 972 l 278 972 l 278 833 l 0 833 l 0 972 z "},"6":{"ha":1319,"x_min":0,"x_max":1111,"o":"m 139 1389 l 972 1389 l 972 1250 l 139 1250 l 139 1389 m 139 139 l 972 139 l 972 0 l 139 0 l 139 139 m 347 972 l 972 972 l 972 833 l 347 833 l 347 972 m 0 972 l 278 972 l 278 833 l 0 833 l 0 972 m 833 764 l 1111 764 l 1111 625 l 833 625 l 833 764 m 0 556 l 278 556 l 278 417 l 0 417 l 0 556 m 833 556 l 1111 556 l 1111 417 l 833 417 l 833 556 m 0 347 l 278 347 l 278 208 l 0 208 l 0 347 m 0 1181 l 278 1181 l 278 1042 l 0 1042 l 0 1181 m 833 347 l 1111 347 l 1111 208 l 833 208 l 833 347 m 0 764 l 278 764 l 278 625 l 0 625 l 0 764 z "},"7":{"ha":1319,"x_min":0,"x_max":1111,"o":"m 0 1389 l 764 1389 l 764 1250 l 0 1250 l 0 1389 m 833 1181 l 1111 1181 l 1111 1042 l 833 1042 l 833 1181 m 833 556 l 1111 556 l 1111 417 l 833 417 l 833 556 m 833 347 l 1111 347 l 1111 208 l 833 208 l 833 347 m 0 972 l 278 972 l 278 833 l 0 833 l 0 972 m 833 139 l 1111 139 l 1111 0 l 833 0 l 833 139 m 833 1389 l 1111 1389 l 1111 1250 l 833 1250 l 833 1389 m 833 972 l 1111 972 l 1111 833 l 833 833 l 833 972 m 0 1181 l 278 1181 l 278 1042 l 0 1042 l 0 1181 m 833 764 l 1111 764 l 1111 625 l 833 625 l 833 764 z "},"8":{"ha":1319,"x_min":0,"x_max":1111,"o":"m 139 1389 l 972 1389 l 972 1250 l 139 1250 l 139 1389 m 139 764 l 972 764 l 972 625 l 139 625 l 139 764 m 139 139 l 972 139 l 972 0 l 139 0 l 139 139 m 0 972 l 278 972 l 278 833 l 0 833 l 0 972 m 833 972 l 1111 972 l 1111 833 l 833 833 l 833 972 m 0 556 l 278 556 l 278 417 l 0 417 l 0 556 m 833 556 l 1111 556 l 1111 417 l 833 417 l 833 556 m 0 347 l 278 347 l 278 208 l 0 208 l 0 347 m 833 347 l 1111 347 l 1111 208 l 833 208 l 833 347 m 0 1181 l 278 1181 l 278 1042 l 0 1042 l 0 1181 m 833 1181 l 1111 1181 l 1111 1042 l 833 1042 l 833 1181 z "},"9":{"ha":1319,"x_min":0,"x_max":1111,"o":"m 139 1389 l 972 1389 l 972 1250 l 139 1250 l 139 1389 m 139 139 l 972 139 l 972 0 l 139 0 l 139 139 m 139 764 l 764 764 l 764 625 l 139 625 l 139 764 m 0 972 l 278 972 l 278 833 l 0 833 l 0 972 m 833 764 l 1111 764 l 1111 625 l 833 625 l 833 764 m 833 972 l 1111 972 l 1111 833 l 833 833 l 833 972 m 833 556 l 1111 556 l 1111 417 l 833 417 l 833 556 m 833 347 l 1111 347 l 1111 208 l 833 208 l 833 347 m 0 1181 l 278 1181 l 278 1042 l 0 1042 l 0 1181 m 833 1181 l 1111 1181 l 1111 1042 l 833 1042 l 833 1181 z "}," ":{"ha":1321,"x_min":0,"x_max":0,"o":""}," ":{"ha":1321,"x_min":0,"x_max":0,"o":""},"%":{"ha":1319,"x_min":0,"x_max":1111,"o":"m 0 1389 l 278 1389 l 278 1250 l 0 1250 l 0 1389 m 833 1389 l 1111 1389 l 1111 1250 l 833 1250 l 833 1389 m 0 1181 l 278 1181 l 278 1042 l 0 1042 l 0 1181 m 556 972 l 833 972 l 833 833 l 556 833 l 556 972 m 0 139 l 278 139 l 278 0 l 0 0 l 0 139 m 833 139 l 1111 139 l 1111 0 l 833 0 l 833 139 m 694 1181 l 972 1181 l 972 1042 l 694 1042 l 694 1181 m 417 764 l 694 764 l 694 625 l 417 625 l 417 764 m 278 556 l 556 556 l 556 417 l 278 417 l 278 556 m 139 347 l 417 347 l 417 208 l 139 208 l 139 347 m 833 347 l 1111 347 l 1111 208 l 833 208 l 833 347 z "},"&":{"ha":1458,"x_min":0,"x_max":1250,"o":"m 139 1389 l 833 1389 l 833 1250 l 139 1250 l 139 1389 m 139 764 l 833 764 l 833 625 l 139 625 l 139 764 m 139 139 l 833 139 l 833 0 l 139 0 l 139 139 m 0 1181 l 278 1181 l 278 1042 l 0 1042 l 0 1181 m 0 972 l 278 972 l 278 833 l 0 833 l 0 972 m 0 556 l 278 556 l 278 417 l 0 417 l 0 556 m 694 972 l 972 972 l 972 833 l 694 833 l 694 972 m 694 556 l 972 556 l 972 417 l 694 417 l 694 556 m 0 347 l 278 347 l 278 208 l 0 208 l 0 347 m 694 347 l 972 347 l 972 208 l 694 208 l 694 347 m 694 1181 l 972 1181 l 972 1042 l 694 1042 l 694 1181 m 972 764 l 1250 764 l 1250 625 l 972 625 l 972 764 m 972 139 l 1250 139 l 1250 0 l 972 0 l 972 139 z "},"'":{"ha":417,"x_min":0,"x_max":208,"o":"m 0 1389 l 208 1389 l 208 1250 l 0 1250 l 0 1389 m 0 1181 l 208 1181 l 208 1042 l 0 1042 l 0 1181 m 0 972 l 208 972 l 208 833 l 0 833 l 0 972 z "},"(":{"ha":833,"x_min":0,"x_max":625,"o":"m 139 1389 l 625 1389 l 625 1250 l 139 1250 l 139 1389 m 139 139 l 625 139 l 625 0 l 139 0 l 139 139 m 0 1181 l 278 1181 l 278 1042 l 0 1042 l 0 1181 m 0 764 l 278 764 l 278 625 l 0 625 l 0 764 m 0 556 l 278 556 l 278 417 l 0 417 l 0 556 m 0 347 l 278 347 l 278 208 l 0 208 l 0 347 m 0 972 l 278 972 l 278 833 l 0 833 l 0 972 z "},")":{"ha":833,"x_min":0,"x_max":625,"o":"m 0 1389 l 486 1389 l 486 1250 l 0 1250 l 0 1389 m 0 139 l 486 139 l 486 0 l 0 0 l 0 139 m 347 1181 l 625 1181 l 625 1042 l 347 1042 l 347 1181 m 347 764 l 625 764 l 625 625 l 347 625 l 347 764 m 347 556 l 625 556 l 625 417 l 347 417 l 347 556 m 347 347 l 625 347 l 625 208 l 347 208 l 347 347 m 347 972 l 625 972 l 625 833 l 347 833 l 347 972 z "},"*":{"ha":1181,"x_min":0,"x_max":972,"o":"m 0 764 l 972 764 l 972 625 l 0 625 l 0 764 m 347 972 l 625 972 l 625 833 l 347 833 l 347 972 m 347 556 l 625 556 l 625 417 l 347 417 l 347 556 m 139 1181 l 347 1181 l 347 1042 l 139 1042 l 139 1181 m 625 1181 l 833 1181 l 833 1042 l 625 1042 l 625 1181 m 139 347 l 347 347 l 347 208 l 139 208 l 139 347 m 625 347 l 833 347 l 833 208 l 625 208 l 625 347 z "},"+":{"ha":1181,"x_min":0,"x_max":972,"o":"m 0 764 l 972 764 l 972 625 l 0 625 l 0 764 m 347 1181 l 625 1181 l 625 1042 l 347 1042 l 347 1181 m 347 972 l 625 972 l 625 833 l 347 833 l 347 972 m 347 556 l 625 556 l 625 417 l 347 417 l 347 556 m 347 347 l 625 347 l 625 208 l 347 208 l 347 347 z "},",":{"ha":556,"x_min":0,"x_max":347,"o":"m 0 139 l 278 139 l 278 0 l 0 0 l 0 139 m 69 -69 l 347 -69 l 347 -208 l 69 -208 l 69 -69 z "},"-":{"ha":1042,"x_min":0,"x_max":833,"o":"m 0 764 l 833 764 l 833 625 l 0 625 l 0 764 z "},".":{"ha":556,"x_min":0,"x_max":278,"o":"m 0 139 l 278 139 l 278 0 l 0 0 l 0 139 z "},"/":{"ha":1319,"x_min":0,"x_max":1111,"o":"m 833 1389 l 1111 1389 l 1111 1250 l 833 1250 l 833 1389 m 694 1181 l 972 1181 l 972 1042 l 694 1042 l 694 1181 m 556 972 l 833 972 l 833 833 l 556 833 l 556 972 m 278 556 l 556 556 l 556 417 l 278 417 l 278 556 m 139 347 l 417 347 l 417 208 l 139 208 l 139 347 m 417 764 l 694 764 l 694 625 l 417 625 l 417 764 m 0 139 l 278 139 l 278 0 l 0 0 l 0 139 z "},":":{"ha":486,"x_min":0,"x_max":278,"o":"m 0 1111 l 278 1111 l 278 972 l 0 972 l 0 1111 m 0 417 l 278 417 l 278 278 l 0 278 l 0 417 z "},";":{"ha":417,"x_min":0,"x_max":347,"o":"m 0 1111 l 278 1111 l 278 972 l 0 972 l 0 1111 m 0 139 l 278 139 l 278 0 l 0 0 l 0 139 m 69 -69 l 347 -69 l 347 -208 l 69 -208 l 69 -69 z "},"<":{"ha":763,"x_min":0,"x_max":556,"o":"m 278 1181 l 556 1181 l 556 1042 l 278 1042 l 278 1181 m 139 972 l 417 972 l 417 833 l 139 833 l 139 972 m 0 764 l 278 764 l 278 625 l 0 625 l 0 764 m 278 347 l 556 347 l 556 208 l 278 208 l 278 347 m 139 556 l 417 556 l 417 417 l 139 417 l 139 556 z "},"=":{"ha":1181,"x_min":0,"x_max":972,"o":"m 0 972 l 972 972 l 972 833 l 0 833 l 0 972 m 0 556 l 972 556 l 972 417 l 0 417 l 0 556 z "},">":{"ha":763,"x_min":0,"x_max":556,"o":"m 0 1181 l 278 1181 l 278 1042 l 0 1042 l 0 1181 m 139 972 l 417 972 l 417 833 l 139 833 l 139 972 m 278 764 l 556 764 l 556 625 l 278 625 l 278 764 m 0 347 l 278 347 l 278 208 l 0 208 l 0 347 m 139 556 l 417 556 l 417 417 l 139 417 l 139 556 z "},"?":{"ha":1319,"x_min":0,"x_max":1111,"o":"m 139 1389 l 972 1389 l 972 1250 l 139 1250 l 139 1389 m 556 764 l 972 764 l 972 625 l 556 625 l 556 764 m 833 1181 l 1111 1181 l 1111 1042 l 833 1042 l 833 1181 m 417 139 l 694 139 l 694 0 l 417 0 l 417 139 m 833 972 l 1111 972 l 1111 833 l 833 833 l 833 972 m 0 1181 l 278 1181 l 278 1042 l 0 1042 l 0 1181 m 417 556 l 694 556 l 694 417 l 417 417 l 417 556 z "},"@":{"ha":1319,"x_min":0,"x_max":1111,"o":"m 139 1389 l 972 1389 l 972 1250 l 139 1250 l 139 1389 m 139 139 l 972 139 l 972 0 l 139 0 l 139 139 m 0 972 l 278 972 l 278 833 l 0 833 l 0 972 m 0 556 l 278 556 l 278 417 l 0 417 l 0 556 m 486 556 l 764 556 l 764 417 l 486 417 l 486 556 m 833 972 l 1111 972 l 1111 833 l 833 833 l 833 972 m 833 556 l 1111 556 l 1111 417 l 833 417 l 833 556 m 0 1181 l 278 1181 l 278 1042 l 0 1042 l 0 1181 m 0 347 l 278 347 l 278 208 l 0 208 l 0 347 m 833 1181 l 1111 1181 l 1111 1042 l 833 1042 l 833 1181 m 0 764 l 278 764 l 278 625 l 0 625 l 0 764 m 833 764 l 1111 764 l 1111 625 l 833 625 l 833 764 z "},"A":{"ha":1319,"x_min":0,"x_max":1111,"o":"m 139 1389 l 972 1389 l 972 1250 l 139 1250 l 139 1389 m 347 764 l 764 764 l 764 625 l 347 625 l 347 764 m 0 972 l 278 972 l 278 833 l 0 833 l 0 972 m 833 764 l 1111 764 l 1111 625 l 833 625 l 833 764 m 833 972 l 1111 972 l 1111 833 l 833 833 l 833 972 m 0 556 l 278 556 l 278 417 l 0 417 l 0 556 m 833 556 l 1111 556 l 1111 417 l 833 417 l 833 556 m 0 347 l 278 347 l 278 208 l 0 208 l 0 347 m 833 347 l 1111 347 l 1111 208 l 833 208 l 833 347 m 0 1181 l 278 1181 l 278 1042 l 0 1042 l 0 1181 m 0 764 l 278 764 l 278 625 l 0 625 l 0 764 m 0 139 l 278 139 l 278 0 l 0 0 l 0 139 m 833 139 l 1111 139 l 1111 0 l 833 0 l 833 139 m 833 1181 l 1111 1181 l 1111 1042 l 833 1042 l 833 1181 z "},"B":{"ha":1319,"x_min":0,"x_max":1111,"o":"m 0 1389 l 972 1389 l 972 1250 l 0 1250 l 0 1389 m 0 764 l 972 764 l 972 625 l 0 625 l 0 764 m 0 139 l 972 139 l 972 0 l 0 0 l 0 139 m 833 1181 l 1111 1181 l 1111 1042 l 833 1042 l 833 1181 m 0 972 l 278 972 l 278 833 l 0 833 l 0 972 m 0 556 l 278 556 l 278 417 l 0 417 l 0 556 m 833 556 l 1111 556 l 1111 417 l 833 417 l 833 556 m 833 972 l 1111 972 l 1111 833 l 833 833 l 833 972 m 0 347 l 278 347 l 278 208 l 0 208 l 0 347 m 833 347 l 1111 347 l 1111 208 l 833 208 l 833 347 m 0 1181 l 278 1181 l 278 1042 l 0 1042 l 0 1181 z "},"C":{"ha":1319,"x_min":0,"x_max":1111,"o":"m 139 1389 l 972 1389 l 972 1250 l 139 1250 l 139 1389 m 139 139 l 972 139 l 972 0 l 139 0 l 139 139 m 0 347 l 278 347 l 278 208 l 0 208 l 0 347 m 833 347 l 1111 347 l 1111 208 l 833 208 l 833 347 m 833 1181 l 1111 1181 l 1111 1042 l 833 1042 l 833 1181 m 0 972 l 278 972 l 278 833 l 0 833 l 0 972 m 0 1181 l 278 1181 l 278 1042 l 0 1042 l 0 1181 m 0 764 l 278 764 l 278 625 l 0 625 l 0 764 m 0 556 l 278 556 l 278 417 l 0 417 l 0 556 z "},"D":{"ha":1319,"x_min":0,"x_max":1111,"o":"m 347 1389 l 972 1389 l 972 1250 l 347 1250 l 347 1389 m 347 139 l 972 139 l 972 0 l 347 0 l 347 139 m 0 1389 l 278 1389 l 278 1250 l 0 1250 l 0 1389 m 833 1181 l 1111 1181 l 1111 1042 l 833 1042 l 833 1181 m 833 764 l 1111 764 l 1111 625 l 833 625 l 833 764 m 0 556 l 278 556 l 278 417 l 0 417 l 0 556 m 0 972 l 278 972 l 278 833 l 0 833 l 0 972 m 833 556 l 1111 556 l 1111 417 l 833 417 l 833 556 m 0 347 l 278 347 l 278 208 l 0 208 l 0 347 m 0 1181 l 278 1181 l 278 1042 l 0 1042 l 0 1181 m 833 347 l 1111 347 l 1111 208 l 833 208 l 833 347 m 833 972 l 1111 972 l 1111 833 l 833 833 l 833 972 m 0 139 l 278 139 l 278 0 l 0 0 l 0 139 m 0 764 l 278 764 l 278 625 l 0 625 l 0 764 z "},"E":{"ha":1319,"x_min":0,"x_max":1111,"o":"m 347 1389 l 1111 1389 l 1111 1250 l 347 1250 l 347 1389 m 347 139 l 1111 139 l 1111 0 l 347 0 l 347 139 m 347 764 l 764 764 l 764 625 l 347 625 l 347 764 m 0 1181 l 278 1181 l 278 1042 l 0 1042 l 0 1181 m 0 556 l 278 556 l 278 417 l 0 417 l 0 556 m 0 347 l 278 347 l 278 208 l 0 208 l 0 347 m 0 1389 l 278 1389 l 278 1250 l 0 1250 l 0 1389 m 0 139 l 278 139 l 278 0 l 0 0 l 0 139 m 0 972 l 278 972 l 278 833 l 0 833 l 0 972 m 0 764 l 278 764 l 278 625 l 0 625 l 0 764 z "},"F":{"ha":1319,"x_min":0,"x_max":1111,"o":"m 347 1389 l 1111 1389 l 1111 1250 l 347 1250 l 347 1389 m 347 764 l 764 764 l 764 625 l 347 625 l 347 764 m 0 1389 l 278 1389 l 278 1250 l 0 1250 l 0 1389 m 0 1181 l 278 1181 l 278 1042 l 0 1042 l 0 1181 m 0 556 l 278 556 l 278 417 l 0 417 l 0 556 m 0 972 l 278 972 l 278 833 l 0 833 l 0 972 m 0 347 l 278 347 l 278 208 l 0 208 l 0 347 m 0 764 l 278 764 l 278 625 l 0 625 l 0 764 m 0 139 l 278 139 l 278 0 l 0 0 l 0 139 z "},"G":{"ha":1319,"x_min":0,"x_max":1111,"o":"m 139 1389 l 972 1389 l 972 1250 l 139 1250 l 139 1389 m 139 139 l 972 139 l 972 0 l 139 0 l 139 139 m 0 347 l 278 347 l 278 208 l 0 208 l 0 347 m 833 347 l 1111 347 l 1111 208 l 833 208 l 833 347 m 0 972 l 278 972 l 278 833 l 0 833 l 0 972 m 0 764 l 278 764 l 278 625 l 0 625 l 0 764 m 0 1181 l 278 1181 l 278 1042 l 0 1042 l 0 1181 m 0 556 l 278 556 l 278 417 l 0 417 l 0 556 m 833 556 l 1111 556 l 1111 417 l 833 417 l 833 556 m 556 556 l 764 556 l 764 417 l 556 417 l 556 556 z "},"H":{"ha":1319,"x_min":0,"x_max":1111,"o":"m 347 764 l 764 764 l 764 625 l 347 625 l 347 764 m 833 1389 l 1111 1389 l 1111 1250 l 833 1250 l 833 1389 m 0 1181 l 278 1181 l 278 1042 l 0 1042 l 0 1181 m 0 972 l 278 972 l 278 833 l 0 833 l 0 972 m 833 972 l 1111 972 l 1111 833 l 833 833 l 833 972 m 0 556 l 278 556 l 278 417 l 0 417 l 0 556 m 833 1181 l 1111 1181 l 1111 1042 l 833 1042 l 833 1181 m 833 556 l 1111 556 l 1111 417 l 833 417 l 833 556 m 0 347 l 278 347 l 278 208 l 0 208 l 0 347 m 0 1389 l 278 1389 l 278 1250 l 0 1250 l 0 1389 m 0 764 l 278 764 l 278 625 l 0 625 l 0 764 m 833 347 l 1111 347 l 1111 208 l 833 208 l 833 347 m 0 139 l 278 139 l 278 0 l 0 0 l 0 139 m 833 764 l 1111 764 l 1111 625 l 833 625 l 833 764 m 833 139 l 1111 139 l 1111 0 l 833 0 l 833 139 z "},"I":{"ha":1319,"x_min":0,"x_max":1111,"o":"m 0 1389 l 347 1389 l 347 1250 l 0 1250 l 0 1389 m 0 139 l 347 139 l 347 0 l 0 0 l 0 139 m 764 139 l 1111 139 l 1111 0 l 764 0 l 764 139 m 764 1389 l 1111 1389 l 1111 1250 l 764 1250 l 764 1389 m 417 1389 l 694 1389 l 694 1250 l 417 1250 l 417 1389 m 417 972 l 694 972 l 694 833 l 417 833 l 417 972 m 417 139 l 694 139 l 694 0 l 417 0 l 417 139 m 417 764 l 694 764 l 694 625 l 417 625 l 417 764 m 417 556 l 694 556 l 694 417 l 417 417 l 417 556 m 417 1181 l 694 1181 l 694 1042 l 417 1042 l 417 1181 m 417 347 l 694 347 l 694 208 l 417 208 l 417 347 z "},"J":{"ha":1319,"x_min":0,"x_max":1111,"o":"m 0 1389 l 1111 1389 l 1111 1250 l 0 1250 l 0 1389 m 139 139 l 972 139 l 972 0 l 139 0 l 139 139 m 833 1181 l 1111 1181 l 1111 1042 l 833 1042 l 833 1181 m 833 556 l 1111 556 l 1111 417 l 833 417 l 833 556 m 0 347 l 278 347 l 278 208 l 0 208 l 0 347 m 0 1181 l 278 1181 l 278 1042 l 0 1042 l 0 1181 m 833 347 l 1111 347 l 1111 208 l 833 208 l 833 347 m 833 972 l 1111 972 l 1111 833 l 833 833 l 833 972 m 833 764 l 1111 764 l 1111 625 l 833 625 l 833 764 m 0 556 l 278 556 l 278 417 l 0 417 l 0 556 z "},"K":{"ha":1319,"x_min":0,"x_max":1111,"o":"m 347 764 l 694 764 l 694 625 l 347 625 l 347 764 m 833 1389 l 1111 1389 l 1111 1250 l 833 1250 l 833 1389 m 0 1181 l 278 1181 l 278 1042 l 0 1042 l 0 1181 m 0 972 l 278 972 l 278 833 l 0 833 l 0 972 m 556 556 l 833 556 l 833 417 l 556 417 l 556 556 m 556 972 l 833 972 l 833 833 l 556 833 l 556 972 m 0 347 l 278 347 l 278 208 l 0 208 l 0 347 m 694 1181 l 972 1181 l 972 1042 l 694 1042 l 694 1181 m 694 347 l 972 347 l 972 208 l 694 208 l 694 347 m 0 764 l 278 764 l 278 625 l 0 625 l 0 764 m 0 139 l 278 139 l 278 0 l 0 0 l 0 139 m 0 1389 l 278 1389 l 278 1250 l 0 1250 l 0 1389 m 833 139 l 1111 139 l 1111 0 l 833 0 l 833 139 m 0 556 l 278 556 l 278 417 l 0 417 l 0 556 z "},"L":{"ha":1319,"x_min":0,"x_max":1111,"o":"m 0 139 l 1111 139 l 1111 0 l 0 0 l 0 139 m 0 1181 l 278 1181 l 278 1042 l 0 1042 l 0 1181 m 0 972 l 278 972 l 278 833 l 0 833 l 0 972 m 0 556 l 278 556 l 278 417 l 0 417 l 0 556 m 0 347 l 278 347 l 278 208 l 0 208 l 0 347 m 0 1389 l 278 1389 l 278 1250 l 0 1250 l 0 1389 m 0 764 l 278 764 l 278 625 l 0 625 l 0 764 z "},"M":{"ha":1319,"x_min":0,"x_max":1111,"o":"m 0 1389 l 278 1389 l 278 1250 l 0 1250 l 0 1389 m 833 1389 l 1111 1389 l 1111 1250 l 833 1250 l 833 1389 m 0 1181 l 278 1181 l 278 1042 l 0 1042 l 0 1181 m 0 972 l 278 972 l 278 833 l 0 833 l 0 972 m 833 764 l 1111 764 l 1111 625 l 833 625 l 833 764 m 0 556 l 278 556 l 278 417 l 0 417 l 0 556 m 833 972 l 1111 972 l 1111 833 l 833 833 l 833 972 m 833 556 l 1111 556 l 1111 417 l 833 417 l 833 556 m 0 347 l 278 347 l 278 208 l 0 208 l 0 347 m 833 1181 l 1111 1181 l 1111 1042 l 833 1042 l 833 1181 m 833 347 l 1111 347 l 1111 208 l 833 208 l 833 347 m 0 139 l 278 139 l 278 0 l 0 0 l 0 139 m 0 764 l 278 764 l 278 625 l 0 625 l 0 764 m 833 139 l 1111 139 l 1111 0 l 833 0 l 833 139 m 625 972 l 764 972 l 764 833 l 625 833 l 625 972 m 347 972 l 486 972 l 486 833 l 347 833 l 347 972 m 486 764 l 625 764 l 625 625 l 486 625 l 486 764 z "},"N":{"ha":1319,"x_min":0,"x_max":1111,"o":"m 0 1389 l 278 1389 l 278 1250 l 0 1250 l 0 1389 m 833 1389 l 1111 1389 l 1111 1250 l 833 1250 l 833 1389 m 0 1181 l 278 1181 l 278 1042 l 0 1042 l 0 1181 m 0 972 l 278 972 l 278 833 l 0 833 l 0 972 m 0 556 l 278 556 l 278 417 l 0 417 l 0 556 m 833 972 l 1111 972 l 1111 833 l 833 833 l 833 972 m 833 556 l 1111 556 l 1111 417 l 833 417 l 833 556 m 0 347 l 278 347 l 278 208 l 0 208 l 0 347 m 833 1181 l 1111 1181 l 1111 1042 l 833 1042 l 833 1181 m 0 764 l 278 764 l 278 625 l 0 625 l 0 764 m 833 347 l 1111 347 l 1111 208 l 833 208 l 833 347 m 0 139 l 278 139 l 278 0 l 0 0 l 0 139 m 833 764 l 1111 764 l 1111 625 l 833 625 l 833 764 m 833 139 l 1111 139 l 1111 0 l 833 0 l 833 139 m 625 556 l 764 556 l 764 417 l 625 417 l 625 556 m 347 972 l 486 972 l 486 833 l 347 833 l 347 972 m 486 764 l 625 764 l 625 625 l 486 625 l 486 764 z "},"O":{"ha":1319,"x_min":0,"x_max":1111,"o":"m 139 1389 l 972 1389 l 972 1250 l 139 1250 l 139 1389 m 139 139 l 972 139 l 972 0 l 139 0 l 139 139 m 0 972 l 278 972 l 278 833 l 0 833 l 0 972 m 0 556 l 278 556 l 278 417 l 0 417 l 0 556 m 833 556 l 1111 556 l 1111 417 l 833 417 l 833 556 m 833 972 l 1111 972 l 1111 833 l 833 833 l 833 972 m 0 347 l 278 347 l 278 208 l 0 208 l 0 347 m 833 347 l 1111 347 l 1111 208 l 833 208 l 833 347 m 0 1181 l 278 1181 l 278 1042 l 0 1042 l 0 1181 m 833 1181 l 1111 1181 l 1111 1042 l 833 1042 l 833 1181 m 0 764 l 278 764 l 278 625 l 0 625 l 0 764 m 833 764 l 1111 764 l 1111 625 l 833 625 l 833 764 z "},"P":{"ha":1319,"x_min":0,"x_max":1111,"o":"m 347 1389 l 972 1389 l 972 1250 l 347 1250 l 347 1389 m 347 556 l 972 556 l 972 417 l 347 417 l 347 556 m 833 1181 l 1111 1181 l 1111 1042 l 833 1042 l 833 1181 m 833 764 l 1111 764 l 1111 625 l 833 625 l 833 764 m 0 556 l 278 556 l 278 417 l 0 417 l 0 556 m 0 1389 l 278 1389 l 278 1250 l 0 1250 l 0 1389 m 0 972 l 278 972 l 278 833 l 0 833 l 0 972 m 0 1181 l 278 1181 l 278 1042 l 0 1042 l 0 1181 m 833 972 l 1111 972 l 1111 833 l 833 833 l 833 972 m 0 347 l 278 347 l 278 208 l 0 208 l 0 347 m 0 139 l 278 139 l 278 0 l 0 0 l 0 139 m 0 764 l 278 764 l 278 625 l 0 625 l 0 764 z "},"Q":{"ha":1319,"x_min":0,"x_max":1111,"o":"m 139 139 l 1111 139 l 1111 0 l 139 0 l 139 139 m 139 1389 l 972 1389 l 972 1250 l 139 1250 l 139 1389 m 0 972 l 278 972 l 278 833 l 0 833 l 0 972 m 0 556 l 278 556 l 278 417 l 0 417 l 0 556 m 833 556 l 1111 556 l 1111 417 l 833 417 l 833 556 m 833 972 l 1111 972 l 1111 833 l 833 833 l 833 972 m 0 347 l 278 347 l 278 208 l 0 208 l 0 347 m 833 347 l 1111 347 l 1111 208 l 833 208 l 833 347 m 0 1181 l 278 1181 l 278 1042 l 0 1042 l 0 1181 m 833 1181 l 1111 1181 l 1111 1042 l 833 1042 l 833 1181 m 0 764 l 278 764 l 278 625 l 0 625 l 0 764 m 833 764 l 1111 764 l 1111 625 l 833 625 l 833 764 m 625 347 l 764 347 l 764 208 l 625 208 l 625 347 z "},"R":{"ha":1319,"x_min":0,"x_max":1111,"o":"m 347 1389 l 972 1389 l 972 1250 l 347 1250 l 347 1389 m 347 764 l 972 764 l 972 625 l 347 625 l 347 764 m 0 1389 l 278 1389 l 278 1250 l 0 1250 l 0 1389 m 0 972 l 278 972 l 278 833 l 0 833 l 0 972 m 0 556 l 278 556 l 278 417 l 0 417 l 0 556 m 833 972 l 1111 972 l 1111 833 l 833 833 l 833 972 m 556 556 l 833 556 l 833 417 l 556 417 l 556 556 m 0 347 l 278 347 l 278 208 l 0 208 l 0 347 m 694 347 l 972 347 l 972 208 l 694 208 l 694 347 m 0 1181 l 278 1181 l 278 1042 l 0 1042 l 0 1181 m 0 764 l 278 764 l 278 625 l 0 625 l 0 764 m 0 139 l 278 139 l 278 0 l 0 0 l 0 139 m 833 139 l 1111 139 l 1111 0 l 833 0 l 833 139 m 833 1181 l 1111 1181 l 1111 1042 l 833 1042 l 833 1181 z "},"S":{"ha":1319,"x_min":0,"x_max":1111,"o":"m 139 1389 l 1111 1389 l 1111 1250 l 139 1250 l 139 1389 m 0 139 l 972 139 l 972 0 l 0 0 l 0 139 m 139 764 l 972 764 l 972 625 l 139 625 l 139 764 m 833 347 l 1111 347 l 1111 208 l 833 208 l 833 347 m 833 556 l 1111 556 l 1111 417 l 833 417 l 833 556 m 0 972 l 278 972 l 278 833 l 0 833 l 0 972 m 0 1181 l 278 1181 l 278 1042 l 0 1042 l 0 1181 z "},"T":{"ha":1319,"x_min":0,"x_max":1111,"o":"m 0 1389 l 347 1389 l 347 1250 l 0 1250 l 0 1389 m 764 1389 l 1111 1389 l 1111 1250 l 764 1250 l 764 1389 m 417 1389 l 694 1389 l 694 1250 l 417 1250 l 417 1389 m 417 972 l 694 972 l 694 833 l 417 833 l 417 972 m 417 139 l 694 139 l 694 0 l 417 0 l 417 139 m 417 764 l 694 764 l 694 625 l 417 625 l 417 764 m 417 556 l 694 556 l 694 417 l 417 417 l 417 556 m 417 1181 l 694 1181 l 694 1042 l 417 1042 l 417 1181 m 417 347 l 694 347 l 694 208 l 417 208 l 417 347 z "},"U":{"ha":1319,"x_min":0,"x_max":1111,"o":"m 139 139 l 972 139 l 972 0 l 139 0 l 139 139 m 833 1389 l 1111 1389 l 1111 1250 l 833 1250 l 833 1389 m 0 1181 l 278 1181 l 278 1042 l 0 1042 l 0 1181 m 0 972 l 278 972 l 278 833 l 0 833 l 0 972 m 0 556 l 278 556 l 278 417 l 0 417 l 0 556 m 833 556 l 1111 556 l 1111 417 l 833 417 l 833 556 m 833 972 l 1111 972 l 1111 833 l 833 833 l 833 972 m 0 347 l 278 347 l 278 208 l 0 208 l 0 347 m 833 347 l 1111 347 l 1111 208 l 833 208 l 833 347 m 0 1389 l 278 1389 l 278 1250 l 0 1250 l 0 1389 m 833 1181 l 1111 1181 l 1111 1042 l 833 1042 l 833 1181 m 0 764 l 278 764 l 278 625 l 0 625 l 0 764 m 833 764 l 1111 764 l 1111 625 l 833 625 l 833 764 z "},"V":{"ha":1319,"x_min":0,"x_max":1111,"o":"m 0 1389 l 278 1389 l 278 1250 l 0 1250 l 0 1389 m 833 1389 l 1111 1389 l 1111 1250 l 833 1250 l 833 1389 m 0 1181 l 278 1181 l 278 1042 l 0 1042 l 0 1181 m 0 972 l 278 972 l 278 833 l 0 833 l 0 972 m 0 556 l 278 556 l 278 417 l 0 417 l 0 556 m 833 556 l 1111 556 l 1111 417 l 833 417 l 833 556 m 833 972 l 1111 972 l 1111 833 l 833 833 l 833 972 m 208 347 l 486 347 l 486 208 l 208 208 l 208 347 m 625 347 l 903 347 l 903 208 l 625 208 l 625 347 m 833 1181 l 1111 1181 l 1111 1042 l 833 1042 l 833 1181 m 0 764 l 278 764 l 278 625 l 0 625 l 0 764 m 417 139 l 694 139 l 694 0 l 417 0 l 417 139 m 833 764 l 1111 764 l 1111 625 l 833 625 l 833 764 z "},"W":{"ha":1319,"x_min":0,"x_max":1111,"o":"m 69 139 l 486 139 l 486 0 l 69 0 l 69 139 m 625 139 l 1042 139 l 1042 0 l 625 0 l 625 139 m 0 1389 l 278 1389 l 278 1250 l 0 1250 l 0 1389 m 833 1389 l 1111 1389 l 1111 1250 l 833 1250 l 833 1389 m 0 1181 l 278 1181 l 278 1042 l 0 1042 l 0 1181 m 833 764 l 1111 764 l 1111 625 l 833 625 l 833 764 m 0 972 l 278 972 l 278 833 l 0 833 l 0 972 m 417 972 l 694 972 l 694 833 l 417 833 l 417 972 m 833 972 l 1111 972 l 1111 833 l 833 833 l 833 972 m 0 556 l 278 556 l 278 417 l 0 417 l 0 556 m 417 556 l 694 556 l 694 417 l 417 417 l 417 556 m 833 556 l 1111 556 l 1111 417 l 833 417 l 833 556 m 833 1181 l 1111 1181 l 1111 1042 l 833 1042 l 833 1181 m 0 347 l 278 347 l 278 208 l 0 208 l 0 347 m 417 347 l 694 347 l 694 208 l 417 208 l 417 347 m 0 764 l 278 764 l 278 625 l 0 625 l 0 764 m 833 347 l 1111 347 l 1111 208 l 833 208 l 833 347 m 417 764 l 694 764 l 694 625 l 417 625 l 417 764 z "},"X":{"ha":1319,"x_min":0,"x_max":1111,"o":"m 0 1389 l 278 1389 l 278 1250 l 0 1250 l 0 1389 m 833 1389 l 1111 1389 l 1111 1250 l 833 1250 l 833 1389 m 139 1181 l 417 1181 l 417 1042 l 139 1042 l 139 1181 m 694 347 l 972 347 l 972 208 l 694 208 l 694 347 m 0 139 l 278 139 l 278 0 l 0 0 l 0 139 m 694 1181 l 972 1181 l 972 1042 l 694 1042 l 694 1181 m 833 139 l 1111 139 l 1111 0 l 833 0 l 833 139 m 417 764 l 694 764 l 694 625 l 417 625 l 417 764 m 139 347 l 417 347 l 417 208 l 139 208 l 139 347 m 278 972 l 486 972 l 486 833 l 278 833 l 278 972 m 625 972 l 833 972 l 833 833 l 625 833 l 625 972 m 278 556 l 486 556 l 486 417 l 278 417 l 278 556 m 625 556 l 833 556 l 833 417 l 625 417 l 625 556 z "},"Y":{"ha":1319,"x_min":0,"x_max":1111,"o":"m 0 1389 l 278 1389 l 278 1250 l 0 1250 l 0 1389 m 833 1389 l 1111 1389 l 1111 1250 l 833 1250 l 833 1389 m 139 1181 l 417 1181 l 417 1042 l 139 1042 l 139 1181 m 417 139 l 694 139 l 694 0 l 417 0 l 417 139 m 694 1181 l 972 1181 l 972 1042 l 694 1042 l 694 1181 m 417 764 l 694 764 l 694 625 l 417 625 l 417 764 m 417 556 l 694 556 l 694 417 l 417 417 l 417 556 m 417 347 l 694 347 l 694 208 l 417 208 l 417 347 m 278 972 l 486 972 l 486 833 l 278 833 l 278 972 m 625 972 l 833 972 l 833 833 l 625 833 l 625 972 z "},"Z":{"ha":1319,"x_min":0,"x_max":1111,"o":"m 0 1389 l 833 1389 l 833 1250 l 0 1250 l 0 1389 m 347 139 l 1111 139 l 1111 0 l 347 0 l 347 139 m 694 1181 l 972 1181 l 972 1042 l 694 1042 l 694 1181 m 0 139 l 278 139 l 278 0 l 0 0 l 0 139 m 139 347 l 417 347 l 417 208 l 139 208 l 139 347 m 556 972 l 833 972 l 833 833 l 556 833 l 556 972 m 417 764 l 694 764 l 694 625 l 417 625 l 417 764 m 278 556 l 556 556 l 556 417 l 278 417 l 278 556 m 903 1389 l 1111 1389 l 1111 1250 l 903 1250 l 903 1389 z "},"[":{"ha":833,"x_min":0,"x_max":625,"o":"m 0 1389 l 278 1389 l 278 1250 l 0 1250 l 0 1389 m 347 1389 l 625 1389 l 625 1250 l 347 1250 l 347 1389 m 0 1181 l 278 1181 l 278 1042 l 0 1042 l 0 1181 m 0 764 l 278 764 l 278 625 l 0 625 l 0 764 m 0 556 l 278 556 l 278 417 l 0 417 l 0 556 m 0 972 l 278 972 l 278 833 l 0 833 l 0 972 m 0 347 l 278 347 l 278 208 l 0 208 l 0 347 m 0 139 l 278 139 l 278 0 l 0 0 l 0 139 m 347 139 l 625 139 l 625 0 l 347 0 l 347 139 z "},"\\":{"ha":1319,"x_min":0,"x_max":1111,"o":"m 0 1389 l 278 1389 l 278 1250 l 0 1250 l 0 1389 m 139 1181 l 417 1181 l 417 1042 l 139 1042 l 139 1181 m 278 972 l 556 972 l 556 833 l 278 833 l 278 972 m 556 556 l 833 556 l 833 417 l 556 417 l 556 556 m 694 347 l 972 347 l 972 208 l 694 208 l 694 347 m 833 139 l 1111 139 l 1111 0 l 833 0 l 833 139 m 417 764 l 694 764 l 694 625 l 417 625 l 417 764 z "},"]":{"ha":833,"x_min":0,"x_max":625,"o":"m 0 1389 l 278 1389 l 278 1250 l 0 1250 l 0 1389 m 347 1389 l 625 1389 l 625 1250 l 347 1250 l 347 1389 m 347 1181 l 625 1181 l 625 1042 l 347 1042 l 347 1181 m 347 764 l 625 764 l 625 625 l 347 625 l 347 764 m 347 139 l 625 139 l 625 0 l 347 0 l 347 139 m 347 556 l 625 556 l 625 417 l 347 417 l 347 556 m 347 972 l 625 972 l 625 833 l 347 833 l 347 972 m 347 347 l 625 347 l 625 208 l 347 208 l 347 347 m 0 139 l 278 139 l 278 0 l 0 0 l 0 139 z "},"_":{"ha":1319,"x_min":0,"x_max":1111,"o":"m 0 139 l 1111 139 l 1111 0 l 0 0 l 0 139 z "},"a":{"ha":1181,"x_min":0,"x_max":972,"o":"m 139 972 l 833 972 l 833 833 l 139 833 l 139 972 m 139 139 l 625 139 l 625 0 l 139 0 l 139 139 m 139 556 l 625 556 l 625 417 l 139 417 l 139 556 m 694 764 l 972 764 l 972 625 l 694 625 l 694 764 m 694 556 l 972 556 l 972 417 l 694 417 l 694 556 m 694 139 l 972 139 l 972 0 l 694 0 l 694 139 m 0 347 l 278 347 l 278 208 l 0 208 l 0 347 m 694 347 l 972 347 l 972 208 l 694 208 l 694 347 z "},"b":{"ha":1181,"x_min":0,"x_max":972,"o":"m 347 972 l 833 972 l 833 833 l 347 833 l 347 972 m 347 139 l 833 139 l 833 0 l 347 0 l 347 139 m 0 972 l 278 972 l 278 833 l 0 833 l 0 972 m 0 347 l 278 347 l 278 208 l 0 208 l 0 347 m 694 347 l 972 347 l 972 208 l 694 208 l 694 347 m 0 1181 l 278 1181 l 278 1042 l 0 1042 l 0 1181 m 0 764 l 278 764 l 278 625 l 0 625 l 0 764 m 0 139 l 278 139 l 278 0 l 0 0 l 0 139 m 694 764 l 972 764 l 972 625 l 694 625 l 694 764 m 0 1389 l 278 1389 l 278 1250 l 0 1250 l 0 1389 m 0 556 l 278 556 l 278 417 l 0 417 l 0 556 m 694 556 l 972 556 l 972 417 l 694 417 l 694 556 z "},"c":{"ha":1181,"x_min":0,"x_max":972,"o":"m 139 972 l 972 972 l 972 833 l 139 833 l 139 972 m 139 139 l 972 139 l 972 0 l 139 0 l 139 139 m 0 556 l 278 556 l 278 417 l 0 417 l 0 556 m 0 347 l 278 347 l 278 208 l 0 208 l 0 347 m 0 764 l 278 764 l 278 625 l 0 625 l 0 764 z "},"d":{"ha":1181,"x_min":0,"x_max":972,"o":"m 139 972 l 625 972 l 625 833 l 139 833 l 139 972 m 139 139 l 625 139 l 625 0 l 139 0 l 139 139 m 694 1181 l 972 1181 l 972 1042 l 694 1042 l 694 1181 m 0 347 l 278 347 l 278 208 l 0 208 l 0 347 m 0 764 l 278 764 l 278 625 l 0 625 l 0 764 m 694 347 l 972 347 l 972 208 l 694 208 l 694 347 m 694 1389 l 972 1389 l 972 1250 l 694 1250 l 694 1389 m 694 764 l 972 764 l 972 625 l 694 625 l 694 764 m 694 139 l 972 139 l 972 0 l 694 0 l 694 139 m 694 972 l 972 972 l 972 833 l 694 833 l 694 972 m 0 556 l 278 556 l 278 417 l 0 417 l 0 556 m 694 556 l 972 556 l 972 417 l 694 417 l 694 556 z "},"e":{"ha":1181,"x_min":0,"x_max":972,"o":"m 139 972 l 833 972 l 833 833 l 139 833 l 139 972 m 139 139 l 833 139 l 833 0 l 139 0 l 139 139 m 347 556 l 972 556 l 972 417 l 347 417 l 347 556 m 0 556 l 278 556 l 278 417 l 0 417 l 0 556 m 0 764 l 278 764 l 278 625 l 0 625 l 0 764 m 694 764 l 972 764 l 972 625 l 694 625 l 694 764 m 0 347 l 278 347 l 278 208 l 0 208 l 0 347 z "},"f":{"ha":1181,"x_min":0,"x_max":972,"o":"m 347 1389 l 833 1389 l 833 1250 l 347 1250 l 347 1389 m 208 1181 l 486 1181 l 486 1042 l 208 1042 l 208 1181 m 208 347 l 486 347 l 486 208 l 208 208 l 208 347 m 208 139 l 486 139 l 486 0 l 208 0 l 208 139 m 694 1181 l 972 1181 l 972 1042 l 694 1042 l 694 1181 m 208 764 l 486 764 l 486 625 l 208 625 l 208 764 m 556 764 l 833 764 l 833 625 l 556 625 l 556 764 m 208 972 l 486 972 l 486 833 l 208 833 l 208 972 m 208 556 l 486 556 l 486 417 l 208 417 l 208 556 m 0 764 l 139 764 l 139 625 l 0 625 l 0 764 z "},"g":{"ha":1181,"x_min":0,"x_max":972,"o":"m 139 -278 l 833 -278 l 833 -417 l 139 -417 l 139 -278 m 139 139 l 625 139 l 625 0 l 139 0 l 139 139 m 139 972 l 625 972 l 625 833 l 139 833 l 139 972 m 694 972 l 972 972 l 972 833 l 694 833 l 694 972 m 0 556 l 278 556 l 278 417 l 0 417 l 0 556 m 694 139 l 972 139 l 972 0 l 694 0 l 694 139 m 694 556 l 972 556 l 972 417 l 694 417 l 694 556 m 694 -69 l 972 -69 l 972 -208 l 694 -208 l 694 -69 m 0 764 l 278 764 l 278 625 l 0 625 l 0 764 m 0 347 l 278 347 l 278 208 l 0 208 l 0 347 m 694 764 l 972 764 l 972 625 l 694 625 l 694 764 m 694 347 l 972 347 l 972 208 l 694 208 l 694 347 z "},"h":{"ha":1181,"x_min":0,"x_max":972,"o":"m 347 972 l 833 972 l 833 833 l 347 833 l 347 972 m 0 1181 l 278 1181 l 278 1042 l 0 1042 l 0 1181 m 0 972 l 278 972 l 278 833 l 0 833 l 0 972 m 0 347 l 278 347 l 278 208 l 0 208 l 0 347 m 694 347 l 972 347 l 972 208 l 694 208 l 694 347 m 0 764 l 278 764 l 278 625 l 0 625 l 0 764 m 0 139 l 278 139 l 278 0 l 0 0 l 0 139 m 694 764 l 972 764 l 972 625 l 694 625 l 694 764 m 694 139 l 972 139 l 972 0 l 694 0 l 694 139 m 0 1389 l 278 1389 l 278 1250 l 0 1250 l 0 1389 m 0 556 l 278 556 l 278 417 l 0 417 l 0 556 m 694 556 l 972 556 l 972 417 l 694 417 l 694 556 z "},"i":{"ha":1181,"x_min":0,"x_max":972,"o":"m 347 1389 l 625 1389 l 625 1250 l 347 1250 l 347 1389 m 0 972 l 278 972 l 278 833 l 0 833 l 0 972 m 347 347 l 625 347 l 625 208 l 347 208 l 347 347 m 347 764 l 625 764 l 625 625 l 347 625 l 347 764 m 0 139 l 278 139 l 278 0 l 0 0 l 0 139 m 347 972 l 625 972 l 625 833 l 347 833 l 347 972 m 347 139 l 625 139 l 625 0 l 347 0 l 347 139 m 347 556 l 625 556 l 625 417 l 347 417 l 347 556 m 694 139 l 972 139 l 972 0 l 694 0 l 694 139 z "},"j":{"ha":1181,"x_min":0,"x_max":972,"o":"m 139 -278 l 833 -278 l 833 -417 l 139 -417 l 139 -278 m 0 972 l 625 972 l 625 833 l 0 833 l 0 972 m 0 764 l 278 764 l 278 625 l 0 625 l 0 764 m 694 139 l 972 139 l 972 0 l 694 0 l 694 139 m 0 -69 l 278 -69 l 278 -208 l 0 -208 l 0 -69 m 347 1389 l 625 1389 l 625 1250 l 347 1250 l 347 1389 m 694 764 l 972 764 l 972 625 l 694 625 l 694 764 m 694 -69 l 972 -69 l 972 -208 l 694 -208 l 694 -69 m 694 972 l 972 972 l 972 833 l 694 833 l 694 972 m 694 556 l 972 556 l 972 417 l 694 417 l 694 556 m 694 347 l 972 347 l 972 208 l 694 208 l 694 347 z "},"k":{"ha":1181,"x_min":0,"x_max":972,"o":"m 347 556 l 694 556 l 694 417 l 347 417 l 347 556 m 0 1181 l 278 1181 l 278 1042 l 0 1042 l 0 1181 m 0 972 l 278 972 l 278 833 l 0 833 l 0 972 m 0 764 l 278 764 l 278 625 l 0 625 l 0 764 m 0 347 l 278 347 l 278 208 l 0 208 l 0 347 m 556 764 l 833 764 l 833 625 l 556 625 l 556 764 m 556 347 l 833 347 l 833 208 l 556 208 l 556 347 m 0 139 l 278 139 l 278 0 l 0 0 l 0 139 m 694 139 l 972 139 l 972 0 l 694 0 l 694 139 m 0 1389 l 278 1389 l 278 1250 l 0 1250 l 0 1389 m 694 972 l 972 972 l 972 833 l 694 833 l 694 972 m 0 556 l 278 556 l 278 417 l 0 417 l 0 556 z "},"l":{"ha":1181,"x_min":0,"x_max":972,"o":"m 0 1389 l 278 1389 l 278 1250 l 0 1250 l 0 1389 m 347 1389 l 625 1389 l 625 1250 l 347 1250 l 347 1389 m 347 1181 l 625 1181 l 625 1042 l 347 1042 l 347 1181 m 347 764 l 625 764 l 625 625 l 347 625 l 347 764 m 694 139 l 972 139 l 972 0 l 694 0 l 694 139 m 347 556 l 625 556 l 625 417 l 347 417 l 347 556 m 347 972 l 625 972 l 625 833 l 347 833 l 347 972 m 347 347 l 625 347 l 625 208 l 347 208 l 347 347 m 0 139 l 278 139 l 278 0 l 0 0 l 0 139 m 347 139 l 625 139 l 625 0 l 347 0 l 347 139 z "},"m":{"ha":1181,"x_min":0,"x_max":972,"o":"m 347 972 l 833 972 l 833 833 l 347 833 l 347 972 m 0 972 l 278 972 l 278 833 l 0 833 l 0 972 m 694 764 l 972 764 l 972 625 l 694 625 l 694 764 m 694 347 l 972 347 l 972 208 l 694 208 l 694 347 m 0 556 l 278 556 l 278 417 l 0 417 l 0 556 m 0 139 l 278 139 l 278 0 l 0 0 l 0 139 m 694 139 l 972 139 l 972 0 l 694 0 l 694 139 m 0 764 l 278 764 l 278 625 l 0 625 l 0 764 m 694 556 l 972 556 l 972 417 l 694 417 l 694 556 m 0 347 l 278 347 l 278 208 l 0 208 l 0 347 m 417 347 l 556 347 l 556 208 l 417 208 l 417 347 m 417 139 l 556 139 l 556 0 l 417 0 l 417 139 m 417 556 l 556 556 l 556 417 l 417 417 l 417 556 m 417 764 l 556 764 l 556 625 l 417 625 l 417 764 z "},"n":{"ha":1181,"x_min":0,"x_max":972,"o":"m 347 972 l 833 972 l 833 833 l 347 833 l 347 972 m 0 972 l 278 972 l 278 833 l 0 833 l 0 972 m 0 556 l 278 556 l 278 417 l 0 417 l 0 556 m 0 139 l 278 139 l 278 0 l 0 0 l 0 139 m 694 139 l 972 139 l 972 0 l 694 0 l 694 139 m 694 556 l 972 556 l 972 417 l 694 417 l 694 556 m 0 764 l 278 764 l 278 625 l 0 625 l 0 764 m 0 347 l 278 347 l 278 208 l 0 208 l 0 347 m 694 764 l 972 764 l 972 625 l 694 625 l 694 764 m 694 347 l 972 347 l 972 208 l 694 208 l 694 347 z "},"o":{"ha":1181,"x_min":0,"x_max":972,"o":"m 139 972 l 833 972 l 833 833 l 139 833 l 139 972 m 139 139 l 833 139 l 833 0 l 139 0 l 139 139 m 0 764 l 278 764 l 278 625 l 0 625 l 0 764 m 0 556 l 278 556 l 278 417 l 0 417 l 0 556 m 694 556 l 972 556 l 972 417 l 694 417 l 694 556 m 694 764 l 972 764 l 972 625 l 694 625 l 694 764 m 0 347 l 278 347 l 278 208 l 0 208 l 0 347 m 694 347 l 972 347 l 972 208 l 694 208 l 694 347 z "},"p":{"ha":1181,"x_min":0,"x_max":972,"o":"m 347 972 l 833 972 l 833 833 l 347 833 l 347 972 m 347 139 l 833 139 l 833 0 l 347 0 l 347 139 m 0 972 l 278 972 l 278 833 l 0 833 l 0 972 m 0 139 l 278 139 l 278 0 l 0 0 l 0 139 m 0 556 l 278 556 l 278 417 l 0 417 l 0 556 m 694 556 l 972 556 l 972 417 l 694 417 l 694 556 m 0 -69 l 278 -69 l 278 -208 l 0 -208 l 0 -69 m 0 764 l 278 764 l 278 625 l 0 625 l 0 764 m 0 347 l 278 347 l 278 208 l 0 208 l 0 347 m 0 -278 l 278 -278 l 278 -417 l 0 -417 l 0 -278 m 694 764 l 972 764 l 972 625 l 694 625 l 694 764 m 694 347 l 972 347 l 972 208 l 694 208 l 694 347 z "},"q":{"ha":1181,"x_min":0,"x_max":972,"o":"m 139 972 l 625 972 l 625 833 l 139 833 l 139 972 m 139 139 l 625 139 l 625 0 l 139 0 l 139 139 m 694 972 l 972 972 l 972 833 l 694 833 l 694 972 m 0 556 l 278 556 l 278 417 l 0 417 l 0 556 m 694 139 l 972 139 l 972 0 l 694 0 l 694 139 m 694 556 l 972 556 l 972 417 l 694 417 l 694 556 m 694 -69 l 972 -69 l 972 -208 l 694 -208 l 694 -69 m 0 764 l 278 764 l 278 625 l 0 625 l 0 764 m 0 347 l 278 347 l 278 208 l 0 208 l 0 347 m 694 -278 l 972 -278 l 972 -417 l 694 -417 l 694 -278 m 694 764 l 972 764 l 972 625 l 694 625 l 694 764 m 694 347 l 972 347 l 972 208 l 694 208 l 694 347 z "},"r":{"ha":1181,"x_min":0,"x_max":972,"o":"m 347 972 l 833 972 l 833 833 l 347 833 l 347 972 m 0 972 l 278 972 l 278 833 l 0 833 l 0 972 m 0 556 l 278 556 l 278 417 l 0 417 l 0 556 m 0 764 l 278 764 l 278 625 l 0 625 l 0 764 m 0 347 l 278 347 l 278 208 l 0 208 l 0 347 m 0 139 l 278 139 l 278 0 l 0 0 l 0 139 m 694 764 l 972 764 l 972 625 l 694 625 l 694 764 z "},"s":{"ha":1181,"x_min":0,"x_max":972,"o":"m 139 972 l 972 972 l 972 833 l 139 833 l 139 972 m 0 139 l 833 139 l 833 0 l 0 0 l 0 139 m 139 556 l 833 556 l 833 417 l 139 417 l 139 556 m 694 347 l 972 347 l 972 208 l 694 208 l 694 347 m 0 764 l 278 764 l 278 625 l 0 625 l 0 764 z "},"t":{"ha":1181,"x_min":0,"x_max":972,"o":"m 347 139 l 833 139 l 833 0 l 347 0 l 347 139 m 208 1389 l 486 1389 l 486 1250 l 208 1250 l 208 1389 m 208 1181 l 486 1181 l 486 1042 l 208 1042 l 208 1181 m 208 764 l 486 764 l 486 625 l 208 625 l 208 764 m 208 972 l 486 972 l 486 833 l 208 833 l 208 972 m 208 556 l 486 556 l 486 417 l 208 417 l 208 556 m 556 972 l 833 972 l 833 833 l 556 833 l 556 972 m 208 347 l 486 347 l 486 208 l 208 208 l 208 347 m 694 347 l 972 347 l 972 208 l 694 208 l 694 347 m 0 972 l 139 972 l 139 833 l 0 833 l 0 972 z "},"u":{"ha":1181,"x_min":0,"x_max":972,"o":"m 139 139 l 833 139 l 833 0 l 139 0 l 139 139 m 0 972 l 278 972 l 278 833 l 0 833 l 0 972 m 694 972 l 972 972 l 972 833 l 694 833 l 694 972 m 0 764 l 278 764 l 278 625 l 0 625 l 0 764 m 0 556 l 278 556 l 278 417 l 0 417 l 0 556 m 694 556 l 972 556 l 972 417 l 694 417 l 694 556 m 694 764 l 972 764 l 972 625 l 694 625 l 694 764 m 0 347 l 278 347 l 278 208 l 0 208 l 0 347 m 694 347 l 972 347 l 972 208 l 694 208 l 694 347 z "},"v":{"ha":1181,"x_min":0,"x_max":972,"o":"m 0 972 l 278 972 l 278 833 l 0 833 l 0 972 m 694 972 l 972 972 l 972 833 l 694 833 l 694 972 m 0 764 l 278 764 l 278 625 l 0 625 l 0 764 m 0 556 l 278 556 l 278 417 l 0 417 l 0 556 m 347 139 l 625 139 l 625 0 l 347 0 l 347 139 m 694 556 l 972 556 l 972 417 l 694 417 l 694 556 m 694 764 l 972 764 l 972 625 l 694 625 l 694 764 m 139 347 l 417 347 l 417 208 l 139 208 l 139 347 m 556 347 l 833 347 l 833 208 l 556 208 l 556 347 z "},"w":{"ha":1181,"x_min":0,"x_max":972,"o":"m 139 139 l 833 139 l 833 0 l 139 0 l 139 139 m 0 972 l 278 972 l 278 833 l 0 833 l 0 972 m 694 972 l 972 972 l 972 833 l 694 833 l 694 972 m 694 347 l 972 347 l 972 208 l 694 208 l 694 347 m 0 764 l 278 764 l 278 625 l 0 625 l 0 764 m 0 556 l 278 556 l 278 417 l 0 417 l 0 556 m 694 556 l 972 556 l 972 417 l 694 417 l 694 556 m 694 764 l 972 764 l 972 625 l 694 625 l 694 764 m 0 347 l 278 347 l 278 208 l 0 208 l 0 347 m 417 556 l 556 556 l 556 417 l 417 417 l 417 556 m 417 764 l 556 764 l 556 625 l 417 625 l 417 764 m 417 347 l 556 347 l 556 208 l 417 208 l 417 347 z "},"x":{"ha":1181,"x_min":0,"x_max":972,"o":"m 278 556 l 694 556 l 694 417 l 278 417 l 278 556 m 0 972 l 278 972 l 278 833 l 0 833 l 0 972 m 694 972 l 972 972 l 972 833 l 694 833 l 694 972 m 139 764 l 417 764 l 417 625 l 139 625 l 139 764 m 694 139 l 972 139 l 972 0 l 694 0 l 694 139 m 556 764 l 833 764 l 833 625 l 556 625 l 556 764 m 139 347 l 417 347 l 417 208 l 139 208 l 139 347 m 556 347 l 833 347 l 833 208 l 556 208 l 556 347 m 0 139 l 278 139 l 278 0 l 0 0 l 0 139 z "},"y":{"ha":1181,"x_min":0,"x_max":972,"o":"m 139 -278 l 833 -278 l 833 -417 l 139 -417 l 139 -278 m 139 139 l 625 139 l 625 0 l 139 0 l 139 139 m 694 972 l 972 972 l 972 833 l 694 833 l 694 972 m 0 764 l 278 764 l 278 625 l 0 625 l 0 764 m 0 556 l 278 556 l 278 417 l 0 417 l 0 556 m 694 556 l 972 556 l 972 417 l 694 417 l 694 556 m 694 139 l 972 139 l 972 0 l 694 0 l 694 139 m 0 972 l 278 972 l 278 833 l 0 833 l 0 972 m 694 -69 l 972 -69 l 972 -208 l 694 -208 l 694 -69 m 694 764 l 972 764 l 972 625 l 694 625 l 694 764 m 0 347 l 278 347 l 278 208 l 0 208 l 0 347 m 694 347 l 972 347 l 972 208 l 694 208 l 694 347 z "},"z":{"ha":1181,"x_min":0,"x_max":972,"o":"m 0 972 l 556 972 l 556 833 l 0 833 l 0 972 m 417 139 l 972 139 l 972 0 l 417 0 l 417 139 m 0 139 l 347 139 l 347 0 l 0 0 l 0 139 m 625 972 l 972 972 l 972 833 l 625 833 l 625 972 m 347 556 l 625 556 l 625 417 l 347 417 l 347 556 m 208 347 l 486 347 l 486 208 l 208 208 l 208 347 m 486 764 l 764 764 l 764 625 l 486 625 l 486 764 z "},"{":{"ha":972,"x_min":0,"x_max":764,"o":"m 139 1389 l 417 1389 l 417 1250 l 139 1250 l 139 1389 m 486 1389 l 764 1389 l 764 1250 l 486 1250 l 486 1389 m 139 1181 l 417 1181 l 417 1042 l 139 1042 l 139 1181 m 0 764 l 278 764 l 278 625 l 0 625 l 0 764 m 139 556 l 417 556 l 417 417 l 139 417 l 139 556 m 139 972 l 417 972 l 417 833 l 139 833 l 139 972 m 139 347 l 417 347 l 417 208 l 139 208 l 139 347 m 139 139 l 417 139 l 417 0 l 139 0 l 139 139 m 486 139 l 764 139 l 764 0 l 486 0 l 486 139 z "},"|":{"ha":486,"x_min":0,"x_max":278,"o":"m 0 1389 l 278 1389 l 278 1250 l 0 1250 l 0 1389 m 0 1181 l 278 1181 l 278 1042 l 0 1042 l 0 1181 m 0 972 l 278 972 l 278 833 l 0 833 l 0 972 m 0 556 l 278 556 l 278 417 l 0 417 l 0 556 m 0 347 l 278 347 l 278 208 l 0 208 l 0 347 m 0 764 l 278 764 l 278 625 l 0 625 l 0 764 m 0 139 l 278 139 l 278 0 l 0 0 l 0 139 z "},"}":{"ha":972,"x_min":0,"x_max":764,"o":"m 0 1389 l 278 1389 l 278 1250 l 0 1250 l 0 1389 m 347 1389 l 625 1389 l 625 1250 l 347 1250 l 347 1389 m 347 1181 l 625 1181 l 625 1042 l 347 1042 l 347 1181 m 486 764 l 764 764 l 764 625 l 486 625 l 486 764 m 347 139 l 625 139 l 625 0 l 347 0 l 347 139 m 347 556 l 625 556 l 625 417 l 347 417 l 347 556 m 347 972 l 625 972 l 625 833 l 347 833 l 347 972 m 347 347 l 625 347 l 625 208 l 347 208 l 347 347 m 0 139 l 278 139 l 278 0 l 0 0 l 0 139 z "},"~":{"ha":1181,"x_min":0,"x_max":972,"o":"m 139 833 l 556 833 l 556 694 l 139 694 l 139 833 m 417 625 l 833 625 l 833 486 l 417 486 l 417 625 m 764 1042 l 972 1042 l 972 903 l 764 903 l 764 1042 m 0 417 l 208 417 l 208 278 l 0 278 l 0 417 m 0 625 l 208 625 l 208 486 l 0 486 l 0 625 m 764 833 l 972 833 l 972 694 l 764 694 l 764 833 z "},"Ђ":{"ha":1319,"x_min":0,"x_max":1111,"o":"m 556 972 l 972 972 l 972 833 l 556 833 l 556 972 m 208 1389 l 486 1389 l 486 1250 l 208 1250 l 208 1389 m 556 1389 l 833 1389 l 833 1250 l 556 1250 l 556 1389 m 208 556 l 486 556 l 486 417 l 208 417 l 208 556 m 833 556 l 1111 556 l 1111 417 l 833 417 l 833 556 m 208 1181 l 486 1181 l 486 1042 l 208 1042 l 208 1181 m 208 347 l 486 347 l 486 208 l 208 208 l 208 347 m 833 347 l 1111 347 l 1111 208 l 833 208 l 833 347 m 208 972 l 486 972 l 486 833 l 208 833 l 208 972 m 208 764 l 486 764 l 486 625 l 208 625 l 208 764 m 208 139 l 486 139 l 486 0 l 208 0 l 208 139 m 694 139 l 972 139 l 972 0 l 694 0 l 694 139 m 833 764 l 1111 764 l 1111 625 l 833 625 l 833 764 m 0 1389 l 139 1389 l 139 1250 l 0 1250 l 0 1389 z "},"Ѓ":{"ha":1319,"x_min":0,"x_max":1111,"o":"m 0 1389 l 1111 1389 l 1111 1250 l 0 1250 l 0 1389 m 486 1875 l 764 1875 l 764 1736 l 486 1736 l 486 1875 m 417 1667 l 694 1667 l 694 1528 l 417 1528 l 417 1667 m 0 764 l 278 764 l 278 625 l 0 625 l 0 764 m 0 556 l 278 556 l 278 417 l 0 417 l 0 556 m 0 347 l 278 347 l 278 208 l 0 208 l 0 347 m 0 139 l 278 139 l 278 0 l 0 0 l 0 139 m 0 1181 l 278 1181 l 278 1042 l 0 1042 l 0 1181 m 0 972 l 278 972 l 278 833 l 0 833 l 0 972 z "},"‚":{"ha":556,"x_min":0,"x_max":347,"o":"m 0 139 l 278 139 l 278 0 l 0 0 l 0 139 m 69 -69 l 347 -69 l 347 -208 l 69 -208 l 69 -69 z "},"ѓ":{"ha":1181,"x_min":0,"x_max":972,"o":"m 347 972 l 972 972 l 972 833 l 347 833 l 347 972 m 417 1458 l 694 1458 l 694 1319 l 417 1319 l 417 1458 m 0 972 l 278 972 l 278 833 l 0 833 l 0 972 m 0 139 l 278 139 l 278 0 l 0 0 l 0 139 m 347 1250 l 625 1250 l 625 1111 l 347 1111 l 347 1250 m 0 764 l 278 764 l 278 625 l 0 625 l 0 764 m 0 556 l 278 556 l 278 417 l 0 417 l 0 556 m 0 347 l 278 347 l 278 208 l 0 208 l 0 347 z "},"„":{"ha":972,"x_min":0,"x_max":764,"o":"m 0 139 l 278 139 l 278 0 l 0 0 l 0 139 m 417 139 l 694 139 l 694 0 l 417 0 l 417 139 m 69 -69 l 347 -69 l 347 -208 l 69 -208 l 69 -69 m 486 -69 l 764 -69 l 764 -208 l 486 -208 l 486 -69 z "},"…":{"ha":1111,"x_min":0,"x_max":903,"o":"m 0 139 l 208 139 l 208 0 l 0 0 l 0 139 m 694 139 l 903 139 l 903 0 l 694 0 l 694 139 m 347 139 l 556 139 l 556 0 l 347 0 l 347 139 z "},"†":{"ha":1319,"x_min":0,"x_max":1111,"o":"m 0 972 l 347 972 l 347 833 l 0 833 l 0 972 m 764 972 l 1111 972 l 1111 833 l 764 833 l 764 972 m 417 1389 l 694 1389 l 694 1250 l 417 1250 l 417 1389 m 417 1181 l 694 1181 l 694 1042 l 417 1042 l 417 1181 m 417 139 l 694 139 l 694 0 l 417 0 l 417 139 m 417 764 l 694 764 l 694 625 l 417 625 l 417 764 m 417 556 l 694 556 l 694 417 l 417 417 l 417 556 m 417 972 l 694 972 l 694 833 l 417 833 l 417 972 m 417 347 l 694 347 l 694 208 l 417 208 l 417 347 z "},"‡":{"ha":1319,"x_min":0,"x_max":1111,"o":"m 0 972 l 347 972 l 347 833 l 0 833 l 0 972 m 764 972 l 1111 972 l 1111 833 l 764 833 l 764 972 m 0 556 l 347 556 l 347 417 l 0 417 l 0 556 m 764 556 l 1111 556 l 1111 417 l 764 417 l 764 556 m 417 1389 l 694 1389 l 694 1250 l 417 1250 l 417 1389 m 417 1181 l 694 1181 l 694 1042 l 417 1042 l 417 1181 m 417 347 l 694 347 l 694 208 l 417 208 l 417 347 m 417 764 l 694 764 l 694 625 l 417 625 l 417 764 m 417 139 l 694 139 l 694 0 l 417 0 l 417 139 m 417 556 l 694 556 l 694 417 l 417 417 l 417 556 m 417 972 l 694 972 l 694 833 l 417 833 l 417 972 z "},"€":{"ha":1389,"x_min":0,"x_max":1181,"o":"m 347 1389 l 1181 1389 l 1181 1250 l 347 1250 l 347 1389 m 347 139 l 1181 139 l 1181 0 l 347 0 l 347 139 m 556 972 l 972 972 l 972 833 l 556 833 l 556 972 m 556 556 l 972 556 l 972 417 l 556 417 l 556 556 m 208 556 l 486 556 l 486 417 l 208 417 l 208 556 m 208 972 l 486 972 l 486 833 l 208 833 l 208 972 m 208 347 l 486 347 l 486 208 l 208 208 l 208 347 m 208 1181 l 486 1181 l 486 1042 l 208 1042 l 208 1181 m 208 764 l 486 764 l 486 625 l 208 625 l 208 764 m 0 972 l 139 972 l 139 833 l 0 833 l 0 972 m 0 556 l 139 556 l 139 417 l 0 417 l 0 556 z "},"‰":{"ha":1458,"x_min":0,"x_max":1250,"o":"m 0 1389 l 278 1389 l 278 1250 l 0 1250 l 0 1389 m 833 1389 l 1111 1389 l 1111 1250 l 833 1250 l 833 1389 m 0 1181 l 278 1181 l 278 1042 l 0 1042 l 0 1181 m 556 972 l 833 972 l 833 833 l 556 833 l 556 972 m 972 347 l 1250 347 l 1250 208 l 972 208 l 972 347 m 0 139 l 278 139 l 278 0 l 0 0 l 0 139 m 694 1181 l 972 1181 l 972 1042 l 694 1042 l 694 1181 m 417 764 l 694 764 l 694 625 l 417 625 l 417 764 m 556 139 l 833 139 l 833 0 l 556 0 l 556 139 m 972 139 l 1250 139 l 1250 0 l 972 0 l 972 139 m 278 556 l 556 556 l 556 417 l 278 417 l 278 556 m 139 347 l 417 347 l 417 208 l 139 208 l 139 347 m 556 347 l 833 347 l 833 208 l 556 208 l 556 347 z "},"Љ":{"ha":1597,"x_min":0,"x_max":1389,"o":"m 556 764 l 1250 764 l 1250 625 l 556 625 l 556 764 m 556 139 l 1250 139 l 1250 0 l 556 0 l 556 139 m 278 1389 l 833 1389 l 833 1250 l 278 1250 l 278 1389 m 139 1181 l 417 1181 l 417 1042 l 139 1042 l 139 1181 m 0 972 l 278 972 l 278 833 l 0 833 l 0 972 m 556 972 l 833 972 l 833 833 l 556 833 l 556 972 m 0 556 l 278 556 l 278 417 l 0 417 l 0 556 m 556 1181 l 833 1181 l 833 1042 l 556 1042 l 556 1181 m 556 556 l 833 556 l 833 417 l 556 417 l 556 556 m 1111 556 l 1389 556 l 1389 417 l 1111 417 l 1111 556 m 0 764 l 278 764 l 278 625 l 0 625 l 0 764 m 0 347 l 278 347 l 278 208 l 0 208 l 0 347 m 556 347 l 833 347 l 833 208 l 556 208 l 556 347 m 1111 347 l 1389 347 l 1389 208 l 1111 208 l 1111 347 m 0 139 l 278 139 l 278 0 l 0 0 l 0 139 z "},"‹":{"ha":763,"x_min":0,"x_max":556,"o":"m 278 1181 l 556 1181 l 556 1042 l 278 1042 l 278 1181 m 139 972 l 417 972 l 417 833 l 139 833 l 139 972 m 0 764 l 278 764 l 278 625 l 0 625 l 0 764 m 278 347 l 556 347 l 556 208 l 278 208 l 278 347 m 139 556 l 417 556 l 417 417 l 139 417 l 139 556 z "},"Њ":{"ha":1597,"x_min":0,"x_max":1389,"o":"m 347 764 l 1250 764 l 1250 625 l 347 625 l 347 764 m 556 139 l 1250 139 l 1250 0 l 556 0 l 556 139 m 556 1389 l 833 1389 l 833 1250 l 556 1250 l 556 1389 m 0 1181 l 278 1181 l 278 1042 l 0 1042 l 0 1181 m 0 972 l 278 972 l 278 833 l 0 833 l 0 972 m 0 139 l 278 139 l 278 0 l 0 0 l 0 139 m 556 972 l 833 972 l 833 833 l 556 833 l 556 972 m 0 556 l 278 556 l 278 417 l 0 417 l 0 556 m 556 556 l 833 556 l 833 417 l 556 417 l 556 556 m 1111 556 l 1389 556 l 1389 417 l 1111 417 l 1111 556 m 0 1389 l 278 1389 l 278 1250 l 0 1250 l 0 1389 m 556 1181 l 833 1181 l 833 1042 l 556 1042 l 556 1181 m 0 764 l 278 764 l 278 625 l 0 625 l 0 764 m 0 347 l 278 347 l 278 208 l 0 208 l 0 347 m 556 347 l 833 347 l 833 208 l 556 208 l 556 347 m 1111 347 l 1389 347 l 1389 208 l 1111 208 l 1111 347 z "},"Ќ":{"ha":1319,"x_min":0,"x_max":1111,"o":"m 347 764 l 694 764 l 694 625 l 347 625 l 347 764 m 486 1875 l 764 1875 l 764 1736 l 486 1736 l 486 1875 m 417 1667 l 694 1667 l 694 1528 l 417 1528 l 417 1667 m 0 1389 l 278 1389 l 278 1250 l 0 1250 l 0 1389 m 0 1181 l 278 1181 l 278 1042 l 0 1042 l 0 1181 m 694 1181 l 972 1181 l 972 1042 l 694 1042 l 694 1181 m 0 556 l 278 556 l 278 417 l 0 417 l 0 556 m 833 1389 l 1111 1389 l 1111 1250 l 833 1250 l 833 1389 m 556 556 l 833 556 l 833 417 l 556 417 l 556 556 m 0 972 l 278 972 l 278 833 l 0 833 l 0 972 m 0 347 l 278 347 l 278 208 l 0 208 l 0 347 m 556 972 l 833 972 l 833 833 l 556 833 l 556 972 m 694 347 l 972 347 l 972 208 l 694 208 l 694 347 m 0 139 l 278 139 l 278 0 l 0 0 l 0 139 m 0 764 l 278 764 l 278 625 l 0 625 l 0 764 m 833 139 l 1111 139 l 1111 0 l 833 0 l 833 139 z "},"Ћ":{"ha":1319,"x_min":0,"x_max":1111,"o":"m 556 972 l 972 972 l 972 833 l 556 833 l 556 972 m 208 1389 l 486 1389 l 486 1250 l 208 1250 l 208 1389 m 556 1389 l 833 1389 l 833 1250 l 556 1250 l 556 1389 m 208 556 l 486 556 l 486 417 l 208 417 l 208 556 m 833 556 l 1111 556 l 1111 417 l 833 417 l 833 556 m 208 347 l 486 347 l 486 208 l 208 208 l 208 347 m 208 1181 l 486 1181 l 486 1042 l 208 1042 l 208 1181 m 833 347 l 1111 347 l 1111 208 l 833 208 l 833 347 m 208 139 l 486 139 l 486 0 l 208 0 l 208 139 m 208 972 l 486 972 l 486 833 l 208 833 l 208 972 m 208 764 l 486 764 l 486 625 l 208 625 l 208 764 m 833 139 l 1111 139 l 1111 0 l 833 0 l 833 139 m 833 764 l 1111 764 l 1111 625 l 833 625 l 833 764 m 0 1389 l 139 1389 l 139 1250 l 0 1250 l 0 1389 z "},"Џ":{"ha":1319,"x_min":0,"x_max":1111,"o":"m 0 139 l 1111 139 l 1111 0 l 0 0 l 0 139 m 833 1389 l 1111 1389 l 1111 1250 l 833 1250 l 833 1389 m 0 1181 l 278 1181 l 278 1042 l 0 1042 l 0 1181 m 0 972 l 278 972 l 278 833 l 0 833 l 0 972 m 0 556 l 278 556 l 278 417 l 0 417 l 0 556 m 833 556 l 1111 556 l 1111 417 l 833 417 l 833 556 m 833 972 l 1111 972 l 1111 833 l 833 833 l 833 972 m 0 347 l 278 347 l 278 208 l 0 208 l 0 347 m 833 347 l 1111 347 l 1111 208 l 833 208 l 833 347 m 0 1389 l 278 1389 l 278 1250 l 0 1250 l 0 1389 m 833 1181 l 1111 1181 l 1111 1042 l 833 1042 l 833 1181 m 0 764 l 278 764 l 278 625 l 0 625 l 0 764 m 833 764 l 1111 764 l 1111 625 l 833 625 l 833 764 m 417 -69 l 694 -69 l 694 -208 l 417 -208 l 417 -69 z "},"ђ":{"ha":1181,"x_min":0,"x_max":972,"o":"m 556 -69 l 903 -69 l 903 -208 l 556 -208 l 556 -69 m 556 1181 l 833 1181 l 833 1042 l 556 1042 l 556 1181 m 208 764 l 486 764 l 486 625 l 208 625 l 208 764 m 208 347 l 486 347 l 486 208 l 208 208 l 208 347 m 694 347 l 972 347 l 972 208 l 694 208 l 694 347 m 556 764 l 833 764 l 833 625 l 556 625 l 556 764 m 208 139 l 486 139 l 486 0 l 208 0 l 208 139 m 694 139 l 972 139 l 972 0 l 694 0 l 694 139 m 208 1389 l 486 1389 l 486 1250 l 208 1250 l 208 1389 m 208 1181 l 486 1181 l 486 1042 l 208 1042 l 208 1181 m 208 556 l 486 556 l 486 417 l 208 417 l 208 556 m 208 972 l 486 972 l 486 833 l 208 833 l 208 972 m 694 556 l 972 556 l 972 417 l 694 417 l 694 556 m 0 1181 l 139 1181 l 139 1042 l 0 1042 l 0 1181 z "},"‘":{"ha":556,"x_min":0,"x_max":347,"o":"m 0 1597 l 278 1597 l 278 1458 l 0 1458 l 0 1597 m 69 1389 l 347 1389 l 347 1250 l 69 1250 l 69 1389 z "},"’":{"ha":556,"x_min":0,"x_max":347,"o":"m 0 1389 l 278 1389 l 278 1250 l 0 1250 l 0 1389 m 69 1181 l 347 1181 l 347 1042 l 69 1042 l 69 1181 z "},"“":{"ha":972,"x_min":0,"x_max":764,"o":"m 0 1597 l 278 1597 l 278 1458 l 0 1458 l 0 1597 m 417 1597 l 694 1597 l 694 1458 l 417 1458 l 417 1597 m 69 1389 l 347 1389 l 347 1250 l 69 1250 l 69 1389 m 486 1389 l 764 1389 l 764 1250 l 486 1250 l 486 1389 z "},"”":{"ha":972,"x_min":0,"x_max":764,"o":"m 0 1389 l 278 1389 l 278 1250 l 0 1250 l 0 1389 m 417 1389 l 694 1389 l 694 1250 l 417 1250 l 417 1389 m 69 1181 l 347 1181 l 347 1042 l 69 1042 l 69 1181 m 486 1181 l 764 1181 l 764 1042 l 486 1042 l 486 1181 z "},"•":{"ha":486,"x_min":0,"x_max":278,"o":"m 0 903 l 278 903 l 278 764 l 0 764 l 0 903 m 0 625 l 278 625 l 278 486 l 0 486 l 0 625 z "},"–":{"ha":1042,"x_min":0,"x_max":833,"o":"m 0 764 l 833 764 l 833 625 l 0 625 l 0 764 z "},"—":{"ha":1181,"x_min":0,"x_max":972,"o":"m 0 764 l 972 764 l 972 625 l 0 625 l 0 764 z "},"™":{"ha":1667,"x_min":0,"x_max":1458,"o":"m 0 1250 l 139 1250 l 139 1181 l 0 1181 l 0 1250 m 208 1250 l 347 1250 l 347 1181 l 208 1181 l 208 1250 m 625 1250 l 764 1250 l 764 1181 l 625 1181 l 625 1250 m 833 1111 l 972 1111 l 972 1042 l 833 1042 l 833 1111 m 625 833 l 764 833 l 764 764 l 625 764 l 625 833 m 1319 833 l 1458 833 l 1458 764 l 1319 764 l 1319 833 m 1319 1250 l 1458 1250 l 1458 1181 l 1319 1181 l 1319 1250 m 1111 1111 l 1250 1111 l 1250 1042 l 1111 1042 l 1111 1111 m 208 694 l 347 694 l 347 625 l 208 625 l 208 694 m 625 694 l 764 694 l 764 625 l 625 625 l 625 694 m 1319 1111 l 1458 1111 l 1458 1042 l 1319 1042 l 1319 1111 m 1319 694 l 1458 694 l 1458 625 l 1319 625 l 1319 694 m 208 972 l 347 972 l 347 903 l 208 903 l 208 972 m 417 1250 l 556 1250 l 556 1181 l 417 1181 l 417 1250 m 1319 972 l 1458 972 l 1458 903 l 1319 903 l 1319 972 m 208 1111 l 347 1111 l 347 1042 l 208 1042 l 208 1111 m 625 972 l 764 972 l 764 903 l 625 903 l 625 972 m 972 972 l 1111 972 l 1111 903 l 972 903 l 972 972 m 625 1111 l 764 1111 l 764 1042 l 625 1042 l 625 1111 m 208 833 l 347 833 l 347 764 l 208 764 l 208 833 z "},"љ":{"ha":1597,"x_min":0,"x_max":1389,"o":"m 556 556 l 1250 556 l 1250 417 l 556 417 l 556 556 m 278 972 l 833 972 l 833 833 l 278 833 l 278 972 m 903 139 l 1250 139 l 1250 0 l 903 0 l 903 139 m 0 556 l 278 556 l 278 417 l 0 417 l 0 556 m 556 347 l 833 347 l 833 208 l 556 208 l 556 347 m 1111 347 l 1389 347 l 1389 208 l 1111 208 l 1111 347 m 0 139 l 278 139 l 278 0 l 0 0 l 0 139 m 139 764 l 417 764 l 417 625 l 139 625 l 139 764 m 556 139 l 833 139 l 833 0 l 556 0 l 556 139 m 556 764 l 833 764 l 833 625 l 556 625 l 556 764 m 0 347 l 278 347 l 278 208 l 0 208 l 0 347 z "},"›":{"ha":763,"x_min":0,"x_max":556,"o":"m 0 1181 l 278 1181 l 278 1042 l 0 1042 l 0 1181 m 139 972 l 417 972 l 417 833 l 139 833 l 139 972 m 278 764 l 556 764 l 556 625 l 278 625 l 278 764 m 0 347 l 278 347 l 278 208 l 0 208 l 0 347 m 139 556 l 417 556 l 417 417 l 139 417 l 139 556 z "},"њ":{"ha":1597,"x_min":0,"x_max":1389,"o":"m 347 556 l 1250 556 l 1250 417 l 347 417 l 347 556 m 903 139 l 1250 139 l 1250 0 l 903 0 l 903 139 m 0 972 l 278 972 l 278 833 l 0 833 l 0 972 m 556 972 l 833 972 l 833 833 l 556 833 l 556 972 m 0 556 l 278 556 l 278 417 l 0 417 l 0 556 m 0 347 l 278 347 l 278 208 l 0 208 l 0 347 m 556 347 l 833 347 l 833 208 l 556 208 l 556 347 m 0 764 l 278 764 l 278 625 l 0 625 l 0 764 m 1111 347 l 1389 347 l 1389 208 l 1111 208 l 1111 347 m 0 139 l 278 139 l 278 0 l 0 0 l 0 139 m 556 139 l 833 139 l 833 0 l 556 0 l 556 139 m 556 764 l 833 764 l 833 625 l 556 625 l 556 764 z "},"ќ":{"ha":1181,"x_min":0,"x_max":972,"o":"m 347 556 l 694 556 l 694 417 l 347 417 l 347 556 m 347 1250 l 625 1250 l 625 1111 l 347 1111 l 347 1250 m 0 972 l 278 972 l 278 833 l 0 833 l 0 972 m 0 764 l 278 764 l 278 625 l 0 625 l 0 764 m 0 347 l 278 347 l 278 208 l 0 208 l 0 347 m 556 764 l 833 764 l 833 625 l 556 625 l 556 764 m 556 347 l 833 347 l 833 208 l 556 208 l 556 347 m 0 139 l 278 139 l 278 0 l 0 0 l 0 139 m 694 139 l 972 139 l 972 0 l 694 0 l 694 139 m 417 1458 l 694 1458 l 694 1319 l 417 1319 l 417 1458 m 694 972 l 972 972 l 972 833 l 694 833 l 694 972 m 0 556 l 278 556 l 278 417 l 0 417 l 0 556 z "},"ћ":{"ha":1181,"x_min":0,"x_max":972,"o":"m 208 1389 l 486 1389 l 486 1250 l 208 1250 l 208 1389 m 556 1181 l 833 1181 l 833 1042 l 556 1042 l 556 1181 m 208 764 l 486 764 l 486 625 l 208 625 l 208 764 m 208 347 l 486 347 l 486 208 l 208 208 l 208 347 m 694 347 l 972 347 l 972 208 l 694 208 l 694 347 m 556 764 l 833 764 l 833 625 l 556 625 l 556 764 m 208 139 l 486 139 l 486 0 l 208 0 l 208 139 m 694 139 l 972 139 l 972 0 l 694 0 l 694 139 m 208 1181 l 486 1181 l 486 1042 l 208 1042 l 208 1181 m 208 556 l 486 556 l 486 417 l 208 417 l 208 556 m 208 972 l 486 972 l 486 833 l 208 833 l 208 972 m 694 556 l 972 556 l 972 417 l 694 417 l 694 556 m 0 1181 l 139 1181 l 139 1042 l 0 1042 l 0 1181 z "},"џ":{"ha":1181,"x_min":0,"x_max":972,"o":"m 0 139 l 972 139 l 972 0 l 0 0 l 0 139 m 0 972 l 278 972 l 278 833 l 0 833 l 0 972 m 694 972 l 972 972 l 972 833 l 694 833 l 694 972 m 0 764 l 278 764 l 278 625 l 0 625 l 0 764 m 0 556 l 278 556 l 278 417 l 0 417 l 0 556 m 694 556 l 972 556 l 972 417 l 694 417 l 694 556 m 347 -69 l 625 -69 l 625 -208 l 347 -208 l 347 -69 m 694 764 l 972 764 l 972 625 l 694 625 l 694 764 m 0 347 l 278 347 l 278 208 l 0 208 l 0 347 m 694 347 l 972 347 l 972 208 l 694 208 l 694 347 z "},"Ў":{"ha":1319,"x_min":0,"x_max":1111,"o":"m 417 1667 l 694 1667 l 694 1528 l 417 1528 l 417 1667 m 0 1389 l 278 1389 l 278 1250 l 0 1250 l 0 1389 m 139 1181 l 417 1181 l 417 1042 l 139 1042 l 139 1181 m 417 764 l 694 764 l 694 625 l 417 625 l 417 764 m 417 556 l 694 556 l 694 417 l 417 417 l 417 556 m 694 1181 l 972 1181 l 972 1042 l 694 1042 l 694 1181 m 417 347 l 694 347 l 694 208 l 417 208 l 417 347 m 417 139 l 694 139 l 694 0 l 417 0 l 417 139 m 833 1389 l 1111 1389 l 1111 1250 l 833 1250 l 833 1389 m 278 1875 l 486 1875 l 486 1736 l 278 1736 l 278 1875 m 278 972 l 486 972 l 486 833 l 278 833 l 278 972 m 625 1875 l 833 1875 l 833 1736 l 625 1736 l 625 1875 m 625 972 l 833 972 l 833 833 l 625 833 l 625 972 z "},"ў":{"ha":1181,"x_min":0,"x_max":972,"o":"m 139 -278 l 833 -278 l 833 -417 l 139 -417 l 139 -278 m 139 139 l 625 139 l 625 0 l 139 0 l 139 139 m 347 1250 l 625 1250 l 625 1111 l 347 1111 l 347 1250 m 0 764 l 278 764 l 278 625 l 0 625 l 0 764 m 0 347 l 278 347 l 278 208 l 0 208 l 0 347 m 694 347 l 972 347 l 972 208 l 694 208 l 694 347 m 0 972 l 278 972 l 278 833 l 0 833 l 0 972 m 694 764 l 972 764 l 972 625 l 694 625 l 694 764 m 694 139 l 972 139 l 972 0 l 694 0 l 694 139 m 0 556 l 278 556 l 278 417 l 0 417 l 0 556 m 694 -69 l 972 -69 l 972 -208 l 694 -208 l 694 -69 m 694 972 l 972 972 l 972 833 l 694 833 l 694 972 m 694 556 l 972 556 l 972 417 l 694 417 l 694 556 m 208 1458 l 417 1458 l 417 1319 l 208 1319 l 208 1458 m 556 1458 l 764 1458 l 764 1319 l 556 1319 l 556 1458 z "},"Ј":{"ha":1319,"x_min":0,"x_max":1111,"o":"m 0 1389 l 1111 1389 l 1111 1250 l 0 1250 l 0 1389 m 139 139 l 972 139 l 972 0 l 139 0 l 139 139 m 833 1181 l 1111 1181 l 1111 1042 l 833 1042 l 833 1181 m 833 556 l 1111 556 l 1111 417 l 833 417 l 833 556 m 0 347 l 278 347 l 278 208 l 0 208 l 0 347 m 0 1181 l 278 1181 l 278 1042 l 0 1042 l 0 1181 m 833 347 l 1111 347 l 1111 208 l 833 208 l 833 347 m 833 972 l 1111 972 l 1111 833 l 833 833 l 833 972 m 833 764 l 1111 764 l 1111 625 l 833 625 l 833 764 m 0 556 l 278 556 l 278 417 l 0 417 l 0 556 z "},"¤":{"ha":972,"x_min":0,"x_max":764,"o":"m 0 1042 l 139 1042 l 139 903 l 347 903 l 347 764 l 139 764 l 139 903 l 0 903 l 0 1042 m 417 903 l 625 903 l 625 1042 l 764 1042 l 764 903 l 625 903 l 625 764 l 417 764 l 417 903 m 0 347 l 139 347 l 139 486 l 347 486 l 347 347 l 139 347 l 139 208 l 0 208 l 0 347 m 417 486 l 625 486 l 625 347 l 764 347 l 764 208 l 625 208 l 625 347 l 417 347 l 417 486 m 139 694 l 278 694 l 278 556 l 139 556 l 139 694 m 486 694 l 625 694 l 625 556 l 486 556 l 486 694 z "},"Ґ":{"ha":1319,"x_min":0,"x_max":1111,"o":"m 0 1389 l 1111 1389 l 1111 1250 l 0 1250 l 0 1389 m 833 1597 l 1111 1597 l 1111 1458 l 833 1458 l 833 1597 m 0 556 l 278 556 l 278 417 l 0 417 l 0 556 m 0 347 l 278 347 l 278 208 l 0 208 l 0 347 m 0 139 l 278 139 l 278 0 l 0 0 l 0 139 m 0 1181 l 278 1181 l 278 1042 l 0 1042 l 0 1181 m 0 972 l 278 972 l 278 833 l 0 833 l 0 972 m 0 764 l 278 764 l 278 625 l 0 625 l 0 764 z "},"¦":{"ha":486,"x_min":0,"x_max":278,"o":"m 0 1389 l 278 1389 l 278 1250 l 0 1250 l 0 1389 m 0 1181 l 278 1181 l 278 1042 l 0 1042 l 0 1181 m 0 972 l 278 972 l 278 833 l 0 833 l 0 972 m 0 347 l 278 347 l 278 208 l 0 208 l 0 347 m 0 139 l 278 139 l 278 0 l 0 0 l 0 139 m 0 556 l 278 556 l 278 417 l 0 417 l 0 556 z "},"§":{"ha":1319,"x_min":0,"x_max":1111,"o":"m 139 1389 l 1111 1389 l 1111 1250 l 139 1250 l 139 1389 m 0 139 l 972 139 l 972 0 l 0 0 l 0 139 m 139 972 l 972 972 l 972 833 l 139 833 l 139 972 m 139 556 l 972 556 l 972 417 l 139 417 l 139 556 m 833 764 l 1111 764 l 1111 625 l 833 625 l 833 764 m 0 1181 l 278 1181 l 278 1042 l 0 1042 l 0 1181 m 833 347 l 1111 347 l 1111 208 l 833 208 l 833 347 m 0 764 l 278 764 l 278 625 l 0 625 l 0 764 z "},"Ё":{"ha":1319,"x_min":0,"x_max":1111,"o":"m 347 1389 l 1111 1389 l 1111 1250 l 347 1250 l 347 1389 m 347 139 l 1111 139 l 1111 0 l 347 0 l 347 139 m 347 764 l 764 764 l 764 625 l 347 625 l 347 764 m 0 1389 l 278 1389 l 278 1250 l 0 1250 l 0 1389 m 0 556 l 278 556 l 278 417 l 0 417 l 0 556 m 0 1181 l 278 1181 l 278 1042 l 0 1042 l 0 1181 m 0 347 l 278 347 l 278 208 l 0 208 l 0 347 m 0 139 l 278 139 l 278 0 l 0 0 l 0 139 m 0 972 l 278 972 l 278 833 l 0 833 l 0 972 m 0 764 l 278 764 l 278 625 l 0 625 l 0 764 m 278 1667 l 486 1667 l 486 1528 l 278 1528 l 278 1667 m 625 1667 l 833 1667 l 833 1528 l 625 1528 l 625 1667 z "},"©":{"ha":1319,"x_min":0,"x_max":1111,"o":"m 139 1389 l 972 1389 l 972 1250 l 139 1250 l 139 1389 m 139 139 l 972 139 l 972 0 l 139 0 l 139 139 m 0 972 l 278 972 l 278 833 l 0 833 l 0 972 m 833 764 l 1111 764 l 1111 625 l 833 625 l 833 764 m 0 556 l 278 556 l 278 417 l 0 417 l 0 556 m 833 556 l 1111 556 l 1111 417 l 833 417 l 833 556 m 833 972 l 1111 972 l 1111 833 l 833 833 l 833 972 m 0 347 l 278 347 l 278 208 l 0 208 l 0 347 m 833 347 l 1111 347 l 1111 208 l 833 208 l 833 347 m 0 1181 l 278 1181 l 278 1042 l 0 1042 l 0 1181 m 833 1181 l 1111 1181 l 1111 1042 l 833 1042 l 833 1181 m 0 764 l 278 764 l 278 625 l 0 625 l 0 764 m 417 972 l 764 972 l 764 903 l 417 903 l 417 972 m 417 556 l 764 556 l 764 486 l 417 486 l 417 556 m 347 694 l 486 694 l 486 625 l 347 625 l 347 694 m 347 833 l 486 833 l 486 764 l 347 764 l 347 833 z "},"Є":{"ha":1319,"x_min":0,"x_max":1111,"o":"m 139 1389 l 972 1389 l 972 1250 l 139 1250 l 139 1389 m 139 139 l 972 139 l 972 0 l 139 0 l 139 139 m 0 556 l 278 556 l 278 417 l 0 417 l 0 556 m 0 347 l 278 347 l 278 208 l 0 208 l 0 347 m 833 347 l 1111 347 l 1111 208 l 833 208 l 833 347 m 0 972 l 278 972 l 278 833 l 0 833 l 0 972 m 0 1181 l 278 1181 l 278 1042 l 0 1042 l 0 1181 m 0 764 l 278 764 l 278 625 l 0 625 l 0 764 m 347 764 l 625 764 l 625 625 l 347 625 l 347 764 m 833 1181 l 1111 1181 l 1111 1042 l 833 1042 l 833 1181 z "},"«":{"ha":1250,"x_min":0,"x_max":1042,"o":"m 278 1181 l 556 1181 l 556 1042 l 278 1042 l 278 1181 m 764 1181 l 1042 1181 l 1042 1042 l 764 1042 l 764 1181 m 139 972 l 417 972 l 417 833 l 139 833 l 139 972 m 0 764 l 278 764 l 278 625 l 0 625 l 0 764 m 764 347 l 1042 347 l 1042 208 l 764 208 l 764 347 m 486 764 l 764 764 l 764 625 l 486 625 l 486 764 m 625 972 l 903 972 l 903 833 l 625 833 l 625 972 m 139 556 l 417 556 l 417 417 l 139 417 l 139 556 m 625 556 l 903 556 l 903 417 l 625 417 l 625 556 m 278 347 l 556 347 l 556 208 l 278 208 l 278 347 z "},"¬":{"ha":1319,"x_min":0,"x_max":1111,"o":"m 0 1389 l 1111 1389 l 1111 1250 l 0 1250 l 0 1389 m 833 1181 l 1111 1181 l 1111 1042 l 833 1042 l 833 1181 z "},"­":{"ha":903,"x_min":0,"x_max":694,"o":"m 0 764 l 694 764 l 694 625 l 0 625 l 0 764 z "},"®":{"ha":1319,"x_min":0,"x_max":1111,"o":"m 139 1389 l 972 1389 l 972 1250 l 139 1250 l 139 1389 m 139 139 l 972 139 l 972 0 l 139 0 l 139 139 m 833 1181 l 1111 1181 l 1111 1042 l 833 1042 l 833 1181 m 0 764 l 278 764 l 278 625 l 0 625 l 0 764 m 833 764 l 1111 764 l 1111 625 l 833 625 l 833 764 m 0 972 l 278 972 l 278 833 l 0 833 l 0 972 m 0 556 l 278 556 l 278 417 l 0 417 l 0 556 m 833 972 l 1111 972 l 1111 833 l 833 833 l 833 972 m 833 556 l 1111 556 l 1111 417 l 833 417 l 833 556 m 0 347 l 278 347 l 278 208 l 0 208 l 0 347 m 833 347 l 1111 347 l 1111 208 l 833 208 l 833 347 m 0 1181 l 278 1181 l 278 1042 l 0 1042 l 0 1181 m 347 694 l 694 694 l 694 625 l 347 625 l 347 694 m 347 972 l 694 972 l 694 903 l 347 903 l 347 972 m 347 556 l 486 556 l 486 486 l 347 486 l 347 556 m 625 556 l 764 556 l 764 486 l 625 486 l 625 556 m 347 833 l 486 833 l 486 764 l 347 764 l 347 833 m 625 833 l 764 833 l 764 764 l 625 764 l 625 833 z "},"Ї":{"ha":1319,"x_min":0,"x_max":1111,"o":"m 0 1389 l 347 1389 l 347 1250 l 0 1250 l 0 1389 m 0 139 l 347 139 l 347 0 l 0 0 l 0 139 m 764 139 l 1111 139 l 1111 0 l 764 0 l 764 139 m 764 1389 l 1111 1389 l 1111 1250 l 764 1250 l 764 1389 m 417 556 l 694 556 l 694 417 l 417 417 l 417 556 m 417 347 l 694 347 l 694 208 l 417 208 l 417 347 m 417 1181 l 694 1181 l 694 1042 l 417 1042 l 417 1181 m 417 139 l 694 139 l 694 0 l 417 0 l 417 139 m 417 1389 l 694 1389 l 694 1250 l 417 1250 l 417 1389 m 417 972 l 694 972 l 694 833 l 417 833 l 417 972 m 417 764 l 694 764 l 694 625 l 417 625 l 417 764 m 278 1667 l 486 1667 l 486 1528 l 278 1528 l 278 1667 m 625 1667 l 833 1667 l 833 1528 l 625 1528 l 625 1667 z "},"°":{"ha":1042,"x_min":0,"x_max":833,"o":"m 139 1389 l 694 1389 l 694 1250 l 139 1250 l 139 1389 m 139 764 l 694 764 l 694 625 l 139 625 l 139 764 m 0 1181 l 278 1181 l 278 1042 l 0 1042 l 0 1181 m 0 972 l 278 972 l 278 833 l 0 833 l 0 972 m 556 972 l 833 972 l 833 833 l 556 833 l 556 972 m 556 1181 l 833 1181 l 833 1042 l 556 1042 l 556 1181 z "},"±":{"ha":1181,"x_min":0,"x_max":972,"o":"m 0 972 l 972 972 l 972 833 l 0 833 l 0 972 m 0 208 l 972 208 l 972 69 l 0 69 l 0 208 m 347 1389 l 625 1389 l 625 1250 l 347 1250 l 347 1389 m 347 1181 l 625 1181 l 625 1042 l 347 1042 l 347 1181 m 347 764 l 625 764 l 625 625 l 347 625 l 347 764 m 347 556 l 625 556 l 625 417 l 347 417 l 347 556 z "},"І":{"ha":1319,"x_min":0,"x_max":1111,"o":"m 0 1389 l 347 1389 l 347 1250 l 0 1250 l 0 1389 m 0 139 l 347 139 l 347 0 l 0 0 l 0 139 m 764 139 l 1111 139 l 1111 0 l 764 0 l 764 139 m 764 1389 l 1111 1389 l 1111 1250 l 764 1250 l 764 1389 m 417 1389 l 694 1389 l 694 1250 l 417 1250 l 417 1389 m 417 972 l 694 972 l 694 833 l 417 833 l 417 972 m 417 139 l 694 139 l 694 0 l 417 0 l 417 139 m 417 764 l 694 764 l 694 625 l 417 625 l 417 764 m 417 556 l 694 556 l 694 417 l 417 417 l 417 556 m 417 1181 l 694 1181 l 694 1042 l 417 1042 l 417 1181 m 417 347 l 694 347 l 694 208 l 417 208 l 417 347 z "},"і":{"ha":1181,"x_min":0,"x_max":972,"o":"m 347 1389 l 625 1389 l 625 1250 l 347 1250 l 347 1389 m 0 972 l 278 972 l 278 833 l 0 833 l 0 972 m 347 347 l 625 347 l 625 208 l 347 208 l 347 347 m 347 764 l 625 764 l 625 625 l 347 625 l 347 764 m 0 139 l 278 139 l 278 0 l 0 0 l 0 139 m 347 972 l 625 972 l 625 833 l 347 833 l 347 972 m 347 139 l 625 139 l 625 0 l 347 0 l 347 139 m 347 556 l 625 556 l 625 417 l 347 417 l 347 556 m 694 139 l 972 139 l 972 0 l 694 0 l 694 139 z "},"ґ":{"ha":1181,"x_min":0,"x_max":972,"o":"m 347 972 l 972 972 l 972 833 l 347 833 l 347 972 m 0 972 l 278 972 l 278 833 l 0 833 l 0 972 m 0 764 l 278 764 l 278 625 l 0 625 l 0 764 m 0 556 l 278 556 l 278 417 l 0 417 l 0 556 m 694 1181 l 972 1181 l 972 1042 l 694 1042 l 694 1181 m 0 347 l 278 347 l 278 208 l 0 208 l 0 347 m 0 139 l 278 139 l 278 0 l 0 0 l 0 139 z "},"µ":{"ha":1319,"x_min":0,"x_max":1111,"o":"m 0 972 l 278 972 l 278 833 l 0 833 l 0 972 m 833 972 l 1111 972 l 1111 833 l 833 833 l 833 972 m 0 764 l 278 764 l 278 625 l 0 625 l 0 764 m 0 556 l 278 556 l 278 417 l 0 417 l 0 556 m 0 139 l 278 139 l 278 0 l 0 0 l 0 139 m 833 556 l 1111 556 l 1111 417 l 833 417 l 833 556 m 833 139 l 1111 139 l 1111 0 l 833 0 l 833 139 m 0 -69 l 278 -69 l 278 -208 l 0 -208 l 0 -69 m 833 764 l 1111 764 l 1111 625 l 833 625 l 833 764 m 0 347 l 278 347 l 278 208 l 0 208 l 0 347 m 833 347 l 1111 347 l 1111 208 l 833 208 l 833 347 m 486 139 l 625 139 l 625 0 l 486 0 l 486 139 m 625 347 l 764 347 l 764 208 l 625 208 l 625 347 m 347 347 l 486 347 l 486 208 l 347 208 l 347 347 z "},"¶":{"ha":1389,"x_min":0,"x_max":1181,"o":"m 69 1389 l 1181 1389 l 1181 1250 l 69 1250 l 69 1389 m 278 1181 l 556 1181 l 556 1042 l 278 1042 l 278 1181 m 764 1181 l 1042 1181 l 1042 1042 l 764 1042 l 764 1181 m 278 764 l 556 764 l 556 625 l 278 625 l 278 764 m 764 764 l 1042 764 l 1042 625 l 764 625 l 764 764 m 278 556 l 556 556 l 556 417 l 278 417 l 278 556 m 764 556 l 1042 556 l 1042 417 l 764 417 l 764 556 m 278 972 l 556 972 l 556 833 l 278 833 l 278 972 m 278 347 l 556 347 l 556 208 l 278 208 l 278 347 m 764 347 l 1042 347 l 1042 208 l 764 208 l 764 347 m 764 972 l 1042 972 l 1042 833 l 764 833 l 764 972 m 278 139 l 556 139 l 556 0 l 278 0 l 278 139 m 764 139 l 1042 139 l 1042 0 l 764 0 l 764 139 m 0 1181 l 208 1181 l 208 1042 l 0 1042 l 0 1181 z "},"·":{"ha":486,"x_min":0,"x_max":278,"o":"m 0 764 l 278 764 l 278 625 l 0 625 l 0 764 z "},"ё":{"ha":1181,"x_min":0,"x_max":972,"o":"m 139 972 l 833 972 l 833 833 l 139 833 l 139 972 m 139 139 l 833 139 l 833 0 l 139 0 l 139 139 m 347 556 l 972 556 l 972 417 l 347 417 l 347 556 m 0 764 l 278 764 l 278 625 l 0 625 l 0 764 m 0 347 l 278 347 l 278 208 l 0 208 l 0 347 m 694 764 l 972 764 l 972 625 l 694 625 l 694 764 m 0 556 l 278 556 l 278 417 l 0 417 l 0 556 m 208 1250 l 417 1250 l 417 1111 l 208 1111 l 208 1250 m 556 1250 l 764 1250 l 764 1111 l 556 1111 l 556 1250 z "},"№":{"ha":1319,"x_min":0,"x_max":1111,"o":"m 694 1389 l 1111 1389 l 1111 1250 l 694 1250 l 694 1389 m 0 1389 l 278 1389 l 278 1250 l 0 1250 l 0 1389 m 0 972 l 278 972 l 278 833 l 0 833 l 0 972 m 694 764 l 972 764 l 972 625 l 694 625 l 694 764 m 0 556 l 278 556 l 278 417 l 0 417 l 0 556 m 0 1181 l 278 1181 l 278 1042 l 0 1042 l 0 1181 m 694 556 l 972 556 l 972 417 l 694 417 l 694 556 m 694 972 l 972 972 l 972 833 l 694 833 l 694 972 m 0 347 l 278 347 l 278 208 l 0 208 l 0 347 m 694 1181 l 972 1181 l 972 1042 l 694 1042 l 694 1181 m 694 347 l 972 347 l 972 208 l 694 208 l 694 347 m 0 139 l 278 139 l 278 0 l 0 0 l 0 139 m 0 764 l 278 764 l 278 625 l 0 625 l 0 764 m 694 139 l 972 139 l 972 0 l 694 0 l 694 139 m 347 972 l 486 972 l 486 833 l 347 833 l 347 972 m 486 764 l 625 764 l 625 625 l 486 625 l 486 764 z "},"є":{"ha":1181,"x_min":0,"x_max":972,"o":"m 139 972 l 972 972 l 972 833 l 139 833 l 139 972 m 139 139 l 972 139 l 972 0 l 139 0 l 139 139 m 347 556 l 694 556 l 694 417 l 347 417 l 347 556 m 0 764 l 278 764 l 278 625 l 0 625 l 0 764 m 0 347 l 278 347 l 278 208 l 0 208 l 0 347 m 0 556 l 278 556 l 278 417 l 0 417 l 0 556 z "},"»":{"ha":1250,"x_min":0,"x_max":1042,"o":"m 0 1181 l 278 1181 l 278 1042 l 0 1042 l 0 1181 m 486 1181 l 764 1181 l 764 1042 l 486 1042 l 486 1181 m 139 972 l 417 972 l 417 833 l 139 833 l 139 972 m 278 764 l 556 764 l 556 625 l 278 625 l 278 764 m 0 347 l 278 347 l 278 208 l 0 208 l 0 347 m 486 347 l 764 347 l 764 208 l 486 208 l 486 347 m 764 764 l 1042 764 l 1042 625 l 764 625 l 764 764 m 625 972 l 903 972 l 903 833 l 625 833 l 625 972 m 139 556 l 417 556 l 417 417 l 139 417 l 139 556 m 625 556 l 903 556 l 903 417 l 625 417 l 625 556 z "},"ј":{"ha":1181,"x_min":0,"x_max":972,"o":"m 139 -278 l 833 -278 l 833 -417 l 139 -417 l 139 -278 m 0 972 l 625 972 l 625 833 l 0 833 l 0 972 m 0 764 l 278 764 l 278 625 l 0 625 l 0 764 m 694 139 l 972 139 l 972 0 l 694 0 l 694 139 m 0 -69 l 278 -69 l 278 -208 l 0 -208 l 0 -69 m 347 1389 l 625 1389 l 625 1250 l 347 1250 l 347 1389 m 694 764 l 972 764 l 972 625 l 694 625 l 694 764 m 694 -69 l 972 -69 l 972 -208 l 694 -208 l 694 -69 m 694 972 l 972 972 l 972 833 l 694 833 l 694 972 m 694 556 l 972 556 l 972 417 l 694 417 l 694 556 m 694 347 l 972 347 l 972 208 l 694 208 l 694 347 z "},"Ѕ":{"ha":1319,"x_min":0,"x_max":1111,"o":"m 139 1389 l 1111 1389 l 1111 1250 l 139 1250 l 139 1389 m 0 139 l 972 139 l 972 0 l 0 0 l 0 139 m 139 764 l 972 764 l 972 625 l 139 625 l 139 764 m 833 347 l 1111 347 l 1111 208 l 833 208 l 833 347 m 833 556 l 1111 556 l 1111 417 l 833 417 l 833 556 m 0 972 l 278 972 l 278 833 l 0 833 l 0 972 m 0 1181 l 278 1181 l 278 1042 l 0 1042 l 0 1181 z "},"ѕ":{"ha":1181,"x_min":0,"x_max":972,"o":"m 139 972 l 972 972 l 972 833 l 139 833 l 139 972 m 0 139 l 833 139 l 833 0 l 0 0 l 0 139 m 139 556 l 833 556 l 833 417 l 139 417 l 139 556 m 694 347 l 972 347 l 972 208 l 694 208 l 694 347 m 0 764 l 278 764 l 278 625 l 0 625 l 0 764 z "},"ї":{"ha":1181,"x_min":0,"x_max":972,"o":"m 0 972 l 278 972 l 278 833 l 0 833 l 0 972 m 347 972 l 625 972 l 625 833 l 347 833 l 347 972 m 347 556 l 625 556 l 625 417 l 347 417 l 347 556 m 347 347 l 625 347 l 625 208 l 347 208 l 347 347 m 347 764 l 625 764 l 625 625 l 347 625 l 347 764 m 0 139 l 278 139 l 278 0 l 0 0 l 0 139 m 347 139 l 625 139 l 625 0 l 347 0 l 347 139 m 694 139 l 972 139 l 972 0 l 694 0 l 694 139 m 208 1250 l 417 1250 l 417 1111 l 208 1111 l 208 1250 m 556 1250 l 764 1250 l 764 1111 l 556 1111 l 556 1250 z "},"А":{"ha":1319,"x_min":0,"x_max":1111,"o":"m 139 1389 l 972 1389 l 972 1250 l 139 1250 l 139 1389 m 347 764 l 764 764 l 764 625 l 347 625 l 347 764 m 0 972 l 278 972 l 278 833 l 0 833 l 0 972 m 833 764 l 1111 764 l 1111 625 l 833 625 l 833 764 m 833 972 l 1111 972 l 1111 833 l 833 833 l 833 972 m 0 556 l 278 556 l 278 417 l 0 417 l 0 556 m 833 556 l 1111 556 l 1111 417 l 833 417 l 833 556 m 0 347 l 278 347 l 278 208 l 0 208 l 0 347 m 833 347 l 1111 347 l 1111 208 l 833 208 l 833 347 m 0 1181 l 278 1181 l 278 1042 l 0 1042 l 0 1181 m 0 764 l 278 764 l 278 625 l 0 625 l 0 764 m 0 139 l 278 139 l 278 0 l 0 0 l 0 139 m 833 139 l 1111 139 l 1111 0 l 833 0 l 833 139 m 833 1181 l 1111 1181 l 1111 1042 l 833 1042 l 833 1181 z "},"Б":{"ha":1319,"x_min":0,"x_max":1111,"o":"m 0 1389 l 1111 1389 l 1111 1250 l 0 1250 l 0 1389 m 0 139 l 972 139 l 972 0 l 0 0 l 0 139 m 347 972 l 972 972 l 972 833 l 347 833 l 347 972 m 0 764 l 278 764 l 278 625 l 0 625 l 0 764 m 833 764 l 1111 764 l 1111 625 l 833 625 l 833 764 m 0 1181 l 278 1181 l 278 1042 l 0 1042 l 0 1181 m 0 556 l 278 556 l 278 417 l 0 417 l 0 556 m 0 972 l 278 972 l 278 833 l 0 833 l 0 972 m 833 556 l 1111 556 l 1111 417 l 833 417 l 833 556 m 833 347 l 1111 347 l 1111 208 l 833 208 l 833 347 m 0 347 l 278 347 l 278 208 l 0 208 l 0 347 z "},"В":{"ha":1319,"x_min":0,"x_max":1111,"o":"m 0 1389 l 972 1389 l 972 1250 l 0 1250 l 0 1389 m 0 764 l 972 764 l 972 625 l 0 625 l 0 764 m 0 139 l 972 139 l 972 0 l 0 0 l 0 139 m 833 1181 l 1111 1181 l 1111 1042 l 833 1042 l 833 1181 m 0 972 l 278 972 l 278 833 l 0 833 l 0 972 m 0 556 l 278 556 l 278 417 l 0 417 l 0 556 m 833 556 l 1111 556 l 1111 417 l 833 417 l 833 556 m 833 972 l 1111 972 l 1111 833 l 833 833 l 833 972 m 0 347 l 278 347 l 278 208 l 0 208 l 0 347 m 833 347 l 1111 347 l 1111 208 l 833 208 l 833 347 m 0 1181 l 278 1181 l 278 1042 l 0 1042 l 0 1181 z "},"Г":{"ha":1319,"x_min":0,"x_max":1111,"o":"m 0 1389 l 1111 1389 l 1111 1250 l 0 1250 l 0 1389 m 0 1181 l 278 1181 l 278 1042 l 0 1042 l 0 1181 m 0 347 l 278 347 l 278 208 l 0 208 l 0 347 m 0 139 l 278 139 l 278 0 l 0 0 l 0 139 m 0 972 l 278 972 l 278 833 l 0 833 l 0 972 m 0 764 l 278 764 l 278 625 l 0 625 l 0 764 m 0 556 l 278 556 l 278 417 l 0 417 l 0 556 z "},"Д":{"ha":1319,"x_min":0,"x_max":1111,"o":"m 0 139 l 1111 139 l 1111 0 l 0 0 l 0 139 m 278 1389 l 972 1389 l 972 1250 l 278 1250 l 278 1389 m 139 1181 l 417 1181 l 417 1042 l 139 1042 l 139 1181 m 139 972 l 417 972 l 417 833 l 139 833 l 139 972 m 139 556 l 417 556 l 417 417 l 139 417 l 139 556 m 833 -69 l 1111 -69 l 1111 -208 l 833 -208 l 833 -69 m 694 556 l 972 556 l 972 417 l 694 417 l 694 556 m 694 972 l 972 972 l 972 833 l 694 833 l 694 972 m 139 347 l 417 347 l 417 208 l 139 208 l 139 347 m 694 347 l 972 347 l 972 208 l 694 208 l 694 347 m 694 1181 l 972 1181 l 972 1042 l 694 1042 l 694 1181 m 139 764 l 417 764 l 417 625 l 139 625 l 139 764 m 694 764 l 972 764 l 972 625 l 694 625 l 694 764 m 0 -69 l 278 -69 l 278 -208 l 0 -208 l 0 -69 z "},"Е":{"ha":1319,"x_min":0,"x_max":1111,"o":"m 347 1389 l 1111 1389 l 1111 1250 l 347 1250 l 347 1389 m 347 139 l 1111 139 l 1111 0 l 347 0 l 347 139 m 347 764 l 764 764 l 764 625 l 347 625 l 347 764 m 0 1181 l 278 1181 l 278 1042 l 0 1042 l 0 1181 m 0 556 l 278 556 l 278 417 l 0 417 l 0 556 m 0 347 l 278 347 l 278 208 l 0 208 l 0 347 m 0 1389 l 278 1389 l 278 1250 l 0 1250 l 0 1389 m 0 139 l 278 139 l 278 0 l 0 0 l 0 139 m 0 972 l 278 972 l 278 833 l 0 833 l 0 972 m 0 764 l 278 764 l 278 625 l 0 625 l 0 764 z "},"Ж":{"ha":1319,"x_min":0,"x_max":1111,"o":"m 139 764 l 972 764 l 972 625 l 139 625 l 139 764 m 0 1389 l 278 1389 l 278 1250 l 0 1250 l 0 1389 m 417 1389 l 694 1389 l 694 1250 l 417 1250 l 417 1389 m 417 1181 l 694 1181 l 694 1042 l 417 1042 l 417 1181 m 0 139 l 278 139 l 278 0 l 0 0 l 0 139 m 417 139 l 694 139 l 694 0 l 417 0 l 417 139 m 833 1181 l 1111 1181 l 1111 1042 l 833 1042 l 833 1181 m 833 139 l 1111 139 l 1111 0 l 833 0 l 833 139 m 833 1389 l 1111 1389 l 1111 1250 l 833 1250 l 833 1389 m 0 1181 l 278 1181 l 278 1042 l 0 1042 l 0 1181 m 417 556 l 694 556 l 694 417 l 417 417 l 417 556 m 417 972 l 694 972 l 694 833 l 417 833 l 417 972 m 0 347 l 278 347 l 278 208 l 0 208 l 0 347 m 417 347 l 694 347 l 694 208 l 417 208 l 417 347 m 833 347 l 1111 347 l 1111 208 l 833 208 l 833 347 m 69 556 l 278 556 l 278 417 l 69 417 l 69 556 m 69 972 l 278 972 l 278 833 l 69 833 l 69 972 m 833 556 l 1042 556 l 1042 417 l 833 417 l 833 556 m 833 972 l 1042 972 l 1042 833 l 833 833 l 833 972 z "},"З":{"ha":1319,"x_min":0,"x_max":1111,"o":"m 139 1389 l 972 1389 l 972 1250 l 139 1250 l 139 1389 m 139 139 l 972 139 l 972 0 l 139 0 l 139 139 m 347 764 l 972 764 l 972 625 l 347 625 l 347 764 m 833 556 l 1111 556 l 1111 417 l 833 417 l 833 556 m 0 347 l 278 347 l 278 208 l 0 208 l 0 347 m 833 347 l 1111 347 l 1111 208 l 833 208 l 833 347 m 833 972 l 1111 972 l 1111 833 l 833 833 l 833 972 m 0 1181 l 278 1181 l 278 1042 l 0 1042 l 0 1181 m 833 1181 l 1111 1181 l 1111 1042 l 833 1042 l 833 1181 z "},"И":{"ha":1319,"x_min":0,"x_max":1111,"o":"m 0 1389 l 278 1389 l 278 1250 l 0 1250 l 0 1389 m 833 1389 l 1111 1389 l 1111 1250 l 833 1250 l 833 1389 m 0 1181 l 278 1181 l 278 1042 l 0 1042 l 0 1181 m 0 972 l 278 972 l 278 833 l 0 833 l 0 972 m 0 556 l 278 556 l 278 417 l 0 417 l 0 556 m 833 972 l 1111 972 l 1111 833 l 833 833 l 833 972 m 833 556 l 1111 556 l 1111 417 l 833 417 l 833 556 m 0 347 l 278 347 l 278 208 l 0 208 l 0 347 m 833 1181 l 1111 1181 l 1111 1042 l 833 1042 l 833 1181 m 0 764 l 278 764 l 278 625 l 0 625 l 0 764 m 833 347 l 1111 347 l 1111 208 l 833 208 l 833 347 m 0 139 l 278 139 l 278 0 l 0 0 l 0 139 m 833 764 l 1111 764 l 1111 625 l 833 625 l 833 764 m 833 139 l 1111 139 l 1111 0 l 833 0 l 833 139 m 625 972 l 764 972 l 764 833 l 625 833 l 625 972 m 347 556 l 486 556 l 486 417 l 347 417 l 347 556 m 486 764 l 625 764 l 625 625 l 486 625 l 486 764 z "},"Й":{"ha":1319,"x_min":0,"x_max":1111,"o":"m 417 1667 l 694 1667 l 694 1528 l 417 1528 l 417 1667 m 0 1389 l 278 1389 l 278 1250 l 0 1250 l 0 1389 m 0 1181 l 278 1181 l 278 1042 l 0 1042 l 0 1181 m 833 139 l 1111 139 l 1111 0 l 833 0 l 833 139 m 0 764 l 278 764 l 278 625 l 0 625 l 0 764 m 833 1181 l 1111 1181 l 1111 1042 l 833 1042 l 833 1181 m 833 764 l 1111 764 l 1111 625 l 833 625 l 833 764 m 0 556 l 278 556 l 278 417 l 0 417 l 0 556 m 833 1389 l 1111 1389 l 1111 1250 l 833 1250 l 833 1389 m 0 972 l 278 972 l 278 833 l 0 833 l 0 972 m 833 556 l 1111 556 l 1111 417 l 833 417 l 833 556 m 833 972 l 1111 972 l 1111 833 l 833 833 l 833 972 m 0 347 l 278 347 l 278 208 l 0 208 l 0 347 m 833 347 l 1111 347 l 1111 208 l 833 208 l 833 347 m 0 139 l 278 139 l 278 0 l 0 0 l 0 139 m 625 1875 l 833 1875 l 833 1736 l 625 1736 l 625 1875 m 278 1875 l 486 1875 l 486 1736 l 278 1736 l 278 1875 m 486 764 l 625 764 l 625 625 l 486 625 l 486 764 m 347 556 l 486 556 l 486 417 l 347 417 l 347 556 m 625 972 l 764 972 l 764 833 l 625 833 l 625 972 z "},"К":{"ha":1319,"x_min":0,"x_max":1111,"o":"m 347 764 l 694 764 l 694 625 l 347 625 l 347 764 m 833 1389 l 1111 1389 l 1111 1250 l 833 1250 l 833 1389 m 0 1181 l 278 1181 l 278 1042 l 0 1042 l 0 1181 m 0 972 l 278 972 l 278 833 l 0 833 l 0 972 m 556 556 l 833 556 l 833 417 l 556 417 l 556 556 m 556 972 l 833 972 l 833 833 l 556 833 l 556 972 m 0 347 l 278 347 l 278 208 l 0 208 l 0 347 m 694 1181 l 972 1181 l 972 1042 l 694 1042 l 694 1181 m 694 347 l 972 347 l 972 208 l 694 208 l 694 347 m 0 764 l 278 764 l 278 625 l 0 625 l 0 764 m 0 139 l 278 139 l 278 0 l 0 0 l 0 139 m 0 1389 l 278 1389 l 278 1250 l 0 1250 l 0 1389 m 833 139 l 1111 139 l 1111 0 l 833 0 l 833 139 m 0 556 l 278 556 l 278 417 l 0 417 l 0 556 z "},"Л":{"ha":1319,"x_min":0,"x_max":1111,"o":"m 278 1389 l 1111 1389 l 1111 1250 l 278 1250 l 278 1389 m 0 972 l 278 972 l 278 833 l 0 833 l 0 972 m 0 556 l 278 556 l 278 417 l 0 417 l 0 556 m 833 556 l 1111 556 l 1111 417 l 833 417 l 833 556 m 833 972 l 1111 972 l 1111 833 l 833 833 l 833 972 m 0 347 l 278 347 l 278 208 l 0 208 l 0 347 m 833 347 l 1111 347 l 1111 208 l 833 208 l 833 347 m 139 1181 l 417 1181 l 417 1042 l 139 1042 l 139 1181 m 0 139 l 278 139 l 278 0 l 0 0 l 0 139 m 833 139 l 1111 139 l 1111 0 l 833 0 l 833 139 m 833 1181 l 1111 1181 l 1111 1042 l 833 1042 l 833 1181 m 0 764 l 278 764 l 278 625 l 0 625 l 0 764 m 833 764 l 1111 764 l 1111 625 l 833 625 l 833 764 z "},"М":{"ha":1319,"x_min":0,"x_max":1111,"o":"m 0 1389 l 278 1389 l 278 1250 l 0 1250 l 0 1389 m 833 1389 l 1111 1389 l 1111 1250 l 833 1250 l 833 1389 m 0 1181 l 278 1181 l 278 1042 l 0 1042 l 0 1181 m 0 972 l 278 972 l 278 833 l 0 833 l 0 972 m 833 764 l 1111 764 l 1111 625 l 833 625 l 833 764 m 0 556 l 278 556 l 278 417 l 0 417 l 0 556 m 833 972 l 1111 972 l 1111 833 l 833 833 l 833 972 m 833 556 l 1111 556 l 1111 417 l 833 417 l 833 556 m 0 347 l 278 347 l 278 208 l 0 208 l 0 347 m 833 1181 l 1111 1181 l 1111 1042 l 833 1042 l 833 1181 m 833 347 l 1111 347 l 1111 208 l 833 208 l 833 347 m 0 139 l 278 139 l 278 0 l 0 0 l 0 139 m 0 764 l 278 764 l 278 625 l 0 625 l 0 764 m 833 139 l 1111 139 l 1111 0 l 833 0 l 833 139 m 625 972 l 764 972 l 764 833 l 625 833 l 625 972 m 347 972 l 486 972 l 486 833 l 347 833 l 347 972 m 486 764 l 625 764 l 625 625 l 486 625 l 486 764 z "},"Н":{"ha":1319,"x_min":0,"x_max":1111,"o":"m 347 764 l 764 764 l 764 625 l 347 625 l 347 764 m 833 1389 l 1111 1389 l 1111 1250 l 833 1250 l 833 1389 m 0 1181 l 278 1181 l 278 1042 l 0 1042 l 0 1181 m 0 972 l 278 972 l 278 833 l 0 833 l 0 972 m 833 972 l 1111 972 l 1111 833 l 833 833 l 833 972 m 0 556 l 278 556 l 278 417 l 0 417 l 0 556 m 833 1181 l 1111 1181 l 1111 1042 l 833 1042 l 833 1181 m 833 556 l 1111 556 l 1111 417 l 833 417 l 833 556 m 0 347 l 278 347 l 278 208 l 0 208 l 0 347 m 0 1389 l 278 1389 l 278 1250 l 0 1250 l 0 1389 m 0 764 l 278 764 l 278 625 l 0 625 l 0 764 m 833 347 l 1111 347 l 1111 208 l 833 208 l 833 347 m 0 139 l 278 139 l 278 0 l 0 0 l 0 139 m 833 764 l 1111 764 l 1111 625 l 833 625 l 833 764 m 833 139 l 1111 139 l 1111 0 l 833 0 l 833 139 z "},"О":{"ha":1319,"x_min":0,"x_max":1111,"o":"m 139 1389 l 972 1389 l 972 1250 l 139 1250 l 139 1389 m 139 139 l 972 139 l 972 0 l 139 0 l 139 139 m 0 972 l 278 972 l 278 833 l 0 833 l 0 972 m 0 556 l 278 556 l 278 417 l 0 417 l 0 556 m 833 556 l 1111 556 l 1111 417 l 833 417 l 833 556 m 833 972 l 1111 972 l 1111 833 l 833 833 l 833 972 m 0 347 l 278 347 l 278 208 l 0 208 l 0 347 m 833 347 l 1111 347 l 1111 208 l 833 208 l 833 347 m 0 1181 l 278 1181 l 278 1042 l 0 1042 l 0 1181 m 833 1181 l 1111 1181 l 1111 1042 l 833 1042 l 833 1181 m 0 764 l 278 764 l 278 625 l 0 625 l 0 764 m 833 764 l 1111 764 l 1111 625 l 833 625 l 833 764 z "},"П":{"ha":1319,"x_min":0,"x_max":1111,"o":"m 0 1389 l 1111 1389 l 1111 1250 l 0 1250 l 0 1389 m 0 1181 l 278 1181 l 278 1042 l 0 1042 l 0 1181 m 833 1181 l 1111 1181 l 1111 1042 l 833 1042 l 833 1181 m 0 764 l 278 764 l 278 625 l 0 625 l 0 764 m 833 764 l 1111 764 l 1111 625 l 833 625 l 833 764 m 0 556 l 278 556 l 278 417 l 0 417 l 0 556 m 833 556 l 1111 556 l 1111 417 l 833 417 l 833 556 m 0 972 l 278 972 l 278 833 l 0 833 l 0 972 m 833 972 l 1111 972 l 1111 833 l 833 833 l 833 972 m 0 347 l 278 347 l 278 208 l 0 208 l 0 347 m 833 347 l 1111 347 l 1111 208 l 833 208 l 833 347 m 0 139 l 278 139 l 278 0 l 0 0 l 0 139 m 833 139 l 1111 139 l 1111 0 l 833 0 l 833 139 z "},"Р":{"ha":1319,"x_min":0,"x_max":1111,"o":"m 347 1389 l 972 1389 l 972 1250 l 347 1250 l 347 1389 m 347 556 l 972 556 l 972 417 l 347 417 l 347 556 m 833 1181 l 1111 1181 l 1111 1042 l 833 1042 l 833 1181 m 833 764 l 1111 764 l 1111 625 l 833 625 l 833 764 m 0 556 l 278 556 l 278 417 l 0 417 l 0 556 m 0 1389 l 278 1389 l 278 1250 l 0 1250 l 0 1389 m 0 972 l 278 972 l 278 833 l 0 833 l 0 972 m 0 1181 l 278 1181 l 278 1042 l 0 1042 l 0 1181 m 833 972 l 1111 972 l 1111 833 l 833 833 l 833 972 m 0 347 l 278 347 l 278 208 l 0 208 l 0 347 m 0 139 l 278 139 l 278 0 l 0 0 l 0 139 m 0 764 l 278 764 l 278 625 l 0 625 l 0 764 z "},"С":{"ha":1319,"x_min":0,"x_max":1111,"o":"m 139 1389 l 972 1389 l 972 1250 l 139 1250 l 139 1389 m 139 139 l 972 139 l 972 0 l 139 0 l 139 139 m 0 347 l 278 347 l 278 208 l 0 208 l 0 347 m 833 347 l 1111 347 l 1111 208 l 833 208 l 833 347 m 833 1181 l 1111 1181 l 1111 1042 l 833 1042 l 833 1181 m 0 972 l 278 972 l 278 833 l 0 833 l 0 972 m 0 1181 l 278 1181 l 278 1042 l 0 1042 l 0 1181 m 0 764 l 278 764 l 278 625 l 0 625 l 0 764 m 0 556 l 278 556 l 278 417 l 0 417 l 0 556 z "},"Т":{"ha":1319,"x_min":0,"x_max":1111,"o":"m 0 1389 l 347 1389 l 347 1250 l 0 1250 l 0 1389 m 764 1389 l 1111 1389 l 1111 1250 l 764 1250 l 764 1389 m 417 1389 l 694 1389 l 694 1250 l 417 1250 l 417 1389 m 417 972 l 694 972 l 694 833 l 417 833 l 417 972 m 417 139 l 694 139 l 694 0 l 417 0 l 417 139 m 417 764 l 694 764 l 694 625 l 417 625 l 417 764 m 417 556 l 694 556 l 694 417 l 417 417 l 417 556 m 417 1181 l 694 1181 l 694 1042 l 417 1042 l 417 1181 m 417 347 l 694 347 l 694 208 l 417 208 l 417 347 z "},"У":{"ha":1319,"x_min":0,"x_max":1111,"o":"m 139 139 l 972 139 l 972 0 l 139 0 l 139 139 m 139 764 l 764 764 l 764 625 l 139 625 l 139 764 m 833 1389 l 1111 1389 l 1111 1250 l 833 1250 l 833 1389 m 0 1181 l 278 1181 l 278 1042 l 0 1042 l 0 1181 m 0 972 l 278 972 l 278 833 l 0 833 l 0 972 m 833 972 l 1111 972 l 1111 833 l 833 833 l 833 972 m 833 556 l 1111 556 l 1111 417 l 833 417 l 833 556 m 0 347 l 278 347 l 278 208 l 0 208 l 0 347 m 833 347 l 1111 347 l 1111 208 l 833 208 l 833 347 m 0 1389 l 278 1389 l 278 1250 l 0 1250 l 0 1389 m 833 1181 l 1111 1181 l 1111 1042 l 833 1042 l 833 1181 m 833 764 l 1111 764 l 1111 625 l 833 625 l 833 764 z "},"Ф":{"ha":1319,"x_min":0,"x_max":1111,"o":"m 139 1389 l 972 1389 l 972 1250 l 139 1250 l 139 1389 m 139 347 l 972 347 l 972 208 l 139 208 l 139 347 m 833 1181 l 1111 1181 l 1111 1042 l 833 1042 l 833 1181 m 0 764 l 278 764 l 278 625 l 0 625 l 0 764 m 417 139 l 694 139 l 694 0 l 417 0 l 417 139 m 417 764 l 694 764 l 694 625 l 417 625 l 417 764 m 833 764 l 1111 764 l 1111 625 l 833 625 l 833 764 m 0 556 l 278 556 l 278 417 l 0 417 l 0 556 m 0 972 l 278 972 l 278 833 l 0 833 l 0 972 m 417 556 l 694 556 l 694 417 l 417 417 l 417 556 m 833 556 l 1111 556 l 1111 417 l 833 417 l 833 556 m 417 972 l 694 972 l 694 833 l 417 833 l 417 972 m 0 1181 l 278 1181 l 278 1042 l 0 1042 l 0 1181 m 417 1181 l 694 1181 l 694 1042 l 417 1042 l 417 1181 m 833 972 l 1111 972 l 1111 833 l 833 833 l 833 972 z "},"Х":{"ha":1319,"x_min":0,"x_max":1111,"o":"m 0 1389 l 278 1389 l 278 1250 l 0 1250 l 0 1389 m 833 1389 l 1111 1389 l 1111 1250 l 833 1250 l 833 1389 m 139 1181 l 417 1181 l 417 1042 l 139 1042 l 139 1181 m 694 347 l 972 347 l 972 208 l 694 208 l 694 347 m 0 139 l 278 139 l 278 0 l 0 0 l 0 139 m 694 1181 l 972 1181 l 972 1042 l 694 1042 l 694 1181 m 833 139 l 1111 139 l 1111 0 l 833 0 l 833 139 m 417 764 l 694 764 l 694 625 l 417 625 l 417 764 m 139 347 l 417 347 l 417 208 l 139 208 l 139 347 m 278 972 l 486 972 l 486 833 l 278 833 l 278 972 m 625 972 l 833 972 l 833 833 l 625 833 l 625 972 m 278 556 l 486 556 l 486 417 l 278 417 l 278 556 m 625 556 l 833 556 l 833 417 l 625 417 l 625 556 z "},"Ц":{"ha":1319,"x_min":0,"x_max":1111,"o":"m 0 139 l 1111 139 l 1111 0 l 0 0 l 0 139 m 694 1389 l 972 1389 l 972 1250 l 694 1250 l 694 1389 m 0 1181 l 278 1181 l 278 1042 l 0 1042 l 0 1181 m 0 972 l 278 972 l 278 833 l 0 833 l 0 972 m 0 556 l 278 556 l 278 417 l 0 417 l 0 556 m 833 -69 l 1111 -69 l 1111 -208 l 833 -208 l 833 -69 m 694 556 l 972 556 l 972 417 l 694 417 l 694 556 m 694 972 l 972 972 l 972 833 l 694 833 l 694 972 m 0 347 l 278 347 l 278 208 l 0 208 l 0 347 m 694 347 l 972 347 l 972 208 l 694 208 l 694 347 m 0 1389 l 278 1389 l 278 1250 l 0 1250 l 0 1389 m 694 1181 l 972 1181 l 972 1042 l 694 1042 l 694 1181 m 0 764 l 278 764 l 278 625 l 0 625 l 0 764 m 694 764 l 972 764 l 972 625 l 694 625 l 694 764 z "},"Ч":{"ha":1319,"x_min":0,"x_max":1111,"o":"m 139 764 l 764 764 l 764 625 l 139 625 l 139 764 m 833 1389 l 1111 1389 l 1111 1250 l 833 1250 l 833 1389 m 0 1181 l 278 1181 l 278 1042 l 0 1042 l 0 1181 m 0 972 l 278 972 l 278 833 l 0 833 l 0 972 m 833 972 l 1111 972 l 1111 833 l 833 833 l 833 972 m 833 556 l 1111 556 l 1111 417 l 833 417 l 833 556 m 833 1181 l 1111 1181 l 1111 1042 l 833 1042 l 833 1181 m 833 347 l 1111 347 l 1111 208 l 833 208 l 833 347 m 833 139 l 1111 139 l 1111 0 l 833 0 l 833 139 m 0 1389 l 278 1389 l 278 1250 l 0 1250 l 0 1389 m 833 764 l 1111 764 l 1111 625 l 833 625 l 833 764 z "},"Ш":{"ha":1319,"x_min":0,"x_max":1111,"o":"m 0 139 l 1111 139 l 1111 0 l 0 0 l 0 139 m 0 1389 l 278 1389 l 278 1250 l 0 1250 l 0 1389 m 417 1389 l 694 1389 l 694 1250 l 417 1250 l 417 1389 m 833 1181 l 1111 1181 l 1111 1042 l 833 1042 l 833 1181 m 0 764 l 278 764 l 278 625 l 0 625 l 0 764 m 417 764 l 694 764 l 694 625 l 417 625 l 417 764 m 833 764 l 1111 764 l 1111 625 l 833 625 l 833 764 m 0 556 l 278 556 l 278 417 l 0 417 l 0 556 m 833 1389 l 1111 1389 l 1111 1250 l 833 1250 l 833 1389 m 0 1181 l 278 1181 l 278 1042 l 0 1042 l 0 1181 m 0 972 l 278 972 l 278 833 l 0 833 l 0 972 m 417 556 l 694 556 l 694 417 l 417 417 l 417 556 m 417 972 l 694 972 l 694 833 l 417 833 l 417 972 m 833 556 l 1111 556 l 1111 417 l 833 417 l 833 556 m 417 1181 l 694 1181 l 694 1042 l 417 1042 l 417 1181 m 833 972 l 1111 972 l 1111 833 l 833 833 l 833 972 m 0 347 l 278 347 l 278 208 l 0 208 l 0 347 m 417 347 l 694 347 l 694 208 l 417 208 l 417 347 m 833 347 l 1111 347 l 1111 208 l 833 208 l 833 347 z "},"Щ":{"ha":1319,"x_min":0,"x_max":1111,"o":"m 0 139 l 1111 139 l 1111 0 l 0 0 l 0 139 m 0 1389 l 278 1389 l 278 1250 l 0 1250 l 0 1389 m 0 1181 l 278 1181 l 278 1042 l 0 1042 l 0 1181 m 764 1181 l 1042 1181 l 1042 1042 l 764 1042 l 764 1181 m 0 764 l 278 764 l 278 625 l 0 625 l 0 764 m 764 764 l 1042 764 l 1042 625 l 764 625 l 764 764 m 833 -69 l 1111 -69 l 1111 -208 l 833 -208 l 833 -69 m 0 972 l 278 972 l 278 833 l 0 833 l 0 972 m 0 556 l 278 556 l 278 417 l 0 417 l 0 556 m 764 1389 l 1042 1389 l 1042 1250 l 764 1250 l 764 1389 m 764 972 l 1042 972 l 1042 833 l 764 833 l 764 972 m 764 556 l 1042 556 l 1042 417 l 764 417 l 764 556 m 0 347 l 278 347 l 278 208 l 0 208 l 0 347 m 764 347 l 1042 347 l 1042 208 l 764 208 l 764 347 m 417 764 l 625 764 l 625 625 l 417 625 l 417 764 m 417 1389 l 625 1389 l 625 1250 l 417 1250 l 417 1389 m 417 556 l 625 556 l 625 417 l 417 417 l 417 556 m 417 972 l 625 972 l 625 833 l 417 833 l 417 972 m 417 1181 l 625 1181 l 625 1042 l 417 1042 l 417 1181 m 417 347 l 625 347 l 625 208 l 417 208 l 417 347 z "},"Ъ":{"ha":1319,"x_min":0,"x_max":1111,"o":"m 139 139 l 972 139 l 972 0 l 139 0 l 139 139 m 486 764 l 972 764 l 972 625 l 486 625 l 486 764 m 0 1389 l 278 1389 l 278 1250 l 0 1250 l 0 1389 m 139 972 l 417 972 l 417 833 l 139 833 l 139 972 m 833 347 l 1111 347 l 1111 208 l 833 208 l 833 347 m 139 1181 l 417 1181 l 417 1042 l 139 1042 l 139 1181 m 139 556 l 417 556 l 417 417 l 139 417 l 139 556 m 139 764 l 417 764 l 417 625 l 139 625 l 139 764 m 833 556 l 1111 556 l 1111 417 l 833 417 l 833 556 m 139 347 l 417 347 l 417 208 l 139 208 l 139 347 z "},"Ы":{"ha":1319,"x_min":0,"x_max":1111,"o":"m 0 139 l 625 139 l 625 0 l 0 0 l 0 139 m 833 1389 l 1111 1389 l 1111 1250 l 833 1250 l 833 1389 m 0 1181 l 278 1181 l 278 1042 l 0 1042 l 0 1181 m 0 972 l 278 972 l 278 833 l 0 833 l 0 972 m 833 139 l 1111 139 l 1111 0 l 833 0 l 833 139 m 833 972 l 1111 972 l 1111 833 l 833 833 l 833 972 m 0 556 l 278 556 l 278 417 l 0 417 l 0 556 m 486 556 l 764 556 l 764 417 l 486 417 l 486 556 m 833 1181 l 1111 1181 l 1111 1042 l 833 1042 l 833 1181 m 833 556 l 1111 556 l 1111 417 l 833 417 l 833 556 m 0 1389 l 278 1389 l 278 1250 l 0 1250 l 0 1389 m 347 764 l 625 764 l 625 625 l 347 625 l 347 764 m 0 347 l 278 347 l 278 208 l 0 208 l 0 347 m 486 347 l 764 347 l 764 208 l 486 208 l 486 347 m 833 347 l 1111 347 l 1111 208 l 833 208 l 833 347 m 0 764 l 278 764 l 278 625 l 0 625 l 0 764 m 833 764 l 1111 764 l 1111 625 l 833 625 l 833 764 z "},"Ь":{"ha":1319,"x_min":0,"x_max":1111,"o":"m 0 139 l 972 139 l 972 0 l 0 0 l 0 139 m 347 764 l 972 764 l 972 625 l 347 625 l 347 764 m 0 972 l 278 972 l 278 833 l 0 833 l 0 972 m 0 347 l 278 347 l 278 208 l 0 208 l 0 347 m 833 347 l 1111 347 l 1111 208 l 833 208 l 833 347 m 0 1181 l 278 1181 l 278 1042 l 0 1042 l 0 1181 m 0 1389 l 278 1389 l 278 1250 l 0 1250 l 0 1389 m 0 556 l 278 556 l 278 417 l 0 417 l 0 556 m 833 556 l 1111 556 l 1111 417 l 833 417 l 833 556 m 0 764 l 278 764 l 278 625 l 0 625 l 0 764 z "},"Э":{"ha":1319,"x_min":0,"x_max":1111,"o":"m 139 1389 l 972 1389 l 972 1250 l 139 1250 l 139 1389 m 139 139 l 972 139 l 972 0 l 139 0 l 139 139 m 833 556 l 1111 556 l 1111 417 l 833 417 l 833 556 m 0 347 l 278 347 l 278 208 l 0 208 l 0 347 m 833 347 l 1111 347 l 1111 208 l 833 208 l 833 347 m 833 972 l 1111 972 l 1111 833 l 833 833 l 833 972 m 0 1181 l 278 1181 l 278 1042 l 0 1042 l 0 1181 m 486 764 l 764 764 l 764 625 l 486 625 l 486 764 m 833 764 l 1111 764 l 1111 625 l 833 625 l 833 764 m 833 1181 l 1111 1181 l 1111 1042 l 833 1042 l 833 1181 z "},"Ю":{"ha":1319,"x_min":0,"x_max":1111,"o":"m 0 764 l 694 764 l 694 625 l 0 625 l 0 764 m 556 1389 l 972 1389 l 972 1250 l 556 1250 l 556 1389 m 556 139 l 972 139 l 972 0 l 556 0 l 556 139 m 833 1181 l 1111 1181 l 1111 1042 l 833 1042 l 833 1181 m 833 347 l 1111 347 l 1111 208 l 833 208 l 833 347 m 0 139 l 278 139 l 278 0 l 0 0 l 0 139 m 0 1389 l 278 1389 l 278 1250 l 0 1250 l 0 1389 m 833 764 l 1111 764 l 1111 625 l 833 625 l 833 764 m 0 1181 l 278 1181 l 278 1042 l 0 1042 l 0 1181 m 0 972 l 278 972 l 278 833 l 0 833 l 0 972 m 0 556 l 278 556 l 278 417 l 0 417 l 0 556 m 417 1181 l 694 1181 l 694 1042 l 417 1042 l 417 1181 m 417 972 l 694 972 l 694 833 l 417 833 l 417 972 m 417 556 l 694 556 l 694 417 l 417 417 l 417 556 m 833 556 l 1111 556 l 1111 417 l 833 417 l 833 556 m 833 972 l 1111 972 l 1111 833 l 833 833 l 833 972 m 0 347 l 278 347 l 278 208 l 0 208 l 0 347 m 417 347 l 694 347 l 694 208 l 417 208 l 417 347 z "},"Я":{"ha":1319,"x_min":0,"x_max":1111,"o":"m 139 1389 l 764 1389 l 764 1250 l 139 1250 l 139 1389 m 139 764 l 764 764 l 764 625 l 139 625 l 139 764 m 833 1181 l 1111 1181 l 1111 1042 l 833 1042 l 833 1181 m 833 764 l 1111 764 l 1111 625 l 833 625 l 833 764 m 0 972 l 278 972 l 278 833 l 0 833 l 0 972 m 278 556 l 556 556 l 556 417 l 278 417 l 278 556 m 833 556 l 1111 556 l 1111 417 l 833 417 l 833 556 m 0 1181 l 278 1181 l 278 1042 l 0 1042 l 0 1181 m 833 972 l 1111 972 l 1111 833 l 833 833 l 833 972 m 139 347 l 417 347 l 417 208 l 139 208 l 139 347 m 833 347 l 1111 347 l 1111 208 l 833 208 l 833 347 m 833 1389 l 1111 1389 l 1111 1250 l 833 1250 l 833 1389 m 0 139 l 278 139 l 278 0 l 0 0 l 0 139 m 833 139 l 1111 139 l 1111 0 l 833 0 l 833 139 z "},"а":{"ha":1181,"x_min":0,"x_max":972,"o":"m 139 972 l 833 972 l 833 833 l 139 833 l 139 972 m 139 139 l 625 139 l 625 0 l 139 0 l 139 139 m 139 556 l 625 556 l 625 417 l 139 417 l 139 556 m 694 764 l 972 764 l 972 625 l 694 625 l 694 764 m 694 556 l 972 556 l 972 417 l 694 417 l 694 556 m 694 139 l 972 139 l 972 0 l 694 0 l 694 139 m 0 347 l 278 347 l 278 208 l 0 208 l 0 347 m 694 347 l 972 347 l 972 208 l 694 208 l 694 347 z "},"б":{"ha":1181,"x_min":0,"x_max":972,"o":"m 139 1389 l 833 1389 l 833 1250 l 139 1250 l 139 1389 m 139 139 l 833 139 l 833 0 l 139 0 l 139 139 m 347 972 l 833 972 l 833 833 l 347 833 l 347 972 m 0 1181 l 278 1181 l 278 1042 l 0 1042 l 0 1181 m 0 556 l 278 556 l 278 417 l 0 417 l 0 556 m 694 556 l 972 556 l 972 417 l 694 417 l 694 556 m 0 347 l 278 347 l 278 208 l 0 208 l 0 347 m 694 347 l 972 347 l 972 208 l 694 208 l 694 347 m 0 972 l 278 972 l 278 833 l 0 833 l 0 972 m 0 764 l 278 764 l 278 625 l 0 625 l 0 764 m 694 764 l 972 764 l 972 625 l 694 625 l 694 764 z "},"в":{"ha":1181,"x_min":0,"x_max":972,"o":"m 139 139 l 833 139 l 833 0 l 139 0 l 139 139 m 139 1389 l 764 1389 l 764 1250 l 139 1250 l 139 1389 m 347 972 l 833 972 l 833 833 l 347 833 l 347 972 m 0 972 l 278 972 l 278 833 l 0 833 l 0 972 m 0 556 l 278 556 l 278 417 l 0 417 l 0 556 m 694 556 l 972 556 l 972 417 l 694 417 l 694 556 m 0 1181 l 278 1181 l 278 1042 l 0 1042 l 0 1181 m 0 347 l 278 347 l 278 208 l 0 208 l 0 347 m 694 347 l 972 347 l 972 208 l 694 208 l 694 347 m 625 1181 l 903 1181 l 903 1042 l 625 1042 l 625 1181 m 0 764 l 278 764 l 278 625 l 0 625 l 0 764 m 694 764 l 972 764 l 972 625 l 694 625 l 694 764 z "},"г":{"ha":1181,"x_min":0,"x_max":972,"o":"m 347 972 l 972 972 l 972 833 l 347 833 l 347 972 m 0 972 l 278 972 l 278 833 l 0 833 l 0 972 m 0 556 l 278 556 l 278 417 l 0 417 l 0 556 m 0 347 l 278 347 l 278 208 l 0 208 l 0 347 m 0 764 l 278 764 l 278 625 l 0 625 l 0 764 m 0 139 l 278 139 l 278 0 l 0 0 l 0 139 z "},"д":{"ha":1181,"x_min":0,"x_max":972,"o":"m 139 1389 l 833 1389 l 833 1250 l 139 1250 l 139 1389 m 139 139 l 833 139 l 833 0 l 139 0 l 139 139 m 139 972 l 625 972 l 625 833 l 139 833 l 139 972 m 694 1181 l 972 1181 l 972 1042 l 694 1042 l 694 1181 m 694 972 l 972 972 l 972 833 l 694 833 l 694 972 m 0 556 l 278 556 l 278 417 l 0 417 l 0 556 m 694 556 l 972 556 l 972 417 l 694 417 l 694 556 m 0 347 l 278 347 l 278 208 l 0 208 l 0 347 m 694 347 l 972 347 l 972 208 l 694 208 l 694 347 m 0 764 l 278 764 l 278 625 l 0 625 l 0 764 m 694 764 l 972 764 l 972 625 l 694 625 l 694 764 z "},"е":{"ha":1181,"x_min":0,"x_max":972,"o":"m 139 972 l 833 972 l 833 833 l 139 833 l 139 972 m 139 139 l 833 139 l 833 0 l 139 0 l 139 139 m 347 556 l 972 556 l 972 417 l 347 417 l 347 556 m 0 556 l 278 556 l 278 417 l 0 417 l 0 556 m 0 764 l 278 764 l 278 625 l 0 625 l 0 764 m 694 764 l 972 764 l 972 625 l 694 625 l 694 764 m 0 347 l 278 347 l 278 208 l 0 208 l 0 347 z "},"ж":{"ha":1181,"x_min":0,"x_max":972,"o":"m 139 556 l 833 556 l 833 417 l 139 417 l 139 556 m 0 972 l 278 972 l 278 833 l 0 833 l 0 972 m 694 347 l 972 347 l 972 208 l 694 208 l 694 347 m 0 139 l 278 139 l 278 0 l 0 0 l 0 139 m 694 972 l 972 972 l 972 833 l 694 833 l 694 972 m 0 764 l 278 764 l 278 625 l 0 625 l 0 764 m 694 139 l 972 139 l 972 0 l 694 0 l 694 139 m 694 764 l 972 764 l 972 625 l 694 625 l 694 764 m 0 347 l 278 347 l 278 208 l 0 208 l 0 347 m 417 347 l 556 347 l 556 208 l 417 208 l 417 347 m 417 139 l 556 139 l 556 0 l 417 0 l 417 139 m 417 972 l 556 972 l 556 833 l 417 833 l 417 972 m 417 764 l 556 764 l 556 625 l 417 625 l 417 764 z "},"з":{"ha":1181,"x_min":0,"x_max":972,"o":"m 0 972 l 833 972 l 833 833 l 0 833 l 0 972 m 0 139 l 833 139 l 833 0 l 0 0 l 0 139 m 278 556 l 833 556 l 833 417 l 278 417 l 278 556 m 694 347 l 972 347 l 972 208 l 694 208 l 694 347 m 694 764 l 972 764 l 972 625 l 694 625 l 694 764 z "},"и":{"ha":1181,"x_min":0,"x_max":972,"o":"m 0 972 l 278 972 l 278 833 l 0 833 l 0 972 m 694 972 l 972 972 l 972 833 l 694 833 l 694 972 m 0 764 l 278 764 l 278 625 l 0 625 l 0 764 m 0 556 l 278 556 l 278 417 l 0 417 l 0 556 m 0 139 l 278 139 l 278 0 l 0 0 l 0 139 m 694 139 l 972 139 l 972 0 l 694 0 l 694 139 m 694 764 l 972 764 l 972 625 l 694 625 l 694 764 m 694 556 l 972 556 l 972 417 l 694 417 l 694 556 m 0 347 l 278 347 l 278 208 l 0 208 l 0 347 m 694 347 l 972 347 l 972 208 l 694 208 l 694 347 m 486 556 l 625 556 l 625 417 l 486 417 l 486 556 m 347 347 l 486 347 l 486 208 l 347 208 l 347 347 z "},"й":{"ha":1181,"x_min":0,"x_max":972,"o":"m 347 1250 l 625 1250 l 625 1111 l 347 1111 l 347 1250 m 0 972 l 278 972 l 278 833 l 0 833 l 0 972 m 0 764 l 278 764 l 278 625 l 0 625 l 0 764 m 0 347 l 278 347 l 278 208 l 0 208 l 0 347 m 694 764 l 972 764 l 972 625 l 694 625 l 694 764 m 694 347 l 972 347 l 972 208 l 694 208 l 694 347 m 0 139 l 278 139 l 278 0 l 0 0 l 0 139 m 694 972 l 972 972 l 972 833 l 694 833 l 694 972 m 0 556 l 278 556 l 278 417 l 0 417 l 0 556 m 694 139 l 972 139 l 972 0 l 694 0 l 694 139 m 694 556 l 972 556 l 972 417 l 694 417 l 694 556 m 208 1458 l 417 1458 l 417 1319 l 208 1319 l 208 1458 m 556 1458 l 764 1458 l 764 1319 l 556 1319 l 556 1458 m 347 347 l 486 347 l 486 208 l 347 208 l 347 347 m 486 556 l 625 556 l 625 417 l 486 417 l 486 556 z "},"к":{"ha":1181,"x_min":0,"x_max":972,"o":"m 347 556 l 694 556 l 694 417 l 347 417 l 347 556 m 0 972 l 278 972 l 278 833 l 0 833 l 0 972 m 694 972 l 972 972 l 972 833 l 694 833 l 694 972 m 0 556 l 278 556 l 278 417 l 0 417 l 0 556 m 0 139 l 278 139 l 278 0 l 0 0 l 0 139 m 694 139 l 972 139 l 972 0 l 694 0 l 694 139 m 0 764 l 278 764 l 278 625 l 0 625 l 0 764 m 556 764 l 833 764 l 833 625 l 556 625 l 556 764 m 0 347 l 278 347 l 278 208 l 0 208 l 0 347 m 556 347 l 833 347 l 833 208 l 556 208 l 556 347 z "},"л":{"ha":1181,"x_min":0,"x_max":972,"o":"m 278 972 l 972 972 l 972 833 l 278 833 l 278 972 m 139 764 l 417 764 l 417 625 l 139 625 l 139 764 m 0 556 l 278 556 l 278 417 l 0 417 l 0 556 m 0 139 l 278 139 l 278 0 l 0 0 l 0 139 m 694 139 l 972 139 l 972 0 l 694 0 l 694 139 m 694 556 l 972 556 l 972 417 l 694 417 l 694 556 m 694 764 l 972 764 l 972 625 l 694 625 l 694 764 m 0 347 l 278 347 l 278 208 l 0 208 l 0 347 m 694 347 l 972 347 l 972 208 l 694 208 l 694 347 z "},"м":{"ha":1181,"x_min":0,"x_max":972,"o":"m 0 556 l 417 556 l 417 417 l 0 417 l 0 556 m 556 556 l 972 556 l 972 417 l 556 417 l 556 556 m 694 972 l 972 972 l 972 833 l 694 833 l 694 972 m 0 764 l 278 764 l 278 625 l 0 625 l 0 764 m 694 347 l 972 347 l 972 208 l 694 208 l 694 347 m 0 139 l 278 139 l 278 0 l 0 0 l 0 139 m 0 972 l 278 972 l 278 833 l 0 833 l 0 972 m 694 764 l 972 764 l 972 625 l 694 625 l 694 764 m 694 139 l 972 139 l 972 0 l 694 0 l 694 139 m 0 347 l 278 347 l 278 208 l 0 208 l 0 347 m 417 347 l 556 347 l 556 208 l 417 208 l 417 347 z "},"н":{"ha":1181,"x_min":0,"x_max":972,"o":"m 0 972 l 278 972 l 278 833 l 0 833 l 0 972 m 694 972 l 972 972 l 972 833 l 694 833 l 694 972 m 0 764 l 278 764 l 278 625 l 0 625 l 0 764 m 0 139 l 278 139 l 278 0 l 0 0 l 0 139 m 347 556 l 625 556 l 625 417 l 347 417 l 347 556 m 694 139 l 972 139 l 972 0 l 694 0 l 694 139 m 694 764 l 972 764 l 972 625 l 694 625 l 694 764 m 694 556 l 972 556 l 972 417 l 694 417 l 694 556 m 0 556 l 278 556 l 278 417 l 0 417 l 0 556 m 0 347 l 278 347 l 278 208 l 0 208 l 0 347 m 694 347 l 972 347 l 972 208 l 694 208 l 694 347 z "},"о":{"ha":1181,"x_min":0,"x_max":972,"o":"m 139 972 l 833 972 l 833 833 l 139 833 l 139 972 m 139 139 l 833 139 l 833 0 l 139 0 l 139 139 m 0 764 l 278 764 l 278 625 l 0 625 l 0 764 m 0 556 l 278 556 l 278 417 l 0 417 l 0 556 m 694 556 l 972 556 l 972 417 l 694 417 l 694 556 m 694 764 l 972 764 l 972 625 l 694 625 l 694 764 m 0 347 l 278 347 l 278 208 l 0 208 l 0 347 m 694 347 l 972 347 l 972 208 l 694 208 l 694 347 z "},"п":{"ha":1181,"x_min":0,"x_max":972,"o":"m 0 972 l 972 972 l 972 833 l 0 833 l 0 972 m 694 764 l 972 764 l 972 625 l 694 625 l 694 764 m 694 347 l 972 347 l 972 208 l 694 208 l 694 347 m 0 139 l 278 139 l 278 0 l 0 0 l 0 139 m 694 139 l 972 139 l 972 0 l 694 0 l 694 139 m 0 556 l 278 556 l 278 417 l 0 417 l 0 556 m 0 764 l 278 764 l 278 625 l 0 625 l 0 764 m 694 556 l 972 556 l 972 417 l 694 417 l 694 556 m 0 347 l 278 347 l 278 208 l 0 208 l 0 347 z "},"р":{"ha":1181,"x_min":0,"x_max":972,"o":"m 347 972 l 833 972 l 833 833 l 347 833 l 347 972 m 347 139 l 833 139 l 833 0 l 347 0 l 347 139 m 0 972 l 278 972 l 278 833 l 0 833 l 0 972 m 0 139 l 278 139 l 278 0 l 0 0 l 0 139 m 0 556 l 278 556 l 278 417 l 0 417 l 0 556 m 694 556 l 972 556 l 972 417 l 694 417 l 694 556 m 0 -69 l 278 -69 l 278 -208 l 0 -208 l 0 -69 m 0 764 l 278 764 l 278 625 l 0 625 l 0 764 m 0 347 l 278 347 l 278 208 l 0 208 l 0 347 m 0 -278 l 278 -278 l 278 -417 l 0 -417 l 0 -278 m 694 764 l 972 764 l 972 625 l 694 625 l 694 764 m 694 347 l 972 347 l 972 208 l 694 208 l 694 347 z "},"с":{"ha":1181,"x_min":0,"x_max":972,"o":"m 139 972 l 972 972 l 972 833 l 139 833 l 139 972 m 139 139 l 972 139 l 972 0 l 139 0 l 139 139 m 0 556 l 278 556 l 278 417 l 0 417 l 0 556 m 0 347 l 278 347 l 278 208 l 0 208 l 0 347 m 0 764 l 278 764 l 278 625 l 0 625 l 0 764 z "},"т":{"ha":1181,"x_min":0,"x_max":972,"o":"m 0 972 l 972 972 l 972 833 l 0 833 l 0 972 m 347 556 l 625 556 l 625 417 l 347 417 l 347 556 m 347 347 l 625 347 l 625 208 l 347 208 l 347 347 m 347 764 l 625 764 l 625 625 l 347 625 l 347 764 m 347 139 l 625 139 l 625 0 l 347 0 l 347 139 z "},"у":{"ha":1181,"x_min":0,"x_max":972,"o":"m 139 -278 l 833 -278 l 833 -417 l 139 -417 l 139 -278 m 139 139 l 625 139 l 625 0 l 139 0 l 139 139 m 694 972 l 972 972 l 972 833 l 694 833 l 694 972 m 0 764 l 278 764 l 278 625 l 0 625 l 0 764 m 0 556 l 278 556 l 278 417 l 0 417 l 0 556 m 694 556 l 972 556 l 972 417 l 694 417 l 694 556 m 694 139 l 972 139 l 972 0 l 694 0 l 694 139 m 0 972 l 278 972 l 278 833 l 0 833 l 0 972 m 694 -69 l 972 -69 l 972 -208 l 694 -208 l 694 -69 m 694 764 l 972 764 l 972 625 l 694 625 l 694 764 m 0 347 l 278 347 l 278 208 l 0 208 l 0 347 m 694 347 l 972 347 l 972 208 l 694 208 l 694 347 z "},"ф":{"ha":1181,"x_min":0,"x_max":972,"o":"m 139 972 l 833 972 l 833 833 l 139 833 l 139 972 m 139 139 l 833 139 l 833 0 l 139 0 l 139 139 m 0 347 l 278 347 l 278 208 l 0 208 l 0 347 m 694 347 l 972 347 l 972 208 l 694 208 l 694 347 m 694 764 l 972 764 l 972 625 l 694 625 l 694 764 m 0 556 l 278 556 l 278 417 l 0 417 l 0 556 m 0 764 l 278 764 l 278 625 l 0 625 l 0 764 m 694 556 l 972 556 l 972 417 l 694 417 l 694 556 m 417 347 l 556 347 l 556 208 l 417 208 l 417 347 m 417 556 l 556 556 l 556 417 l 417 417 l 417 556 m 417 1181 l 556 1181 l 556 1042 l 417 1042 l 417 1181 m 417 -69 l 556 -69 l 556 -208 l 417 -208 l 417 -69 m 417 764 l 556 764 l 556 625 l 417 625 l 417 764 z "},"х":{"ha":1181,"x_min":0,"x_max":972,"o":"m 278 556 l 694 556 l 694 417 l 278 417 l 278 556 m 0 972 l 278 972 l 278 833 l 0 833 l 0 972 m 694 972 l 972 972 l 972 833 l 694 833 l 694 972 m 139 764 l 417 764 l 417 625 l 139 625 l 139 764 m 694 139 l 972 139 l 972 0 l 694 0 l 694 139 m 556 764 l 833 764 l 833 625 l 556 625 l 556 764 m 139 347 l 417 347 l 417 208 l 139 208 l 139 347 m 556 347 l 833 347 l 833 208 l 556 208 l 556 347 m 0 139 l 278 139 l 278 0 l 0 0 l 0 139 z "},"ц":{"ha":1181,"x_min":0,"x_max":972,"o":"m 0 139 l 972 139 l 972 0 l 0 0 l 0 139 m 0 972 l 278 972 l 278 833 l 0 833 l 0 972 m 556 972 l 833 972 l 833 833 l 556 833 l 556 972 m 0 764 l 278 764 l 278 625 l 0 625 l 0 764 m 0 556 l 278 556 l 278 417 l 0 417 l 0 556 m 556 556 l 833 556 l 833 417 l 556 417 l 556 556 m 694 -69 l 972 -69 l 972 -208 l 694 -208 l 694 -69 m 556 764 l 833 764 l 833 625 l 556 625 l 556 764 m 0 347 l 278 347 l 278 208 l 0 208 l 0 347 m 556 347 l 833 347 l 833 208 l 556 208 l 556 347 z "},"ч":{"ha":1181,"x_min":0,"x_max":972,"o":"m 139 556 l 972 556 l 972 417 l 139 417 l 139 556 m 0 972 l 278 972 l 278 833 l 0 833 l 0 972 m 694 972 l 972 972 l 972 833 l 694 833 l 694 972 m 0 764 l 278 764 l 278 625 l 0 625 l 0 764 m 694 139 l 972 139 l 972 0 l 694 0 l 694 139 m 694 764 l 972 764 l 972 625 l 694 625 l 694 764 m 694 347 l 972 347 l 972 208 l 694 208 l 694 347 z "},"ш":{"ha":1181,"x_min":0,"x_max":972,"o":"m 0 139 l 972 139 l 972 0 l 0 0 l 0 139 m 0 972 l 278 972 l 278 833 l 0 833 l 0 972 m 694 347 l 972 347 l 972 208 l 694 208 l 694 347 m 694 972 l 972 972 l 972 833 l 694 833 l 694 972 m 0 764 l 278 764 l 278 625 l 0 625 l 0 764 m 0 556 l 278 556 l 278 417 l 0 417 l 0 556 m 694 764 l 972 764 l 972 625 l 694 625 l 694 764 m 694 556 l 972 556 l 972 417 l 694 417 l 694 556 m 0 347 l 278 347 l 278 208 l 0 208 l 0 347 m 417 347 l 556 347 l 556 208 l 417 208 l 417 347 m 417 972 l 556 972 l 556 833 l 417 833 l 417 972 m 417 556 l 556 556 l 556 417 l 417 417 l 417 556 m 417 764 l 556 764 l 556 625 l 417 625 l 417 764 z "},"щ":{"ha":1181,"x_min":0,"x_max":1042,"o":"m 0 139 l 1042 139 l 1042 0 l 0 0 l 0 139 m 0 972 l 278 972 l 278 833 l 0 833 l 0 972 m 694 347 l 972 347 l 972 208 l 694 208 l 694 347 m 694 972 l 972 972 l 972 833 l 694 833 l 694 972 m 0 764 l 278 764 l 278 625 l 0 625 l 0 764 m 0 556 l 278 556 l 278 417 l 0 417 l 0 556 m 694 764 l 972 764 l 972 625 l 694 625 l 694 764 m 694 556 l 972 556 l 972 417 l 694 417 l 694 556 m 764 -69 l 1042 -69 l 1042 -208 l 764 -208 l 764 -69 m 0 347 l 278 347 l 278 208 l 0 208 l 0 347 m 417 347 l 556 347 l 556 208 l 417 208 l 417 347 m 417 972 l 556 972 l 556 833 l 417 833 l 417 972 m 417 556 l 556 556 l 556 417 l 417 417 l 417 556 m 417 764 l 556 764 l 556 625 l 417 625 l 417 764 z "},"ъ":{"ha":1181,"x_min":0,"x_max":972,"o":"m 139 556 l 833 556 l 833 417 l 139 417 l 139 556 m 139 139 l 833 139 l 833 0 l 139 0 l 139 139 m 0 972 l 417 972 l 417 833 l 0 833 l 0 972 m 139 347 l 417 347 l 417 208 l 139 208 l 139 347 m 694 347 l 972 347 l 972 208 l 694 208 l 694 347 m 139 764 l 417 764 l 417 625 l 139 625 l 139 764 z "},"ы":{"ha":1181,"x_min":0,"x_max":972,"o":"m 0 556 l 486 556 l 486 417 l 0 417 l 0 556 m 0 139 l 486 139 l 486 0 l 0 0 l 0 139 m 0 972 l 278 972 l 278 833 l 0 833 l 0 972 m 0 764 l 278 764 l 278 625 l 0 625 l 0 764 m 694 347 l 972 347 l 972 208 l 694 208 l 694 347 m 694 972 l 972 972 l 972 833 l 694 833 l 694 972 m 694 556 l 972 556 l 972 417 l 694 417 l 694 556 m 694 139 l 972 139 l 972 0 l 694 0 l 694 139 m 694 764 l 972 764 l 972 625 l 694 625 l 694 764 m 0 347 l 278 347 l 278 208 l 0 208 l 0 347 m 417 347 l 625 347 l 625 208 l 417 208 l 417 347 z "},"ь":{"ha":1181,"x_min":0,"x_max":972,"o":"m 0 556 l 833 556 l 833 417 l 0 417 l 0 556 m 0 139 l 833 139 l 833 0 l 0 0 l 0 139 m 0 972 l 278 972 l 278 833 l 0 833 l 0 972 m 0 764 l 278 764 l 278 625 l 0 625 l 0 764 m 0 347 l 278 347 l 278 208 l 0 208 l 0 347 m 694 347 l 972 347 l 972 208 l 694 208 l 694 347 z "},"э":{"ha":1181,"x_min":0,"x_max":972,"o":"m 0 972 l 833 972 l 833 833 l 0 833 l 0 972 m 0 139 l 833 139 l 833 0 l 0 0 l 0 139 m 278 556 l 625 556 l 625 417 l 278 417 l 278 556 m 694 556 l 972 556 l 972 417 l 694 417 l 694 556 m 694 347 l 972 347 l 972 208 l 694 208 l 694 347 m 694 764 l 972 764 l 972 625 l 694 625 l 694 764 z "},"ю":{"ha":1181,"x_min":0,"x_max":972,"o":"m 0 556 l 625 556 l 625 417 l 0 417 l 0 556 m 0 972 l 278 972 l 278 833 l 0 833 l 0 972 m 556 972 l 833 972 l 833 833 l 556 833 l 556 972 m 0 764 l 278 764 l 278 625 l 0 625 l 0 764 m 0 347 l 278 347 l 278 208 l 0 208 l 0 347 m 0 139 l 278 139 l 278 0 l 0 0 l 0 139 m 556 139 l 833 139 l 833 0 l 556 0 l 556 139 m 417 347 l 625 347 l 625 208 l 417 208 l 417 347 m 764 347 l 972 347 l 972 208 l 764 208 l 764 347 m 417 764 l 625 764 l 625 625 l 417 625 l 417 764 m 764 556 l 972 556 l 972 417 l 764 417 l 764 556 m 764 764 l 972 764 l 972 625 l 764 625 l 764 764 z "},"я":{"ha":1181,"x_min":0,"x_max":972,"o":"m 139 972 l 972 972 l 972 833 l 139 833 l 139 972 m 139 556 l 972 556 l 972 417 l 139 417 l 139 556 m 208 347 l 486 347 l 486 208 l 208 208 l 208 347 m 694 347 l 972 347 l 972 208 l 694 208 l 694 347 m 69 139 l 347 139 l 347 0 l 69 0 l 69 139 m 694 139 l 972 139 l 972 0 l 694 0 l 694 139 m 0 764 l 278 764 l 278 625 l 0 625 l 0 764 m 694 764 l 972 764 l 972 625 l 694 625 l 694 764 z "},"¡":{"ha":486,"x_min":0,"x_max":278,"o":"m 0 1389 l 278 1389 l 278 1250 l 0 1250 l 0 1389 m 0 972 l 278 972 l 278 833 l 0 833 l 0 972 m 0 764 l 278 764 l 278 625 l 0 625 l 0 764 m 0 347 l 278 347 l 278 208 l 0 208 l 0 347 m 0 139 l 278 139 l 278 0 l 0 0 l 0 139 m 0 556 l 278 556 l 278 417 l 0 417 l 0 556 z "},"¢":{"ha":1181,"x_min":0,"x_max":972,"o":"m 139 972 l 972 972 l 972 833 l 139 833 l 139 972 m 139 139 l 972 139 l 972 0 l 139 0 l 139 139 m 0 556 l 278 556 l 278 417 l 0 417 l 0 556 m 0 764 l 278 764 l 278 625 l 0 625 l 0 764 m 0 347 l 278 347 l 278 208 l 0 208 l 0 347 m 556 764 l 694 764 l 694 625 l 556 625 l 556 764 m 556 -69 l 694 -69 l 694 -208 l 556 -208 l 556 -69 m 556 556 l 694 556 l 694 417 l 556 417 l 556 556 m 556 1181 l 694 1181 l 694 1042 l 556 1042 l 556 1181 m 556 347 l 694 347 l 694 208 l 556 208 l 556 347 z "},"£":{"ha":1181,"x_min":0,"x_max":972,"o":"m 347 1389 l 833 1389 l 833 1250 l 347 1250 l 347 1389 m 208 1181 l 486 1181 l 486 1042 l 208 1042 l 208 1181 m 208 347 l 486 347 l 486 208 l 208 208 l 208 347 m 208 139 l 486 139 l 486 0 l 208 0 l 208 139 m 694 1181 l 972 1181 l 972 1042 l 694 1042 l 694 1181 m 208 764 l 486 764 l 486 625 l 208 625 l 208 764 m 556 139 l 833 139 l 833 0 l 556 0 l 556 139 m 556 764 l 833 764 l 833 625 l 556 625 l 556 764 m 208 972 l 486 972 l 486 833 l 208 833 l 208 972 m 208 556 l 486 556 l 486 417 l 208 417 l 208 556 m 0 764 l 139 764 l 139 625 l 0 625 l 0 764 m 0 139 l 139 139 l 139 0 l 0 0 l 0 139 z "},"¥":{"ha":1319,"x_min":0,"x_max":1111,"o":"m 0 1389 l 278 1389 l 278 1250 l 0 1250 l 0 1389 m 833 1389 l 1111 1389 l 1111 1250 l 833 1250 l 833 1389 m 139 1181 l 417 1181 l 417 1042 l 139 1042 l 139 1181 m 417 556 l 694 556 l 694 417 l 417 417 l 417 556 m 417 347 l 694 347 l 694 208 l 417 208 l 417 347 m 417 139 l 694 139 l 694 0 l 417 0 l 417 139 m 694 1181 l 972 1181 l 972 1042 l 694 1042 l 694 1181 m 417 764 l 694 764 l 694 625 l 417 625 l 417 764 m 278 972 l 486 972 l 486 833 l 278 833 l 278 972 m 139 347 l 347 347 l 347 208 l 139 208 l 139 347 m 625 972 l 833 972 l 833 833 l 625 833 l 625 972 m 764 347 l 972 347 l 972 208 l 764 208 l 764 347 m 139 764 l 347 764 l 347 625 l 139 625 l 139 764 m 764 764 l 972 764 l 972 625 l 764 625 l 764 764 z "},"¨":{"ha":764,"x_min":0,"x_max":556,"o":"m 0 1389 l 208 1389 l 208 1250 l 0 1250 l 0 1389 m 347 1389 l 556 1389 l 556 1250 l 347 1250 l 347 1389 z "},"ª":{"ha":694,"x_min":0,"x_max":486,"o":"m 69 1389 l 417 1389 l 417 1319 l 69 1319 l 69 1389 m 69 1111 l 278 1111 l 278 1042 l 69 1042 l 69 1111 m 69 833 l 278 833 l 278 764 l 69 764 l 69 833 m 347 972 l 486 972 l 486 903 l 347 903 l 347 972 m 347 833 l 486 833 l 486 764 l 347 764 l 347 833 m 347 1250 l 486 1250 l 486 1181 l 347 1181 l 347 1250 m 347 1111 l 486 1111 l 486 1042 l 347 1042 l 347 1111 m 0 972 l 139 972 l 139 903 l 0 903 l 0 972 z "},"²":{"ha":694,"x_min":0,"x_max":486,"o":"m 0 764 l 486 764 l 486 694 l 0 694 l 0 764 m 0 1319 l 417 1319 l 417 1250 l 0 1250 l 0 1319 m 69 1042 l 417 1042 l 417 972 l 69 972 l 69 1042 m 347 1181 l 486 1181 l 486 1111 l 347 1111 l 347 1181 m 0 903 l 139 903 l 139 833 l 0 833 l 0 903 z "},"³":{"ha":694,"x_min":0,"x_max":486,"o":"m 69 1319 l 417 1319 l 417 1250 l 69 1250 l 69 1319 m 139 764 l 417 764 l 417 694 l 139 694 l 139 764 m 208 1042 l 417 1042 l 417 972 l 208 972 l 208 1042 m 347 903 l 486 903 l 486 833 l 347 833 l 347 903 m 347 1181 l 486 1181 l 486 1111 l 347 1111 l 347 1181 m 0 1181 l 139 1181 l 139 1111 l 0 1111 l 0 1181 m 0 903 l 139 903 l 139 833 l 0 833 l 0 903 z "},"´":{"ha":625,"x_min":0,"x_max":417,"o":"m 139 1389 l 417 1389 l 417 1250 l 139 1250 l 139 1389 m 0 1181 l 278 1181 l 278 1042 l 0 1042 l 0 1181 z "},"¸":{"ha":625,"x_min":0,"x_max":417,"o":"m 139 -69 l 417 -69 l 417 -208 l 139 -208 l 139 -69 m 0 -278 l 278 -278 l 278 -417 l 0 -417 l 0 -278 z "},"¹":{"ha":625,"x_min":0,"x_max":417,"o":"m 0 764 l 417 764 l 417 694 l 0 694 l 0 764 m 0 1319 l 278 1319 l 278 1250 l 0 1250 l 0 1319 m 139 903 l 278 903 l 278 833 l 139 833 l 139 903 m 139 1181 l 278 1181 l 278 1111 l 139 1111 l 139 1181 m 139 1042 l 278 1042 l 278 972 l 139 972 l 139 1042 z "},"º":{"ha":694,"x_min":0,"x_max":486,"o":"m 69 1319 l 417 1319 l 417 1250 l 69 1250 l 69 1319 m 69 764 l 417 764 l 417 694 l 69 694 l 69 764 m 347 1181 l 486 1181 l 486 1111 l 347 1111 l 347 1181 m 347 903 l 486 903 l 486 833 l 347 833 l 347 903 m 0 1042 l 139 1042 l 139 972 l 0 972 l 0 1042 m 0 1181 l 139 1181 l 139 1111 l 0 1111 l 0 1181 m 347 1042 l 486 1042 l 486 972 l 347 972 l 347 1042 m 0 903 l 139 903 l 139 833 l 0 833 l 0 903 z "},"¼":{"ha":1528,"x_min":0,"x_max":1319,"o":"m 903 1389 l 1181 1389 l 1181 1250 l 903 1250 l 903 1389 m 764 1181 l 1042 1181 l 1042 1042 l 764 1042 l 764 1181 m 208 347 l 486 347 l 486 208 l 208 208 l 208 347 m 486 764 l 764 764 l 764 625 l 486 625 l 486 764 m 69 139 l 347 139 l 347 0 l 69 0 l 69 139 m 625 972 l 903 972 l 903 833 l 625 833 l 625 972 m 347 556 l 625 556 l 625 417 l 347 417 l 347 556 m 833 347 l 1319 347 l 1319 278 l 833 278 l 833 347 m 0 764 l 417 764 l 417 694 l 0 694 l 0 764 m 0 1319 l 278 1319 l 278 1250 l 0 1250 l 0 1319 m 1181 208 l 1319 208 l 1319 139 l 1181 139 l 1181 208 m 139 1042 l 278 1042 l 278 972 l 139 972 l 139 1042 m 1181 69 l 1319 69 l 1319 0 l 1181 0 l 1181 69 m 833 625 l 972 625 l 972 556 l 833 556 l 833 625 m 1181 625 l 1319 625 l 1319 556 l 1181 556 l 1181 625 m 139 1181 l 278 1181 l 278 1111 l 139 1111 l 139 1181 m 139 903 l 278 903 l 278 833 l 139 833 l 139 903 m 833 486 l 972 486 l 972 417 l 833 417 l 833 486 m 1181 486 l 1319 486 l 1319 417 l 1181 417 l 1181 486 z "},"½":{"ha":1528,"x_min":0,"x_max":1319,"o":"m 903 1389 l 1181 1389 l 1181 1250 l 903 1250 l 903 1389 m 764 1181 l 1042 1181 l 1042 1042 l 764 1042 l 764 1181 m 208 347 l 486 347 l 486 208 l 208 208 l 208 347 m 486 764 l 764 764 l 764 625 l 486 625 l 486 764 m 69 139 l 347 139 l 347 0 l 69 0 l 69 139 m 625 972 l 903 972 l 903 833 l 625 833 l 625 972 m 347 556 l 625 556 l 625 417 l 347 417 l 347 556 m 833 69 l 1319 69 l 1319 0 l 833 0 l 833 69 m 0 764 l 417 764 l 417 694 l 0 694 l 0 764 m 833 625 l 1250 625 l 1250 556 l 833 556 l 833 625 m 903 347 l 1250 347 l 1250 278 l 903 278 l 903 347 m 0 1319 l 278 1319 l 278 1250 l 0 1250 l 0 1319 m 833 208 l 972 208 l 972 139 l 833 139 l 833 208 m 139 1042 l 278 1042 l 278 972 l 139 972 l 139 1042 m 139 1181 l 278 1181 l 278 1111 l 139 1111 l 139 1181 m 139 903 l 278 903 l 278 833 l 139 833 l 139 903 m 1181 486 l 1319 486 l 1319 417 l 1181 417 l 1181 486 z "},"¾":{"ha":1528,"x_min":0,"x_max":1319,"o":"m 903 1389 l 1181 1389 l 1181 1250 l 903 1250 l 903 1389 m 764 1181 l 1042 1181 l 1042 1042 l 764 1042 l 764 1181 m 625 972 l 903 972 l 903 833 l 625 833 l 625 972 m 208 347 l 486 347 l 486 208 l 208 208 l 208 347 m 486 764 l 764 764 l 764 625 l 486 625 l 486 764 m 69 139 l 347 139 l 347 0 l 69 0 l 69 139 m 347 556 l 625 556 l 625 417 l 347 417 l 347 556 m 833 347 l 1319 347 l 1319 278 l 833 278 l 833 347 m 69 1389 l 417 1389 l 417 1319 l 69 1319 l 69 1389 m 139 833 l 417 833 l 417 764 l 139 764 l 139 833 m 208 1111 l 417 1111 l 417 1042 l 208 1042 l 208 1111 m 1181 486 l 1319 486 l 1319 417 l 1181 417 l 1181 486 m 347 972 l 486 972 l 486 903 l 347 903 l 347 972 m 347 1250 l 486 1250 l 486 1181 l 347 1181 l 347 1250 m 1181 208 l 1319 208 l 1319 139 l 1181 139 l 1181 208 m 1181 69 l 1319 69 l 1319 0 l 1181 0 l 1181 69 m 0 1250 l 139 1250 l 139 1181 l 0 1181 l 0 1250 m 833 625 l 972 625 l 972 556 l 833 556 l 833 625 m 1181 625 l 1319 625 l 1319 556 l 1181 556 l 1181 625 m 0 972 l 139 972 l 139 903 l 0 903 l 0 972 m 833 486 l 972 486 l 972 417 l 833 417 l 833 486 z "},"¿":{"ha":1319,"x_min":0,"x_max":1111,"o":"m 139 139 l 972 139 l 972 0 l 139 0 l 139 139 m 139 764 l 556 764 l 556 625 l 139 625 l 139 764 m 417 1389 l 694 1389 l 694 1250 l 417 1250 l 417 1389 m 417 972 l 694 972 l 694 833 l 417 833 l 417 972 m 0 347 l 278 347 l 278 208 l 0 208 l 0 347 m 833 347 l 1111 347 l 1111 208 l 833 208 l 833 347 m 0 556 l 278 556 l 278 417 l 0 417 l 0 556 z "},"À":{"ha":1319,"x_min":0,"x_max":1111,"o":"m 139 1389 l 972 1389 l 972 1250 l 139 1250 l 139 1389 m 347 764 l 764 764 l 764 625 l 347 625 l 347 764 m 347 1875 l 625 1875 l 625 1736 l 347 1736 l 347 1875 m 0 139 l 278 139 l 278 0 l 0 0 l 0 139 m 833 139 l 1111 139 l 1111 0 l 833 0 l 833 139 m 417 1667 l 694 1667 l 694 1528 l 417 1528 l 417 1667 m 0 764 l 278 764 l 278 625 l 0 625 l 0 764 m 0 1181 l 278 1181 l 278 1042 l 0 1042 l 0 1181 m 833 764 l 1111 764 l 1111 625 l 833 625 l 833 764 m 833 1181 l 1111 1181 l 1111 1042 l 833 1042 l 833 1181 m 0 972 l 278 972 l 278 833 l 0 833 l 0 972 m 0 556 l 278 556 l 278 417 l 0 417 l 0 556 m 833 556 l 1111 556 l 1111 417 l 833 417 l 833 556 m 833 972 l 1111 972 l 1111 833 l 833 833 l 833 972 m 0 347 l 278 347 l 278 208 l 0 208 l 0 347 m 833 347 l 1111 347 l 1111 208 l 833 208 l 833 347 z "},"Á":{"ha":1319,"x_min":0,"x_max":1111,"o":"m 139 1389 l 972 1389 l 972 1250 l 139 1250 l 139 1389 m 347 764 l 764 764 l 764 625 l 347 625 l 347 764 m 486 1875 l 764 1875 l 764 1736 l 486 1736 l 486 1875 m 0 139 l 278 139 l 278 0 l 0 0 l 0 139 m 833 139 l 1111 139 l 1111 0 l 833 0 l 833 139 m 417 1667 l 694 1667 l 694 1528 l 417 1528 l 417 1667 m 0 764 l 278 764 l 278 625 l 0 625 l 0 764 m 0 1181 l 278 1181 l 278 1042 l 0 1042 l 0 1181 m 833 764 l 1111 764 l 1111 625 l 833 625 l 833 764 m 833 1181 l 1111 1181 l 1111 1042 l 833 1042 l 833 1181 m 0 972 l 278 972 l 278 833 l 0 833 l 0 972 m 0 556 l 278 556 l 278 417 l 0 417 l 0 556 m 833 556 l 1111 556 l 1111 417 l 833 417 l 833 556 m 833 972 l 1111 972 l 1111 833 l 833 833 l 833 972 m 0 347 l 278 347 l 278 208 l 0 208 l 0 347 m 833 347 l 1111 347 l 1111 208 l 833 208 l 833 347 z "},"Â":{"ha":1319,"x_min":0,"x_max":1111,"o":"m 139 1389 l 972 1389 l 972 1250 l 139 1250 l 139 1389 m 347 764 l 764 764 l 764 625 l 347 625 l 347 764 m 625 1667 l 903 1667 l 903 1528 l 625 1528 l 625 1667 m 0 972 l 278 972 l 278 833 l 0 833 l 0 972 m 833 347 l 1111 347 l 1111 208 l 833 208 l 833 347 m 833 972 l 1111 972 l 1111 833 l 833 833 l 833 972 m 0 139 l 278 139 l 278 0 l 0 0 l 0 139 m 833 139 l 1111 139 l 1111 0 l 833 0 l 833 139 m 208 1667 l 486 1667 l 486 1528 l 208 1528 l 208 1667 m 0 764 l 278 764 l 278 625 l 0 625 l 0 764 m 833 764 l 1111 764 l 1111 625 l 833 625 l 833 764 m 417 1875 l 694 1875 l 694 1736 l 417 1736 l 417 1875 m 0 1181 l 278 1181 l 278 1042 l 0 1042 l 0 1181 m 833 1181 l 1111 1181 l 1111 1042 l 833 1042 l 833 1181 m 0 556 l 278 556 l 278 417 l 0 417 l 0 556 m 833 556 l 1111 556 l 1111 417 l 833 417 l 833 556 m 0 347 l 278 347 l 278 208 l 0 208 l 0 347 z "},"Ã":{"ha":1319,"x_min":0,"x_max":1111,"o":"m 139 1389 l 972 1389 l 972 1250 l 139 1250 l 139 1389 m 347 764 l 764 764 l 764 625 l 347 625 l 347 764 m 0 972 l 278 972 l 278 833 l 0 833 l 0 972 m 833 972 l 1111 972 l 1111 833 l 833 833 l 833 972 m 0 139 l 278 139 l 278 0 l 0 0 l 0 139 m 833 139 l 1111 139 l 1111 0 l 833 0 l 833 139 m 625 1667 l 903 1667 l 903 1528 l 625 1528 l 625 1667 m 0 764 l 278 764 l 278 625 l 0 625 l 0 764 m 833 764 l 1111 764 l 1111 625 l 833 625 l 833 764 m 417 1875 l 694 1875 l 694 1736 l 417 1736 l 417 1875 m 0 1181 l 278 1181 l 278 1042 l 0 1042 l 0 1181 m 833 1181 l 1111 1181 l 1111 1042 l 833 1042 l 833 1181 m 0 556 l 278 556 l 278 417 l 0 417 l 0 556 m 833 556 l 1111 556 l 1111 417 l 833 417 l 833 556 m 0 347 l 278 347 l 278 208 l 0 208 l 0 347 m 833 347 l 1111 347 l 1111 208 l 833 208 l 833 347 m 833 1875 l 1042 1875 l 1042 1736 l 833 1736 l 833 1875 m 278 1667 l 486 1667 l 486 1528 l 278 1528 l 278 1667 z "},"Ä":{"ha":1319,"x_min":0,"x_max":1111,"o":"m 139 1389 l 972 1389 l 972 1250 l 139 1250 l 139 1389 m 347 764 l 764 764 l 764 625 l 347 625 l 347 764 m 0 1181 l 278 1181 l 278 1042 l 0 1042 l 0 1181 m 833 139 l 1111 139 l 1111 0 l 833 0 l 833 139 m 0 764 l 278 764 l 278 625 l 0 625 l 0 764 m 833 1181 l 1111 1181 l 1111 1042 l 833 1042 l 833 1181 m 833 764 l 1111 764 l 1111 625 l 833 625 l 833 764 m 0 972 l 278 972 l 278 833 l 0 833 l 0 972 m 0 556 l 278 556 l 278 417 l 0 417 l 0 556 m 833 556 l 1111 556 l 1111 417 l 833 417 l 833 556 m 0 347 l 278 347 l 278 208 l 0 208 l 0 347 m 833 972 l 1111 972 l 1111 833 l 833 833 l 833 972 m 833 347 l 1111 347 l 1111 208 l 833 208 l 833 347 m 0 139 l 278 139 l 278 0 l 0 0 l 0 139 m 278 1667 l 486 1667 l 486 1528 l 278 1528 l 278 1667 m 625 1667 l 833 1667 l 833 1528 l 625 1528 l 625 1667 z "},"Å":{"ha":1319,"x_min":0,"x_max":1111,"o":"m 139 1389 l 972 1389 l 972 1250 l 139 1250 l 139 1389 m 347 764 l 764 764 l 764 625 l 347 625 l 347 764 m 833 972 l 1111 972 l 1111 833 l 833 833 l 833 972 m 0 139 l 278 139 l 278 0 l 0 0 l 0 139 m 833 139 l 1111 139 l 1111 0 l 833 0 l 833 139 m 0 764 l 278 764 l 278 625 l 0 625 l 0 764 m 417 1806 l 694 1806 l 694 1667 l 417 1667 l 417 1806 m 0 1181 l 278 1181 l 278 1042 l 0 1042 l 0 1181 m 833 764 l 1111 764 l 1111 625 l 833 625 l 833 764 m 833 1181 l 1111 1181 l 1111 1042 l 833 1042 l 833 1181 m 0 556 l 278 556 l 278 417 l 0 417 l 0 556 m 833 556 l 1111 556 l 1111 417 l 833 417 l 833 556 m 0 972 l 278 972 l 278 833 l 0 833 l 0 972 m 0 347 l 278 347 l 278 208 l 0 208 l 0 347 m 833 347 l 1111 347 l 1111 208 l 833 208 l 833 347 m 278 1597 l 486 1597 l 486 1458 l 278 1458 l 278 1597 m 625 1597 l 833 1597 l 833 1458 l 625 1458 l 625 1597 z "},"Æ":{"ha":1736,"x_min":0,"x_max":1528,"o":"m 139 1389 l 903 1389 l 903 1250 l 139 1250 l 139 1389 m 972 139 l 1528 139 l 1528 0 l 972 0 l 972 139 m 972 1389 l 1528 1389 l 1528 1250 l 972 1250 l 972 1389 m 0 1181 l 278 1181 l 278 1042 l 0 1042 l 0 1181 m 0 764 l 278 764 l 278 625 l 0 625 l 0 764 m 625 139 l 903 139 l 903 0 l 625 0 l 625 139 m 0 139 l 278 139 l 278 0 l 0 0 l 0 139 m 625 1181 l 903 1181 l 903 1042 l 625 1042 l 625 1181 m 625 764 l 903 764 l 903 625 l 625 625 l 625 764 m 0 972 l 278 972 l 278 833 l 0 833 l 0 972 m 0 556 l 278 556 l 278 417 l 0 417 l 0 556 m 625 556 l 903 556 l 903 417 l 625 417 l 625 556 m 625 972 l 903 972 l 903 833 l 625 833 l 625 972 m 0 347 l 278 347 l 278 208 l 0 208 l 0 347 m 625 347 l 903 347 l 903 208 l 625 208 l 625 347 m 347 764 l 556 764 l 556 625 l 347 625 l 347 764 m 972 764 l 1181 764 l 1181 625 l 972 625 l 972 764 z "},"Ç":{"ha":1319,"x_min":0,"x_max":1111,"o":"m 139 1389 l 972 1389 l 972 1250 l 139 1250 l 139 1389 m 139 139 l 972 139 l 972 0 l 139 0 l 139 139 m 0 347 l 278 347 l 278 208 l 0 208 l 0 347 m 833 347 l 1111 347 l 1111 208 l 833 208 l 833 347 m 833 1181 l 1111 1181 l 1111 1042 l 833 1042 l 833 1181 m 0 972 l 278 972 l 278 833 l 0 833 l 0 972 m 0 1181 l 278 1181 l 278 1042 l 0 1042 l 0 1181 m 0 764 l 278 764 l 278 625 l 0 625 l 0 764 m 417 -69 l 694 -69 l 694 -208 l 417 -208 l 417 -69 m 0 556 l 278 556 l 278 417 l 0 417 l 0 556 m 278 -278 l 556 -278 l 556 -417 l 278 -417 l 278 -278 z "},"È":{"ha":1319,"x_min":0,"x_max":1111,"o":"m 347 1389 l 1111 1389 l 1111 1250 l 347 1250 l 347 1389 m 347 139 l 1111 139 l 1111 0 l 347 0 l 347 139 m 347 764 l 764 764 l 764 625 l 347 625 l 347 764 m 347 1875 l 625 1875 l 625 1736 l 347 1736 l 347 1875 m 0 1389 l 278 1389 l 278 1250 l 0 1250 l 0 1389 m 0 556 l 278 556 l 278 417 l 0 417 l 0 556 m 417 1667 l 694 1667 l 694 1528 l 417 1528 l 417 1667 m 0 347 l 278 347 l 278 208 l 0 208 l 0 347 m 0 1181 l 278 1181 l 278 1042 l 0 1042 l 0 1181 m 0 139 l 278 139 l 278 0 l 0 0 l 0 139 m 0 972 l 278 972 l 278 833 l 0 833 l 0 972 m 0 764 l 278 764 l 278 625 l 0 625 l 0 764 z "},"É":{"ha":1319,"x_min":0,"x_max":1111,"o":"m 347 1389 l 1111 1389 l 1111 1250 l 347 1250 l 347 1389 m 347 139 l 1111 139 l 1111 0 l 347 0 l 347 139 m 347 764 l 764 764 l 764 625 l 347 625 l 347 764 m 486 1875 l 764 1875 l 764 1736 l 486 1736 l 486 1875 m 0 1389 l 278 1389 l 278 1250 l 0 1250 l 0 1389 m 417 1667 l 694 1667 l 694 1528 l 417 1528 l 417 1667 m 0 556 l 278 556 l 278 417 l 0 417 l 0 556 m 0 1181 l 278 1181 l 278 1042 l 0 1042 l 0 1181 m 0 347 l 278 347 l 278 208 l 0 208 l 0 347 m 0 972 l 278 972 l 278 833 l 0 833 l 0 972 m 0 139 l 278 139 l 278 0 l 0 0 l 0 139 m 0 764 l 278 764 l 278 625 l 0 625 l 0 764 z "},"Ê":{"ha":1319,"x_min":0,"x_max":1111,"o":"m 347 1389 l 1111 1389 l 1111 1250 l 347 1250 l 347 1389 m 347 139 l 1111 139 l 1111 0 l 347 0 l 347 139 m 347 764 l 764 764 l 764 625 l 347 625 l 347 764 m 417 1875 l 694 1875 l 694 1736 l 417 1736 l 417 1875 m 625 1667 l 903 1667 l 903 1528 l 625 1528 l 625 1667 m 0 764 l 278 764 l 278 625 l 0 625 l 0 764 m 208 1667 l 486 1667 l 486 1528 l 208 1528 l 208 1667 m 0 556 l 278 556 l 278 417 l 0 417 l 0 556 m 0 1389 l 278 1389 l 278 1250 l 0 1250 l 0 1389 m 0 347 l 278 347 l 278 208 l 0 208 l 0 347 m 0 1181 l 278 1181 l 278 1042 l 0 1042 l 0 1181 m 0 139 l 278 139 l 278 0 l 0 0 l 0 139 m 0 972 l 278 972 l 278 833 l 0 833 l 0 972 z "},"Ë":{"ha":1319,"x_min":0,"x_max":1111,"o":"m 347 1389 l 1111 1389 l 1111 1250 l 347 1250 l 347 1389 m 347 139 l 1111 139 l 1111 0 l 347 0 l 347 139 m 347 764 l 764 764 l 764 625 l 347 625 l 347 764 m 0 1389 l 278 1389 l 278 1250 l 0 1250 l 0 1389 m 0 556 l 278 556 l 278 417 l 0 417 l 0 556 m 0 1181 l 278 1181 l 278 1042 l 0 1042 l 0 1181 m 0 347 l 278 347 l 278 208 l 0 208 l 0 347 m 0 139 l 278 139 l 278 0 l 0 0 l 0 139 m 0 972 l 278 972 l 278 833 l 0 833 l 0 972 m 0 764 l 278 764 l 278 625 l 0 625 l 0 764 m 278 1667 l 486 1667 l 486 1528 l 278 1528 l 278 1667 m 625 1667 l 833 1667 l 833 1528 l 625 1528 l 625 1667 z "},"Ì":{"ha":1319,"x_min":0,"x_max":1111,"o":"m 0 1389 l 347 1389 l 347 1250 l 0 1250 l 0 1389 m 0 139 l 347 139 l 347 0 l 0 0 l 0 139 m 764 1389 l 1111 1389 l 1111 1250 l 764 1250 l 764 1389 m 764 139 l 1111 139 l 1111 0 l 764 0 l 764 139 m 417 1667 l 694 1667 l 694 1528 l 417 1528 l 417 1667 m 417 556 l 694 556 l 694 417 l 417 417 l 417 556 m 417 347 l 694 347 l 694 208 l 417 208 l 417 347 m 347 1875 l 625 1875 l 625 1736 l 347 1736 l 347 1875 m 417 1181 l 694 1181 l 694 1042 l 417 1042 l 417 1181 m 417 139 l 694 139 l 694 0 l 417 0 l 417 139 m 417 972 l 694 972 l 694 833 l 417 833 l 417 972 m 417 1389 l 694 1389 l 694 1250 l 417 1250 l 417 1389 m 417 764 l 694 764 l 694 625 l 417 625 l 417 764 z "},"Í":{"ha":1319,"x_min":0,"x_max":1111,"o":"m 0 1389 l 347 1389 l 347 1250 l 0 1250 l 0 1389 m 0 139 l 347 139 l 347 0 l 0 0 l 0 139 m 764 139 l 1111 139 l 1111 0 l 764 0 l 764 139 m 764 1389 l 1111 1389 l 1111 1250 l 764 1250 l 764 1389 m 417 1667 l 694 1667 l 694 1528 l 417 1528 l 417 1667 m 417 556 l 694 556 l 694 417 l 417 417 l 417 556 m 417 347 l 694 347 l 694 208 l 417 208 l 417 347 m 417 1181 l 694 1181 l 694 1042 l 417 1042 l 417 1181 m 486 1875 l 764 1875 l 764 1736 l 486 1736 l 486 1875 m 417 139 l 694 139 l 694 0 l 417 0 l 417 139 m 417 972 l 694 972 l 694 833 l 417 833 l 417 972 m 417 1389 l 694 1389 l 694 1250 l 417 1250 l 417 1389 m 417 764 l 694 764 l 694 625 l 417 625 l 417 764 z "},"Î":{"ha":1319,"x_min":0,"x_max":1111,"o":"m 0 1389 l 347 1389 l 347 1250 l 0 1250 l 0 1389 m 764 1389 l 1111 1389 l 1111 1250 l 764 1250 l 764 1389 m 0 139 l 347 139 l 347 0 l 0 0 l 0 139 m 764 139 l 1111 139 l 1111 0 l 764 0 l 764 139 m 208 1667 l 486 1667 l 486 1528 l 208 1528 l 208 1667 m 417 1389 l 694 1389 l 694 1250 l 417 1250 l 417 1389 m 417 764 l 694 764 l 694 625 l 417 625 l 417 764 m 625 1667 l 903 1667 l 903 1528 l 625 1528 l 625 1667 m 417 556 l 694 556 l 694 417 l 417 417 l 417 556 m 417 347 l 694 347 l 694 208 l 417 208 l 417 347 m 417 1875 l 694 1875 l 694 1736 l 417 1736 l 417 1875 m 417 139 l 694 139 l 694 0 l 417 0 l 417 139 m 417 1181 l 694 1181 l 694 1042 l 417 1042 l 417 1181 m 417 972 l 694 972 l 694 833 l 417 833 l 417 972 z "},"Ï":{"ha":1319,"x_min":0,"x_max":1111,"o":"m 0 1389 l 347 1389 l 347 1250 l 0 1250 l 0 1389 m 0 139 l 347 139 l 347 0 l 0 0 l 0 139 m 764 139 l 1111 139 l 1111 0 l 764 0 l 764 139 m 764 1389 l 1111 1389 l 1111 1250 l 764 1250 l 764 1389 m 417 556 l 694 556 l 694 417 l 417 417 l 417 556 m 417 347 l 694 347 l 694 208 l 417 208 l 417 347 m 417 1181 l 694 1181 l 694 1042 l 417 1042 l 417 1181 m 417 139 l 694 139 l 694 0 l 417 0 l 417 139 m 417 1389 l 694 1389 l 694 1250 l 417 1250 l 417 1389 m 417 972 l 694 972 l 694 833 l 417 833 l 417 972 m 417 764 l 694 764 l 694 625 l 417 625 l 417 764 m 278 1667 l 486 1667 l 486 1528 l 278 1528 l 278 1667 m 625 1667 l 833 1667 l 833 1528 l 625 1528 l 625 1667 z "},"Ð":{"ha":1528,"x_min":0,"x_max":1319,"o":"m 556 1389 l 1181 1389 l 1181 1250 l 556 1250 l 556 1389 m 556 139 l 1181 139 l 1181 0 l 556 0 l 556 139 m 208 1389 l 486 1389 l 486 1250 l 208 1250 l 208 1389 m 1042 1181 l 1319 1181 l 1319 1042 l 1042 1042 l 1042 1181 m 556 764 l 833 764 l 833 625 l 556 625 l 556 764 m 1042 764 l 1319 764 l 1319 625 l 1042 625 l 1042 764 m 208 972 l 486 972 l 486 833 l 208 833 l 208 972 m 208 556 l 486 556 l 486 417 l 208 417 l 208 556 m 1042 972 l 1319 972 l 1319 833 l 1042 833 l 1042 972 m 1042 556 l 1319 556 l 1319 417 l 1042 417 l 1042 556 m 208 347 l 486 347 l 486 208 l 208 208 l 208 347 m 1042 347 l 1319 347 l 1319 208 l 1042 208 l 1042 347 m 208 1181 l 486 1181 l 486 1042 l 208 1042 l 208 1181 m 208 139 l 486 139 l 486 0 l 208 0 l 208 139 m 208 764 l 486 764 l 486 625 l 208 625 l 208 764 m 0 764 l 139 764 l 139 625 l 0 625 l 0 764 z "},"Ñ":{"ha":1319,"x_min":0,"x_max":1111,"o":"m 417 1875 l 694 1875 l 694 1736 l 417 1736 l 417 1875 m 625 1667 l 903 1667 l 903 1528 l 625 1528 l 625 1667 m 833 1389 l 1111 1389 l 1111 1250 l 833 1250 l 833 1389 m 833 972 l 1111 972 l 1111 833 l 833 833 l 833 972 m 0 139 l 278 139 l 278 0 l 0 0 l 0 139 m 833 139 l 1111 139 l 1111 0 l 833 0 l 833 139 m 0 764 l 278 764 l 278 625 l 0 625 l 0 764 m 0 1181 l 278 1181 l 278 1042 l 0 1042 l 0 1181 m 833 764 l 1111 764 l 1111 625 l 833 625 l 833 764 m 0 1389 l 278 1389 l 278 1250 l 0 1250 l 0 1389 m 833 1181 l 1111 1181 l 1111 1042 l 833 1042 l 833 1181 m 0 556 l 278 556 l 278 417 l 0 417 l 0 556 m 833 556 l 1111 556 l 1111 417 l 833 417 l 833 556 m 0 972 l 278 972 l 278 833 l 0 833 l 0 972 m 0 347 l 278 347 l 278 208 l 0 208 l 0 347 m 833 347 l 1111 347 l 1111 208 l 833 208 l 833 347 m 278 1667 l 486 1667 l 486 1528 l 278 1528 l 278 1667 m 833 1875 l 1042 1875 l 1042 1736 l 833 1736 l 833 1875 m 347 972 l 486 972 l 486 833 l 347 833 l 347 972 m 486 764 l 625 764 l 625 625 l 486 625 l 486 764 m 625 556 l 764 556 l 764 417 l 625 417 l 625 556 z "},"Ò":{"ha":1319,"x_min":0,"x_max":1111,"o":"m 139 1389 l 972 1389 l 972 1250 l 139 1250 l 139 1389 m 139 139 l 972 139 l 972 0 l 139 0 l 139 139 m 347 1875 l 625 1875 l 625 1736 l 347 1736 l 347 1875 m 417 1667 l 694 1667 l 694 1528 l 417 1528 l 417 1667 m 0 764 l 278 764 l 278 625 l 0 625 l 0 764 m 833 764 l 1111 764 l 1111 625 l 833 625 l 833 764 m 0 1181 l 278 1181 l 278 1042 l 0 1042 l 0 1181 m 0 556 l 278 556 l 278 417 l 0 417 l 0 556 m 833 1181 l 1111 1181 l 1111 1042 l 833 1042 l 833 1181 m 833 556 l 1111 556 l 1111 417 l 833 417 l 833 556 m 0 347 l 278 347 l 278 208 l 0 208 l 0 347 m 833 347 l 1111 347 l 1111 208 l 833 208 l 833 347 m 0 972 l 278 972 l 278 833 l 0 833 l 0 972 m 833 972 l 1111 972 l 1111 833 l 833 833 l 833 972 z "},"Ó":{"ha":1319,"x_min":0,"x_max":1111,"o":"m 139 1389 l 972 1389 l 972 1250 l 139 1250 l 139 1389 m 139 139 l 972 139 l 972 0 l 139 0 l 139 139 m 486 1875 l 764 1875 l 764 1736 l 486 1736 l 486 1875 m 417 1667 l 694 1667 l 694 1528 l 417 1528 l 417 1667 m 0 764 l 278 764 l 278 625 l 0 625 l 0 764 m 833 764 l 1111 764 l 1111 625 l 833 625 l 833 764 m 0 1181 l 278 1181 l 278 1042 l 0 1042 l 0 1181 m 0 556 l 278 556 l 278 417 l 0 417 l 0 556 m 833 1181 l 1111 1181 l 1111 1042 l 833 1042 l 833 1181 m 833 556 l 1111 556 l 1111 417 l 833 417 l 833 556 m 0 347 l 278 347 l 278 208 l 0 208 l 0 347 m 833 347 l 1111 347 l 1111 208 l 833 208 l 833 347 m 0 972 l 278 972 l 278 833 l 0 833 l 0 972 m 833 972 l 1111 972 l 1111 833 l 833 833 l 833 972 z "},"Ô":{"ha":1319,"x_min":0,"x_max":1111,"o":"m 139 1389 l 972 1389 l 972 1250 l 139 1250 l 139 1389 m 139 139 l 972 139 l 972 0 l 139 0 l 139 139 m 208 1667 l 486 1667 l 486 1528 l 208 1528 l 208 1667 m 0 972 l 278 972 l 278 833 l 0 833 l 0 972 m 833 972 l 1111 972 l 1111 833 l 833 833 l 833 972 m 0 764 l 278 764 l 278 625 l 0 625 l 0 764 m 833 764 l 1111 764 l 1111 625 l 833 625 l 833 764 m 625 1667 l 903 1667 l 903 1528 l 625 1528 l 625 1667 m 0 1181 l 278 1181 l 278 1042 l 0 1042 l 0 1181 m 0 556 l 278 556 l 278 417 l 0 417 l 0 556 m 833 556 l 1111 556 l 1111 417 l 833 417 l 833 556 m 833 1181 l 1111 1181 l 1111 1042 l 833 1042 l 833 1181 m 0 347 l 278 347 l 278 208 l 0 208 l 0 347 m 417 1875 l 694 1875 l 694 1736 l 417 1736 l 417 1875 m 833 347 l 1111 347 l 1111 208 l 833 208 l 833 347 z "},"Õ":{"ha":1319,"x_min":0,"x_max":1111,"o":"m 139 1389 l 972 1389 l 972 1250 l 139 1250 l 139 1389 m 139 139 l 972 139 l 972 0 l 139 0 l 139 139 m 625 1667 l 903 1667 l 903 1528 l 625 1528 l 625 1667 m 0 972 l 278 972 l 278 833 l 0 833 l 0 972 m 833 972 l 1111 972 l 1111 833 l 833 833 l 833 972 m 0 764 l 278 764 l 278 625 l 0 625 l 0 764 m 833 764 l 1111 764 l 1111 625 l 833 625 l 833 764 m 417 1875 l 694 1875 l 694 1736 l 417 1736 l 417 1875 m 0 1181 l 278 1181 l 278 1042 l 0 1042 l 0 1181 m 0 556 l 278 556 l 278 417 l 0 417 l 0 556 m 833 556 l 1111 556 l 1111 417 l 833 417 l 833 556 m 833 1181 l 1111 1181 l 1111 1042 l 833 1042 l 833 1181 m 0 347 l 278 347 l 278 208 l 0 208 l 0 347 m 833 347 l 1111 347 l 1111 208 l 833 208 l 833 347 m 278 1667 l 486 1667 l 486 1528 l 278 1528 l 278 1667 m 833 1875 l 1042 1875 l 1042 1736 l 833 1736 l 833 1875 z "},"Ö":{"ha":1319,"x_min":0,"x_max":1111,"o":"m 139 1389 l 972 1389 l 972 1250 l 139 1250 l 139 1389 m 139 139 l 972 139 l 972 0 l 139 0 l 139 139 m 0 972 l 278 972 l 278 833 l 0 833 l 0 972 m 0 556 l 278 556 l 278 417 l 0 417 l 0 556 m 833 556 l 1111 556 l 1111 417 l 833 417 l 833 556 m 833 972 l 1111 972 l 1111 833 l 833 833 l 833 972 m 0 347 l 278 347 l 278 208 l 0 208 l 0 347 m 833 347 l 1111 347 l 1111 208 l 833 208 l 833 347 m 0 1181 l 278 1181 l 278 1042 l 0 1042 l 0 1181 m 833 1181 l 1111 1181 l 1111 1042 l 833 1042 l 833 1181 m 0 764 l 278 764 l 278 625 l 0 625 l 0 764 m 833 764 l 1111 764 l 1111 625 l 833 625 l 833 764 m 278 1667 l 486 1667 l 486 1528 l 278 1528 l 278 1667 m 625 1667 l 833 1667 l 833 1528 l 625 1528 l 625 1667 z "},"×":{"ha":764,"x_min":0,"x_max":556,"o":"m 139 764 l 417 764 l 417 625 l 139 625 l 139 764 m 0 556 l 208 556 l 208 417 l 0 417 l 0 556 m 0 972 l 208 972 l 208 833 l 0 833 l 0 972 m 347 556 l 556 556 l 556 417 l 347 417 l 347 556 m 347 972 l 556 972 l 556 833 l 347 833 l 347 972 z "},"Ø":{"ha":1319,"x_min":0,"x_max":1111,"o":"m 139 1389 l 972 1389 l 972 1250 l 139 1250 l 139 1389 m 139 139 l 972 139 l 972 0 l 139 0 l 139 139 m 0 972 l 278 972 l 278 833 l 0 833 l 0 972 m 833 764 l 1111 764 l 1111 625 l 833 625 l 833 764 m 0 556 l 278 556 l 278 417 l 0 417 l 0 556 m 833 556 l 1111 556 l 1111 417 l 833 417 l 833 556 m 833 972 l 1111 972 l 1111 833 l 833 833 l 833 972 m 0 347 l 278 347 l 278 208 l 0 208 l 0 347 m 833 347 l 1111 347 l 1111 208 l 833 208 l 833 347 m 0 1181 l 278 1181 l 278 1042 l 0 1042 l 0 1181 m 833 1181 l 1111 1181 l 1111 1042 l 833 1042 l 833 1181 m 0 764 l 278 764 l 278 625 l 0 625 l 0 764 m 486 764 l 625 764 l 625 625 l 486 625 l 486 764 m 625 972 l 764 972 l 764 833 l 625 833 l 625 972 m 347 556 l 486 556 l 486 417 l 347 417 l 347 556 z "},"Ù":{"ha":1319,"x_min":0,"x_max":1111,"o":"m 139 139 l 972 139 l 972 0 l 139 0 l 139 139 m 417 1667 l 694 1667 l 694 1528 l 417 1528 l 417 1667 m 0 1389 l 278 1389 l 278 1250 l 0 1250 l 0 1389 m 0 1181 l 278 1181 l 278 1042 l 0 1042 l 0 1181 m 0 764 l 278 764 l 278 625 l 0 625 l 0 764 m 833 764 l 1111 764 l 1111 625 l 833 625 l 833 764 m 833 1181 l 1111 1181 l 1111 1042 l 833 1042 l 833 1181 m 833 1389 l 1111 1389 l 1111 1250 l 833 1250 l 833 1389 m 0 556 l 278 556 l 278 417 l 0 417 l 0 556 m 833 556 l 1111 556 l 1111 417 l 833 417 l 833 556 m 347 1875 l 625 1875 l 625 1736 l 347 1736 l 347 1875 m 833 972 l 1111 972 l 1111 833 l 833 833 l 833 972 m 0 347 l 278 347 l 278 208 l 0 208 l 0 347 m 833 347 l 1111 347 l 1111 208 l 833 208 l 833 347 m 0 972 l 278 972 l 278 833 l 0 833 l 0 972 z "},"Ú":{"ha":1319,"x_min":0,"x_max":1111,"o":"m 139 139 l 972 139 l 972 0 l 139 0 l 139 139 m 417 1667 l 694 1667 l 694 1528 l 417 1528 l 417 1667 m 0 1389 l 278 1389 l 278 1250 l 0 1250 l 0 1389 m 0 1181 l 278 1181 l 278 1042 l 0 1042 l 0 1181 m 0 764 l 278 764 l 278 625 l 0 625 l 0 764 m 833 764 l 1111 764 l 1111 625 l 833 625 l 833 764 m 833 1181 l 1111 1181 l 1111 1042 l 833 1042 l 833 1181 m 0 556 l 278 556 l 278 417 l 0 417 l 0 556 m 833 556 l 1111 556 l 1111 417 l 833 417 l 833 556 m 486 1875 l 764 1875 l 764 1736 l 486 1736 l 486 1875 m 0 972 l 278 972 l 278 833 l 0 833 l 0 972 m 0 347 l 278 347 l 278 208 l 0 208 l 0 347 m 833 347 l 1111 347 l 1111 208 l 833 208 l 833 347 m 833 972 l 1111 972 l 1111 833 l 833 833 l 833 972 m 833 1389 l 1111 1389 l 1111 1250 l 833 1250 l 833 1389 z "},"Û":{"ha":1319,"x_min":0,"x_max":1111,"o":"m 139 139 l 972 139 l 972 0 l 139 0 l 139 139 m 208 1667 l 486 1667 l 486 1528 l 208 1528 l 208 1667 m 0 764 l 278 764 l 278 625 l 0 625 l 0 764 m 833 764 l 1111 764 l 1111 625 l 833 625 l 833 764 m 0 1181 l 278 1181 l 278 1042 l 0 1042 l 0 1181 m 0 556 l 278 556 l 278 417 l 0 417 l 0 556 m 833 1181 l 1111 1181 l 1111 1042 l 833 1042 l 833 1181 m 833 556 l 1111 556 l 1111 417 l 833 417 l 833 556 m 417 1875 l 694 1875 l 694 1736 l 417 1736 l 417 1875 m 0 1389 l 278 1389 l 278 1250 l 0 1250 l 0 1389 m 0 347 l 278 347 l 278 208 l 0 208 l 0 347 m 0 972 l 278 972 l 278 833 l 0 833 l 0 972 m 833 347 l 1111 347 l 1111 208 l 833 208 l 833 347 m 625 1667 l 903 1667 l 903 1528 l 625 1528 l 625 1667 m 833 1389 l 1111 1389 l 1111 1250 l 833 1250 l 833 1389 m 833 972 l 1111 972 l 1111 833 l 833 833 l 833 972 z "},"Ü":{"ha":1319,"x_min":0,"x_max":1111,"o":"m 139 139 l 972 139 l 972 0 l 139 0 l 139 139 m 833 1389 l 1111 1389 l 1111 1250 l 833 1250 l 833 1389 m 833 1181 l 1111 1181 l 1111 1042 l 833 1042 l 833 1181 m 833 764 l 1111 764 l 1111 625 l 833 625 l 833 764 m 0 556 l 278 556 l 278 417 l 0 417 l 0 556 m 0 972 l 278 972 l 278 833 l 0 833 l 0 972 m 833 556 l 1111 556 l 1111 417 l 833 417 l 833 556 m 0 347 l 278 347 l 278 208 l 0 208 l 0 347 m 0 1389 l 278 1389 l 278 1250 l 0 1250 l 0 1389 m 0 1181 l 278 1181 l 278 1042 l 0 1042 l 0 1181 m 833 347 l 1111 347 l 1111 208 l 833 208 l 833 347 m 833 972 l 1111 972 l 1111 833 l 833 833 l 833 972 m 0 764 l 278 764 l 278 625 l 0 625 l 0 764 m 278 1667 l 486 1667 l 486 1528 l 278 1528 l 278 1667 m 625 1667 l 833 1667 l 833 1528 l 625 1528 l 625 1667 z "},"Ý":{"ha":1319,"x_min":0,"x_max":1111,"o":"m 486 1875 l 764 1875 l 764 1736 l 486 1736 l 486 1875 m 417 1667 l 694 1667 l 694 1528 l 417 1528 l 417 1667 m 0 1389 l 278 1389 l 278 1250 l 0 1250 l 0 1389 m 139 1181 l 417 1181 l 417 1042 l 139 1042 l 139 1181 m 417 556 l 694 556 l 694 417 l 417 417 l 417 556 m 417 347 l 694 347 l 694 208 l 417 208 l 417 347 m 694 1181 l 972 1181 l 972 1042 l 694 1042 l 694 1181 m 417 139 l 694 139 l 694 0 l 417 0 l 417 139 m 833 1389 l 1111 1389 l 1111 1250 l 833 1250 l 833 1389 m 417 764 l 694 764 l 694 625 l 417 625 l 417 764 m 278 972 l 486 972 l 486 833 l 278 833 l 278 972 m 625 972 l 833 972 l 833 833 l 625 833 l 625 972 z "},"Þ":{"ha":1319,"x_min":0,"x_max":1111,"o":"m 347 1181 l 972 1181 l 972 1042 l 347 1042 l 347 1181 m 347 347 l 972 347 l 972 208 l 347 208 l 347 347 m 0 1181 l 278 1181 l 278 1042 l 0 1042 l 0 1181 m 0 556 l 278 556 l 278 417 l 0 417 l 0 556 m 0 972 l 278 972 l 278 833 l 0 833 l 0 972 m 833 556 l 1111 556 l 1111 417 l 833 417 l 833 556 m 0 1389 l 278 1389 l 278 1250 l 0 1250 l 0 1389 m 833 972 l 1111 972 l 1111 833 l 833 833 l 833 972 m 0 347 l 278 347 l 278 208 l 0 208 l 0 347 m 0 764 l 278 764 l 278 625 l 0 625 l 0 764 m 0 139 l 278 139 l 278 0 l 0 0 l 0 139 m 833 764 l 1111 764 l 1111 625 l 833 625 l 833 764 z "},"ß":{"ha":1181,"x_min":0,"x_max":972,"o":"m 0 764 l 833 764 l 833 625 l 0 625 l 0 764 m 139 1389 l 833 1389 l 833 1250 l 139 1250 l 139 1389 m 417 139 l 833 139 l 833 0 l 417 0 l 417 139 m 0 1181 l 278 1181 l 278 1042 l 0 1042 l 0 1181 m 0 972 l 278 972 l 278 833 l 0 833 l 0 972 m 0 556 l 278 556 l 278 417 l 0 417 l 0 556 m 694 972 l 972 972 l 972 833 l 694 833 l 694 972 m 694 556 l 972 556 l 972 417 l 694 417 l 694 556 m 0 347 l 278 347 l 278 208 l 0 208 l 0 347 m 694 347 l 972 347 l 972 208 l 694 208 l 694 347 m 694 1181 l 972 1181 l 972 1042 l 694 1042 l 694 1181 m 0 139 l 278 139 l 278 0 l 0 0 l 0 139 z "},"à":{"ha":1181,"x_min":0,"x_max":972,"o":"m 139 972 l 833 972 l 833 833 l 139 833 l 139 972 m 139 556 l 625 556 l 625 417 l 139 417 l 139 556 m 139 139 l 625 139 l 625 0 l 139 0 l 139 139 m 347 1250 l 625 1250 l 625 1111 l 347 1111 l 347 1250 m 0 347 l 278 347 l 278 208 l 0 208 l 0 347 m 694 347 l 972 347 l 972 208 l 694 208 l 694 347 m 694 764 l 972 764 l 972 625 l 694 625 l 694 764 m 278 1458 l 556 1458 l 556 1319 l 278 1319 l 278 1458 m 694 139 l 972 139 l 972 0 l 694 0 l 694 139 m 694 556 l 972 556 l 972 417 l 694 417 l 694 556 z "},"á":{"ha":1181,"x_min":0,"x_max":972,"o":"m 139 972 l 833 972 l 833 833 l 139 833 l 139 972 m 139 556 l 625 556 l 625 417 l 139 417 l 139 556 m 139 139 l 625 139 l 625 0 l 139 0 l 139 139 m 694 764 l 972 764 l 972 625 l 694 625 l 694 764 m 694 347 l 972 347 l 972 208 l 694 208 l 694 347 m 347 1250 l 625 1250 l 625 1111 l 347 1111 l 347 1250 m 417 1458 l 694 1458 l 694 1319 l 417 1319 l 417 1458 m 694 139 l 972 139 l 972 0 l 694 0 l 694 139 m 694 556 l 972 556 l 972 417 l 694 417 l 694 556 m 0 347 l 278 347 l 278 208 l 0 208 l 0 347 z "},"â":{"ha":1181,"x_min":0,"x_max":972,"o":"m 139 972 l 833 972 l 833 833 l 139 833 l 139 972 m 139 139 l 625 139 l 625 0 l 139 0 l 139 139 m 139 556 l 625 556 l 625 417 l 139 417 l 139 556 m 556 1250 l 833 1250 l 833 1111 l 556 1111 l 556 1250 m 0 347 l 278 347 l 278 208 l 0 208 l 0 347 m 139 1250 l 417 1250 l 417 1111 l 139 1111 l 139 1250 m 694 347 l 972 347 l 972 208 l 694 208 l 694 347 m 694 764 l 972 764 l 972 625 l 694 625 l 694 764 m 347 1458 l 625 1458 l 625 1319 l 347 1319 l 347 1458 m 694 139 l 972 139 l 972 0 l 694 0 l 694 139 m 694 556 l 972 556 l 972 417 l 694 417 l 694 556 z "},"ã":{"ha":1181,"x_min":0,"x_max":972,"o":"m 139 972 l 833 972 l 833 833 l 139 833 l 139 972 m 139 139 l 625 139 l 625 0 l 139 0 l 139 139 m 139 556 l 625 556 l 625 417 l 139 417 l 139 556 m 694 556 l 972 556 l 972 417 l 694 417 l 694 556 m 0 347 l 278 347 l 278 208 l 0 208 l 0 347 m 486 1250 l 764 1250 l 764 1111 l 486 1111 l 486 1250 m 694 347 l 972 347 l 972 208 l 694 208 l 694 347 m 694 764 l 972 764 l 972 625 l 694 625 l 694 764 m 694 139 l 972 139 l 972 0 l 694 0 l 694 139 m 278 1458 l 556 1458 l 556 1319 l 278 1319 l 278 1458 m 139 1250 l 347 1250 l 347 1111 l 139 1111 l 139 1250 m 694 1458 l 903 1458 l 903 1319 l 694 1319 l 694 1458 z "},"ä":{"ha":1181,"x_min":0,"x_max":972,"o":"m 139 972 l 833 972 l 833 833 l 139 833 l 139 972 m 139 556 l 625 556 l 625 417 l 139 417 l 139 556 m 139 139 l 625 139 l 625 0 l 139 0 l 139 139 m 694 347 l 972 347 l 972 208 l 694 208 l 694 347 m 694 764 l 972 764 l 972 625 l 694 625 l 694 764 m 694 139 l 972 139 l 972 0 l 694 0 l 694 139 m 694 556 l 972 556 l 972 417 l 694 417 l 694 556 m 0 347 l 278 347 l 278 208 l 0 208 l 0 347 m 208 1250 l 417 1250 l 417 1111 l 208 1111 l 208 1250 m 556 1250 l 764 1250 l 764 1111 l 556 1111 l 556 1250 z "},"å":{"ha":1181,"x_min":0,"x_max":972,"o":"m 139 972 l 833 972 l 833 833 l 139 833 l 139 972 m 139 139 l 625 139 l 625 0 l 139 0 l 139 139 m 139 556 l 625 556 l 625 417 l 139 417 l 139 556 m 694 556 l 972 556 l 972 417 l 694 417 l 694 556 m 0 347 l 278 347 l 278 208 l 0 208 l 0 347 m 347 1181 l 625 1181 l 625 1042 l 347 1042 l 347 1181 m 694 347 l 972 347 l 972 208 l 694 208 l 694 347 m 694 764 l 972 764 l 972 625 l 694 625 l 694 764 m 694 139 l 972 139 l 972 0 l 694 0 l 694 139 m 347 1597 l 625 1597 l 625 1458 l 347 1458 l 347 1597 m 208 1389 l 417 1389 l 417 1250 l 208 1250 l 208 1389 m 556 1389 l 764 1389 l 764 1250 l 556 1250 l 556 1389 z "},"æ":{"ha":1597,"x_min":0,"x_max":1389,"o":"m 694 972 l 1250 972 l 1250 833 l 694 833 l 694 972 m 694 139 l 1250 139 l 1250 0 l 694 0 l 694 139 m 903 556 l 1389 556 l 1389 417 l 903 417 l 903 556 m 139 972 l 556 972 l 556 833 l 139 833 l 139 972 m 139 556 l 486 556 l 486 417 l 139 417 l 139 556 m 139 139 l 486 139 l 486 0 l 139 0 l 139 139 m 1111 764 l 1389 764 l 1389 625 l 1111 625 l 1111 764 m 0 347 l 278 347 l 278 208 l 0 208 l 0 347 m 556 347 l 833 347 l 833 208 l 556 208 l 556 347 m 556 764 l 833 764 l 833 625 l 556 625 l 556 764 m 556 556 l 833 556 l 833 417 l 556 417 l 556 556 z "},"ç":{"ha":1181,"x_min":0,"x_max":972,"o":"m 139 972 l 972 972 l 972 833 l 139 833 l 139 972 m 139 139 l 972 139 l 972 0 l 139 0 l 139 139 m 0 556 l 278 556 l 278 417 l 0 417 l 0 556 m 417 -69 l 694 -69 l 694 -208 l 417 -208 l 417 -69 m 0 347 l 278 347 l 278 208 l 0 208 l 0 347 m 278 -278 l 556 -278 l 556 -417 l 278 -417 l 278 -278 m 0 764 l 278 764 l 278 625 l 0 625 l 0 764 z "},"è":{"ha":1181,"x_min":0,"x_max":972,"o":"m 139 972 l 833 972 l 833 833 l 139 833 l 139 972 m 139 139 l 833 139 l 833 0 l 139 0 l 139 139 m 347 556 l 972 556 l 972 417 l 347 417 l 347 556 m 347 1250 l 625 1250 l 625 1111 l 347 1111 l 347 1250 m 0 764 l 278 764 l 278 625 l 0 625 l 0 764 m 0 347 l 278 347 l 278 208 l 0 208 l 0 347 m 278 1458 l 556 1458 l 556 1319 l 278 1319 l 278 1458 m 694 764 l 972 764 l 972 625 l 694 625 l 694 764 m 0 556 l 278 556 l 278 417 l 0 417 l 0 556 z "},"é":{"ha":1181,"x_min":0,"x_max":972,"o":"m 139 972 l 833 972 l 833 833 l 139 833 l 139 972 m 139 139 l 833 139 l 833 0 l 139 0 l 139 139 m 347 556 l 972 556 l 972 417 l 347 417 l 347 556 m 347 1250 l 625 1250 l 625 1111 l 347 1111 l 347 1250 m 0 764 l 278 764 l 278 625 l 0 625 l 0 764 m 0 347 l 278 347 l 278 208 l 0 208 l 0 347 m 417 1458 l 694 1458 l 694 1319 l 417 1319 l 417 1458 m 694 764 l 972 764 l 972 625 l 694 625 l 694 764 m 0 556 l 278 556 l 278 417 l 0 417 l 0 556 z "},"ê":{"ha":1181,"x_min":0,"x_max":972,"o":"m 139 972 l 833 972 l 833 833 l 139 833 l 139 972 m 139 139 l 833 139 l 833 0 l 139 0 l 139 139 m 347 556 l 972 556 l 972 417 l 347 417 l 347 556 m 139 1250 l 417 1250 l 417 1111 l 139 1111 l 139 1250 m 556 1250 l 833 1250 l 833 1111 l 556 1111 l 556 1250 m 0 347 l 278 347 l 278 208 l 0 208 l 0 347 m 0 764 l 278 764 l 278 625 l 0 625 l 0 764 m 347 1458 l 625 1458 l 625 1319 l 347 1319 l 347 1458 m 694 764 l 972 764 l 972 625 l 694 625 l 694 764 m 0 556 l 278 556 l 278 417 l 0 417 l 0 556 z "},"ë":{"ha":1181,"x_min":0,"x_max":972,"o":"m 139 972 l 833 972 l 833 833 l 139 833 l 139 972 m 139 139 l 833 139 l 833 0 l 139 0 l 139 139 m 347 556 l 972 556 l 972 417 l 347 417 l 347 556 m 0 764 l 278 764 l 278 625 l 0 625 l 0 764 m 0 347 l 278 347 l 278 208 l 0 208 l 0 347 m 694 764 l 972 764 l 972 625 l 694 625 l 694 764 m 0 556 l 278 556 l 278 417 l 0 417 l 0 556 m 208 1250 l 417 1250 l 417 1111 l 208 1111 l 208 1250 m 556 1250 l 764 1250 l 764 1111 l 556 1111 l 556 1250 z "},"ì":{"ha":1319,"x_min":0,"x_max":972,"o":"m 278 1458 l 556 1458 l 556 1319 l 278 1319 l 278 1458 m 347 1250 l 625 1250 l 625 1111 l 347 1111 l 347 1250 m 0 972 l 278 972 l 278 833 l 0 833 l 0 972 m 347 764 l 625 764 l 625 625 l 347 625 l 347 764 m 694 139 l 972 139 l 972 0 l 694 0 l 694 139 m 347 972 l 625 972 l 625 833 l 347 833 l 347 972 m 347 556 l 625 556 l 625 417 l 347 417 l 347 556 m 347 347 l 625 347 l 625 208 l 347 208 l 347 347 m 0 139 l 278 139 l 278 0 l 0 0 l 0 139 m 347 139 l 625 139 l 625 0 l 347 0 l 347 139 z "},"í":{"ha":1181,"x_min":0,"x_max":972,"o":"m 417 1458 l 694 1458 l 694 1319 l 417 1319 l 417 1458 m 347 1250 l 625 1250 l 625 1111 l 347 1111 l 347 1250 m 0 972 l 278 972 l 278 833 l 0 833 l 0 972 m 347 764 l 625 764 l 625 625 l 347 625 l 347 764 m 694 139 l 972 139 l 972 0 l 694 0 l 694 139 m 347 972 l 625 972 l 625 833 l 347 833 l 347 972 m 347 556 l 625 556 l 625 417 l 347 417 l 347 556 m 347 347 l 625 347 l 625 208 l 347 208 l 347 347 m 0 139 l 278 139 l 278 0 l 0 0 l 0 139 m 347 139 l 625 139 l 625 0 l 347 0 l 347 139 z "},"î":{"ha":1181,"x_min":0,"x_max":972,"o":"m 347 1458 l 625 1458 l 625 1319 l 347 1319 l 347 1458 m 139 1250 l 417 1250 l 417 1111 l 139 1111 l 139 1250 m 556 1250 l 833 1250 l 833 1111 l 556 1111 l 556 1250 m 347 972 l 625 972 l 625 833 l 347 833 l 347 972 m 0 139 l 278 139 l 278 0 l 0 0 l 0 139 m 347 139 l 625 139 l 625 0 l 347 0 l 347 139 m 694 139 l 972 139 l 972 0 l 694 0 l 694 139 m 347 764 l 625 764 l 625 625 l 347 625 l 347 764 m 0 972 l 278 972 l 278 833 l 0 833 l 0 972 m 347 556 l 625 556 l 625 417 l 347 417 l 347 556 m 347 347 l 625 347 l 625 208 l 347 208 l 347 347 z "},"ï":{"ha":1181,"x_min":0,"x_max":972,"o":"m 0 972 l 278 972 l 278 833 l 0 833 l 0 972 m 347 972 l 625 972 l 625 833 l 347 833 l 347 972 m 347 556 l 625 556 l 625 417 l 347 417 l 347 556 m 347 347 l 625 347 l 625 208 l 347 208 l 347 347 m 347 764 l 625 764 l 625 625 l 347 625 l 347 764 m 0 139 l 278 139 l 278 0 l 0 0 l 0 139 m 347 139 l 625 139 l 625 0 l 347 0 l 347 139 m 694 139 l 972 139 l 972 0 l 694 0 l 694 139 m 208 1250 l 417 1250 l 417 1111 l 208 1111 l 208 1250 m 556 1250 l 764 1250 l 764 1111 l 556 1111 l 556 1250 z "},"ð":{"ha":1181,"x_min":0,"x_max":972,"o":"m 139 139 l 833 139 l 833 0 l 139 0 l 139 139 m 278 1389 l 833 1389 l 833 1250 l 278 1250 l 278 1389 m 139 972 l 625 972 l 625 833 l 139 833 l 139 972 m 694 1181 l 972 1181 l 972 1042 l 694 1042 l 694 1181 m 694 972 l 972 972 l 972 833 l 694 833 l 694 972 m 0 556 l 278 556 l 278 417 l 0 417 l 0 556 m 694 556 l 972 556 l 972 417 l 694 417 l 694 556 m 0 347 l 278 347 l 278 208 l 0 208 l 0 347 m 694 347 l 972 347 l 972 208 l 694 208 l 694 347 m 0 764 l 278 764 l 278 625 l 0 625 l 0 764 m 694 764 l 972 764 l 972 625 l 694 625 l 694 764 z "},"ñ":{"ha":1181,"x_min":0,"x_max":972,"o":"m 347 972 l 833 972 l 833 833 l 347 833 l 347 972 m 278 1458 l 556 1458 l 556 1319 l 278 1319 l 278 1458 m 486 1250 l 764 1250 l 764 1111 l 486 1111 l 486 1250 m 0 556 l 278 556 l 278 417 l 0 417 l 0 556 m 694 556 l 972 556 l 972 417 l 694 417 l 694 556 m 0 347 l 278 347 l 278 208 l 0 208 l 0 347 m 694 347 l 972 347 l 972 208 l 694 208 l 694 347 m 0 972 l 278 972 l 278 833 l 0 833 l 0 972 m 0 764 l 278 764 l 278 625 l 0 625 l 0 764 m 0 139 l 278 139 l 278 0 l 0 0 l 0 139 m 694 139 l 972 139 l 972 0 l 694 0 l 694 139 m 694 764 l 972 764 l 972 625 l 694 625 l 694 764 m 139 1250 l 347 1250 l 347 1111 l 139 1111 l 139 1250 m 694 1458 l 903 1458 l 903 1319 l 694 1319 l 694 1458 z "},"ò":{"ha":1181,"x_min":0,"x_max":972,"o":"m 139 972 l 833 972 l 833 833 l 139 833 l 139 972 m 139 139 l 833 139 l 833 0 l 139 0 l 139 139 m 347 1250 l 625 1250 l 625 1111 l 347 1111 l 347 1250 m 0 347 l 278 347 l 278 208 l 0 208 l 0 347 m 0 764 l 278 764 l 278 625 l 0 625 l 0 764 m 694 347 l 972 347 l 972 208 l 694 208 l 694 347 m 278 1458 l 556 1458 l 556 1319 l 278 1319 l 278 1458 m 694 764 l 972 764 l 972 625 l 694 625 l 694 764 m 0 556 l 278 556 l 278 417 l 0 417 l 0 556 m 694 556 l 972 556 l 972 417 l 694 417 l 694 556 z "},"ó":{"ha":1181,"x_min":0,"x_max":972,"o":"m 139 972 l 833 972 l 833 833 l 139 833 l 139 972 m 139 139 l 833 139 l 833 0 l 139 0 l 139 139 m 347 1250 l 625 1250 l 625 1111 l 347 1111 l 347 1250 m 0 347 l 278 347 l 278 208 l 0 208 l 0 347 m 0 764 l 278 764 l 278 625 l 0 625 l 0 764 m 694 347 l 972 347 l 972 208 l 694 208 l 694 347 m 417 1458 l 694 1458 l 694 1319 l 417 1319 l 417 1458 m 694 764 l 972 764 l 972 625 l 694 625 l 694 764 m 0 556 l 278 556 l 278 417 l 0 417 l 0 556 m 694 556 l 972 556 l 972 417 l 694 417 l 694 556 z "},"ô":{"ha":1181,"x_min":0,"x_max":972,"o":"m 139 972 l 833 972 l 833 833 l 139 833 l 139 972 m 139 139 l 833 139 l 833 0 l 139 0 l 139 139 m 0 347 l 278 347 l 278 208 l 0 208 l 0 347 m 694 347 l 972 347 l 972 208 l 694 208 l 694 347 m 139 1250 l 417 1250 l 417 1111 l 139 1111 l 139 1250 m 0 764 l 278 764 l 278 625 l 0 625 l 0 764 m 347 1458 l 625 1458 l 625 1319 l 347 1319 l 347 1458 m 556 1250 l 833 1250 l 833 1111 l 556 1111 l 556 1250 m 694 764 l 972 764 l 972 625 l 694 625 l 694 764 m 0 556 l 278 556 l 278 417 l 0 417 l 0 556 m 694 556 l 972 556 l 972 417 l 694 417 l 694 556 z "},"õ":{"ha":1181,"x_min":0,"x_max":972,"o":"m 139 972 l 833 972 l 833 833 l 139 833 l 139 972 m 139 139 l 833 139 l 833 0 l 139 0 l 139 139 m 486 1250 l 764 1250 l 764 1111 l 486 1111 l 486 1250 m 0 556 l 278 556 l 278 417 l 0 417 l 0 556 m 694 556 l 972 556 l 972 417 l 694 417 l 694 556 m 0 347 l 278 347 l 278 208 l 0 208 l 0 347 m 694 347 l 972 347 l 972 208 l 694 208 l 694 347 m 278 1458 l 556 1458 l 556 1319 l 278 1319 l 278 1458 m 0 764 l 278 764 l 278 625 l 0 625 l 0 764 m 694 764 l 972 764 l 972 625 l 694 625 l 694 764 m 139 1250 l 347 1250 l 347 1111 l 139 1111 l 139 1250 m 694 1458 l 903 1458 l 903 1319 l 694 1319 l 694 1458 z "},"ö":{"ha":1181,"x_min":0,"x_max":972,"o":"m 139 972 l 833 972 l 833 833 l 139 833 l 139 972 m 139 139 l 833 139 l 833 0 l 139 0 l 139 139 m 0 764 l 278 764 l 278 625 l 0 625 l 0 764 m 0 347 l 278 347 l 278 208 l 0 208 l 0 347 m 694 347 l 972 347 l 972 208 l 694 208 l 694 347 m 694 764 l 972 764 l 972 625 l 694 625 l 694 764 m 0 556 l 278 556 l 278 417 l 0 417 l 0 556 m 694 556 l 972 556 l 972 417 l 694 417 l 694 556 m 556 1250 l 764 1250 l 764 1111 l 556 1111 l 556 1250 m 208 1250 l 417 1250 l 417 1111 l 208 1111 l 208 1250 z "},"÷":{"ha":1181,"x_min":0,"x_max":972,"o":"m 0 764 l 972 764 l 972 625 l 0 625 l 0 764 m 347 1181 l 625 1181 l 625 1042 l 347 1042 l 347 1181 m 347 347 l 625 347 l 625 208 l 347 208 l 347 347 z "},"ø":{"ha":1181,"x_min":0,"x_max":972,"o":"m 139 972 l 833 972 l 833 833 l 139 833 l 139 972 m 139 139 l 833 139 l 833 0 l 139 0 l 139 139 m 694 347 l 972 347 l 972 208 l 694 208 l 694 347 m 0 764 l 278 764 l 278 625 l 0 625 l 0 764 m 0 556 l 278 556 l 278 417 l 0 417 l 0 556 m 694 764 l 972 764 l 972 625 l 694 625 l 694 764 m 694 556 l 972 556 l 972 417 l 694 417 l 694 556 m 0 347 l 278 347 l 278 208 l 0 208 l 0 347 m 347 347 l 486 347 l 486 208 l 347 208 l 347 347 m 417 556 l 556 556 l 556 417 l 417 417 l 417 556 m 486 764 l 625 764 l 625 625 l 486 625 l 486 764 z "},"ù":{"ha":1181,"x_min":0,"x_max":972,"o":"m 139 139 l 833 139 l 833 0 l 139 0 l 139 139 m 278 1458 l 556 1458 l 556 1319 l 278 1319 l 278 1458 m 347 1250 l 625 1250 l 625 1111 l 347 1111 l 347 1250 m 0 764 l 278 764 l 278 625 l 0 625 l 0 764 m 694 347 l 972 347 l 972 208 l 694 208 l 694 347 m 0 972 l 278 972 l 278 833 l 0 833 l 0 972 m 694 764 l 972 764 l 972 625 l 694 625 l 694 764 m 694 972 l 972 972 l 972 833 l 694 833 l 694 972 m 0 556 l 278 556 l 278 417 l 0 417 l 0 556 m 694 556 l 972 556 l 972 417 l 694 417 l 694 556 m 0 347 l 278 347 l 278 208 l 0 208 l 0 347 z "},"ú":{"ha":1181,"x_min":0,"x_max":972,"o":"m 139 139 l 833 139 l 833 0 l 139 0 l 139 139 m 417 1458 l 694 1458 l 694 1319 l 417 1319 l 417 1458 m 0 972 l 278 972 l 278 833 l 0 833 l 0 972 m 0 764 l 278 764 l 278 625 l 0 625 l 0 764 m 0 347 l 278 347 l 278 208 l 0 208 l 0 347 m 694 347 l 972 347 l 972 208 l 694 208 l 694 347 m 694 764 l 972 764 l 972 625 l 694 625 l 694 764 m 347 1250 l 625 1250 l 625 1111 l 347 1111 l 347 1250 m 694 972 l 972 972 l 972 833 l 694 833 l 694 972 m 0 556 l 278 556 l 278 417 l 0 417 l 0 556 m 694 556 l 972 556 l 972 417 l 694 417 l 694 556 z "},"û":{"ha":1181,"x_min":0,"x_max":972,"o":"m 139 139 l 833 139 l 833 0 l 139 0 l 139 139 m 347 1458 l 625 1458 l 625 1319 l 347 1319 l 347 1458 m 556 1250 l 833 1250 l 833 1111 l 556 1111 l 556 1250 m 694 972 l 972 972 l 972 833 l 694 833 l 694 972 m 0 347 l 278 347 l 278 208 l 0 208 l 0 347 m 694 347 l 972 347 l 972 208 l 694 208 l 694 347 m 139 1250 l 417 1250 l 417 1111 l 139 1111 l 139 1250 m 0 764 l 278 764 l 278 625 l 0 625 l 0 764 m 694 764 l 972 764 l 972 625 l 694 625 l 694 764 m 0 972 l 278 972 l 278 833 l 0 833 l 0 972 m 0 556 l 278 556 l 278 417 l 0 417 l 0 556 m 694 556 l 972 556 l 972 417 l 694 417 l 694 556 z "},"ü":{"ha":1181,"x_min":0,"x_max":972,"o":"m 139 139 l 833 139 l 833 0 l 139 0 l 139 139 m 0 972 l 278 972 l 278 833 l 0 833 l 0 972 m 694 972 l 972 972 l 972 833 l 694 833 l 694 972 m 694 347 l 972 347 l 972 208 l 694 208 l 694 347 m 694 764 l 972 764 l 972 625 l 694 625 l 694 764 m 0 556 l 278 556 l 278 417 l 0 417 l 0 556 m 0 764 l 278 764 l 278 625 l 0 625 l 0 764 m 694 556 l 972 556 l 972 417 l 694 417 l 694 556 m 0 347 l 278 347 l 278 208 l 0 208 l 0 347 m 208 1250 l 417 1250 l 417 1111 l 208 1111 l 208 1250 m 556 1250 l 764 1250 l 764 1111 l 556 1111 l 556 1250 z "},"ý":{"ha":1181,"x_min":0,"x_max":972,"o":"m 139 -278 l 833 -278 l 833 -417 l 139 -417 l 139 -278 m 139 139 l 625 139 l 625 0 l 139 0 l 139 139 m 417 1458 l 694 1458 l 694 1319 l 417 1319 l 417 1458 m 0 972 l 278 972 l 278 833 l 0 833 l 0 972 m 0 764 l 278 764 l 278 625 l 0 625 l 0 764 m 0 347 l 278 347 l 278 208 l 0 208 l 0 347 m 694 347 l 972 347 l 972 208 l 694 208 l 694 347 m 694 764 l 972 764 l 972 625 l 694 625 l 694 764 m 347 1250 l 625 1250 l 625 1111 l 347 1111 l 347 1250 m 694 972 l 972 972 l 972 833 l 694 833 l 694 972 m 694 139 l 972 139 l 972 0 l 694 0 l 694 139 m 0 556 l 278 556 l 278 417 l 0 417 l 0 556 m 694 -69 l 972 -69 l 972 -208 l 694 -208 l 694 -69 m 694 556 l 972 556 l 972 417 l 694 417 l 694 556 z "},"þ":{"ha":1181,"x_min":0,"x_max":972,"o":"m 347 972 l 833 972 l 833 833 l 347 833 l 347 972 m 347 139 l 833 139 l 833 0 l 347 0 l 347 139 m 0 972 l 278 972 l 278 833 l 0 833 l 0 972 m 0 347 l 278 347 l 278 208 l 0 208 l 0 347 m 694 347 l 972 347 l 972 208 l 694 208 l 694 347 m 0 1181 l 278 1181 l 278 1042 l 0 1042 l 0 1181 m 0 764 l 278 764 l 278 625 l 0 625 l 0 764 m 0 139 l 278 139 l 278 0 l 0 0 l 0 139 m 694 764 l 972 764 l 972 625 l 694 625 l 694 764 m 0 1389 l 278 1389 l 278 1250 l 0 1250 l 0 1389 m 0 -69 l 278 -69 l 278 -208 l 0 -208 l 0 -69 m 0 556 l 278 556 l 278 417 l 0 417 l 0 556 m 0 -278 l 278 -278 l 278 -417 l 0 -417 l 0 -278 m 694 556 l 972 556 l 972 417 l 694 417 l 694 556 z "},"ÿ":{"ha":1181,"x_min":0,"x_max":972,"o":"m 139 -278 l 833 -278 l 833 -417 l 139 -417 l 139 -278 m 139 139 l 625 139 l 625 0 l 139 0 l 139 139 m 0 972 l 278 972 l 278 833 l 0 833 l 0 972 m 694 972 l 972 972 l 972 833 l 694 833 l 694 972 m 694 347 l 972 347 l 972 208 l 694 208 l 694 347 m 694 764 l 972 764 l 972 625 l 694 625 l 694 764 m 0 556 l 278 556 l 278 417 l 0 417 l 0 556 m 694 139 l 972 139 l 972 0 l 694 0 l 694 139 m 694 -69 l 972 -69 l 972 -208 l 694 -208 l 694 -69 m 0 764 l 278 764 l 278 625 l 0 625 l 0 764 m 694 556 l 972 556 l 972 417 l 694 417 l 694 556 m 0 347 l 278 347 l 278 208 l 0 208 l 0 347 m 208 1250 l 417 1250 l 417 1111 l 208 1111 l 208 1250 m 556 1250 l 764 1250 l 764 1111 l 556 1111 l 556 1250 z "},"Œ":{"ha":1597,"x_min":0,"x_max":1389,"o":"m 139 1389 l 1389 1389 l 1389 1250 l 139 1250 l 139 1389 m 139 139 l 1389 139 l 1389 0 l 139 0 l 139 139 m 903 764 l 1250 764 l 1250 625 l 903 625 l 903 764 m 0 1181 l 278 1181 l 278 1042 l 0 1042 l 0 1181 m 0 764 l 278 764 l 278 625 l 0 625 l 0 764 m 556 764 l 833 764 l 833 625 l 556 625 l 556 764 m 556 1181 l 833 1181 l 833 1042 l 556 1042 l 556 1181 m 0 556 l 278 556 l 278 417 l 0 417 l 0 556 m 556 556 l 833 556 l 833 417 l 556 417 l 556 556 m 0 347 l 278 347 l 278 208 l 0 208 l 0 347 m 0 972 l 278 972 l 278 833 l 0 833 l 0 972 m 556 347 l 833 347 l 833 208 l 556 208 l 556 347 m 556 972 l 833 972 l 833 833 l 556 833 l 556 972 z "},"œ":{"ha":1597,"x_min":0,"x_max":1389,"o":"m 694 972 l 1250 972 l 1250 833 l 694 833 l 694 972 m 694 139 l 1250 139 l 1250 0 l 694 0 l 694 139 m 903 556 l 1389 556 l 1389 417 l 903 417 l 903 556 m 139 972 l 556 972 l 556 833 l 139 833 l 139 972 m 139 139 l 556 139 l 556 0 l 139 0 l 139 139 m 556 764 l 833 764 l 833 625 l 556 625 l 556 764 m 1111 764 l 1389 764 l 1389 625 l 1111 625 l 1111 764 m 0 347 l 278 347 l 278 208 l 0 208 l 0 347 m 556 347 l 833 347 l 833 208 l 556 208 l 556 347 m 0 556 l 278 556 l 278 417 l 0 417 l 0 556 m 0 764 l 278 764 l 278 625 l 0 625 l 0 764 m 556 556 l 833 556 l 833 417 l 556 417 l 556 556 z "},"Š":{"ha":1319,"x_min":0,"x_max":1111,"o":"m 139 1389 l 1111 1389 l 1111 1250 l 139 1250 l 139 1389 m 0 139 l 972 139 l 972 0 l 0 0 l 0 139 m 139 764 l 972 764 l 972 625 l 139 625 l 139 764 m 417 1667 l 694 1667 l 694 1528 l 417 1528 l 417 1667 m 833 556 l 1111 556 l 1111 417 l 833 417 l 833 556 m 833 347 l 1111 347 l 1111 208 l 833 208 l 833 347 m 0 1181 l 278 1181 l 278 1042 l 0 1042 l 0 1181 m 0 972 l 278 972 l 278 833 l 0 833 l 0 972 m 278 1875 l 486 1875 l 486 1736 l 278 1736 l 278 1875 m 625 1875 l 833 1875 l 833 1736 l 625 1736 l 625 1875 z "},"š":{"ha":1181,"x_min":0,"x_max":972,"o":"m 139 972 l 972 972 l 972 833 l 139 833 l 139 972 m 0 139 l 833 139 l 833 0 l 0 0 l 0 139 m 139 556 l 833 556 l 833 417 l 139 417 l 139 556 m 347 1250 l 625 1250 l 625 1111 l 347 1111 l 347 1250 m 694 347 l 972 347 l 972 208 l 694 208 l 694 347 m 0 764 l 278 764 l 278 625 l 0 625 l 0 764 m 208 1458 l 417 1458 l 417 1319 l 208 1319 l 208 1458 m 556 1458 l 764 1458 l 764 1319 l 556 1319 l 556 1458 z "},"Ÿ":{"ha":1319,"x_min":0,"x_max":1111,"o":"m 0 1389 l 278 1389 l 278 1250 l 0 1250 l 0 1389 m 833 1389 l 1111 1389 l 1111 1250 l 833 1250 l 833 1389 m 694 1181 l 972 1181 l 972 1042 l 694 1042 l 694 1181 m 417 556 l 694 556 l 694 417 l 417 417 l 417 556 m 417 347 l 694 347 l 694 208 l 417 208 l 417 347 m 417 139 l 694 139 l 694 0 l 417 0 l 417 139 m 139 1181 l 417 1181 l 417 1042 l 139 1042 l 139 1181 m 417 764 l 694 764 l 694 625 l 417 625 l 417 764 m 278 972 l 486 972 l 486 833 l 278 833 l 278 972 m 625 972 l 833 972 l 833 833 l 625 833 l 625 972 m 208 1667 l 417 1667 l 417 1528 l 208 1528 l 208 1667 m 694 1667 l 903 1667 l 903 1528 l 694 1528 l 694 1667 z "},"Ž":{"ha":1319,"x_min":0,"x_max":1111,"o":"m 0 1389 l 833 1389 l 833 1250 l 0 1250 l 0 1389 m 347 139 l 1111 139 l 1111 0 l 347 0 l 347 139 m 417 1667 l 694 1667 l 694 1528 l 417 1528 l 417 1667 m 417 764 l 694 764 l 694 625 l 417 625 l 417 764 m 278 556 l 556 556 l 556 417 l 278 417 l 278 556 m 139 347 l 417 347 l 417 208 l 139 208 l 139 347 m 0 139 l 278 139 l 278 0 l 0 0 l 0 139 m 694 1181 l 972 1181 l 972 1042 l 694 1042 l 694 1181 m 556 972 l 833 972 l 833 833 l 556 833 l 556 972 m 903 1389 l 1111 1389 l 1111 1250 l 903 1250 l 903 1389 m 278 1875 l 486 1875 l 486 1736 l 278 1736 l 278 1875 m 625 1875 l 833 1875 l 833 1736 l 625 1736 l 625 1875 z "},"ž":{"ha":1181,"x_min":0,"x_max":972,"o":"m 347 1250 l 625 1250 l 625 1111 l 347 1111 l 347 1250 m 0 972 l 278 972 l 278 833 l 0 833 l 0 972 m 0 764 l 278 764 l 278 625 l 0 625 l 0 764 m 0 347 l 278 347 l 278 208 l 0 208 l 0 347 m 694 764 l 972 764 l 972 625 l 694 625 l 694 764 m 694 347 l 972 347 l 972 208 l 694 208 l 694 347 m 0 139 l 278 139 l 278 0 l 0 0 l 0 139 m 694 972 l 972 972 l 972 833 l 694 833 l 694 972 m 0 556 l 278 556 l 278 417 l 0 417 l 0 556 m 694 139 l 972 139 l 972 0 l 694 0 l 694 139 m 694 556 l 972 556 l 972 417 l 694 417 l 694 556 m 208 1458 l 417 1458 l 417 1319 l 208 1319 l 208 1458 m 556 1458 l 764 1458 l 764 1319 l 556 1319 l 556 1458 m 347 347 l 486 347 l 486 208 l 347 208 l 347 347 m 486 556 l 625 556 l 625 417 l 486 417 l 486 556 z "},"ƒ":{"ha":1181,"x_min":0,"x_max":972,"o":"m 347 1389 l 833 1389 l 833 1250 l 347 1250 l 347 1389 m 694 1181 l 972 1181 l 972 1042 l 694 1042 l 694 1181 m 208 764 l 486 764 l 486 625 l 208 625 l 208 764 m 208 139 l 486 139 l 486 0 l 208 0 l 208 139 m 69 -69 l 347 -69 l 347 -208 l 69 -208 l 69 -69 m 556 764 l 833 764 l 833 625 l 556 625 l 556 764 m 208 1181 l 486 1181 l 486 1042 l 208 1042 l 208 1181 m 208 556 l 486 556 l 486 417 l 208 417 l 208 556 m 208 972 l 486 972 l 486 833 l 208 833 l 208 972 m 208 347 l 486 347 l 486 208 l 208 208 l 208 347 m 0 764 l 139 764 l 139 625 l 0 625 l 0 764 z "},"ˆ":{"ha":1181,"x_min":0,"x_max":972,"o":"m 347 1389 l 625 1389 l 625 1250 l 347 1250 l 347 1389 m 139 1181 l 417 1181 l 417 1042 l 139 1042 l 139 1181 m 556 1181 l 833 1181 l 833 1042 l 556 1042 l 556 1181 m 0 972 l 278 972 l 278 833 l 0 833 l 0 972 m 694 972 l 972 972 l 972 833 l 694 833 l 694 972 z "},"˜":{"ha":1181,"x_min":0,"x_max":972,"o":"m 139 1389 l 556 1389 l 556 1250 l 139 1250 l 139 1389 m 417 1181 l 833 1181 l 833 1042 l 417 1042 l 417 1181 m 764 1389 l 972 1389 l 972 1250 l 764 1250 l 764 1389 m 0 1181 l 208 1181 l 208 1042 l 0 1042 l 0 1181 z "},"$":{"ha":1319,"x_min":0,"x_max":1111,"o":"m 139 1389 l 1111 1389 l 1111 1250 l 139 1250 l 139 1389 m 0 139 l 972 139 l 972 0 l 0 0 l 0 139 m 139 764 l 972 764 l 972 625 l 139 625 l 139 764 m 0 1181 l 278 1181 l 278 1042 l 0 1042 l 0 1181 m 0 972 l 278 972 l 278 833 l 0 833 l 0 972 m 833 556 l 1111 556 l 1111 417 l 833 417 l 833 556 m 833 347 l 1111 347 l 1111 208 l 833 208 l 833 347 m 486 1181 l 625 1181 l 625 1042 l 486 1042 l 486 1181 m 486 -69 l 625 -69 l 625 -208 l 486 -208 l 486 -69 m 486 556 l 625 556 l 625 417 l 486 417 l 486 556 m 486 347 l 625 347 l 625 208 l 486 208 l 486 347 m 486 972 l 625 972 l 625 833 l 486 833 l 486 972 m 486 1597 l 625 1597 l 625 1458 l 486 1458 l 486 1597 z "},"`":{"ha":556,"x_min":0,"x_max":347,"o":"m 0 1597 l 278 1597 l 278 1458 l 0 1458 l 0 1597 m 69 1389 l 347 1389 l 347 1250 l 69 1250 l 69 1389 z "},"^":{"ha":1181,"x_min":0,"x_max":972,"o":"m 347 1389 l 625 1389 l 625 1250 l 347 1250 l 347 1389 m 139 1181 l 417 1181 l 417 1042 l 139 1042 l 139 1181 m 556 1181 l 833 1181 l 833 1042 l 556 1042 l 556 1181 m 0 972 l 278 972 l 278 833 l 0 833 l 0 972 m 694 972 l 972 972 l 972 833 l 694 833 l 694 972 z "},"!":{"ha":486,"x_min":0,"x_max":278,"o":"m 0 1389 l 278 1389 l 278 1250 l 0 1250 l 0 1389 m 0 1181 l 278 1181 l 278 1042 l 0 1042 l 0 1181 m 0 972 l 278 972 l 278 833 l 0 833 l 0 972 m 0 556 l 278 556 l 278 417 l 0 417 l 0 556 m 0 139 l 278 139 l 278 0 l 0 0 l 0 139 m 0 764 l 278 764 l 278 625 l 0 625 l 0 764 z "},"\"":{"ha":764,"x_min":0,"x_max":556,"o":"m 0 1389 l 208 1389 l 208 1250 l 0 1250 l 0 1389 m 347 1181 l 556 1181 l 556 1042 l 347 1042 l 347 1181 m 347 1389 l 556 1389 l 556 1250 l 347 1250 l 347 1389 m 0 972 l 208 972 l 208 833 l 0 833 l 0 972 m 0 1181 l 208 1181 l 208 1042 l 0 1042 l 0 1181 m 347 972 l 556 972 l 556 833 l 347 833 l 347 972 z "},"#":{"ha":1319,"x_min":0,"x_max":1111,"o":"m 0 1181 l 1111 1181 l 1111 1042 l 0 1042 l 0 1181 m 0 347 l 1111 347 l 1111 208 l 0 208 l 0 347 m 139 1389 l 417 1389 l 417 1250 l 139 1250 l 139 1389 m 694 1389 l 972 1389 l 972 1250 l 694 1250 l 694 1389 m 139 764 l 417 764 l 417 625 l 139 625 l 139 764 m 139 139 l 417 139 l 417 0 l 139 0 l 139 139 m 694 139 l 972 139 l 972 0 l 694 0 l 694 139 m 694 764 l 972 764 l 972 625 l 694 625 l 694 764 m 139 556 l 417 556 l 417 417 l 139 417 l 139 556 m 694 556 l 972 556 l 972 417 l 694 417 l 694 556 m 139 972 l 417 972 l 417 833 l 139 833 l 139 972 m 694 972 l 972 972 l 972 833 l 694 833 l 694 972 z "}}}
